<svg width="516" height="970" viewBox="0 0 516 970" fill="none" xmlns="http://www.w3.org/2000/svg">
<path d="M258.325 42.242C258.325 42.242 259.365 69.0367 308.045 77.3576C330.435 81.1898 339.856 97.633 343.664 108.473C345.668 108.778 347.686 109.068 349.782 109.343C392.742 115.114 409.718 140.535 416.156 155.986H443.838C446.091 155.986 448.323 156.429 450.405 157.29C452.487 158.151 454.378 159.412 455.972 161.003C457.565 162.594 458.829 164.482 459.691 166.561C460.554 168.639 460.998 170.867 460.998 173.116C465.55 173.12 469.914 174.928 473.132 178.143C476.35 181.358 478.157 185.717 478.157 190.262V778.355C478.157 782.903 476.348 787.264 473.127 790.479C469.906 793.694 465.537 795.501 460.982 795.501C460.982 800.044 459.174 804.401 455.956 807.614C452.738 810.826 448.374 812.631 443.823 812.631H416.63C410.605 827.899 393.919 854.602 349.766 860.526C347.686 860.801 345.668 861.091 343.649 861.411C339.841 872.236 330.42 888.679 308.03 892.527C261.919 900.435 258.554 924.894 258.325 927.444C258.08 924.802 254.624 900.435 208.62 892.542C186.215 888.694 176.809 872.251 172.986 861.426C170.998 861.106 168.979 860.816 166.869 860.541C122.716 854.617 106.015 827.929 99.9891 812.646H72.8274C70.5727 812.648 68.3397 812.207 66.256 811.347C64.1724 810.487 62.2789 809.225 60.6839 807.634C59.0888 806.044 57.8235 804.154 56.9602 802.075C56.0969 799.996 55.6525 797.767 55.6525 795.516C51.0975 795.516 46.729 793.71 43.5081 790.494C40.2872 787.279 38.4777 782.918 38.4777 778.371V190.262C38.4777 185.714 40.2872 181.353 43.5081 178.138C46.729 174.923 51.0975 173.116 55.6525 173.116C55.6525 170.865 56.0969 168.636 56.9602 166.557C57.8235 164.478 59.0888 162.589 60.6839 160.998C62.2789 159.407 64.1724 158.145 66.256 157.285C68.3397 156.425 70.5727 155.984 72.8274 155.986H100.509C106.948 140.535 123.924 115.114 166.884 109.343C168.964 109.068 170.983 108.778 173.001 108.473C176.825 97.633 186.23 81.1898 208.636 77.3576C257.3 68.9909 258.356 42.242 258.356 42.242H258.325ZM261.414 42.0894L255.817 42.1657H255.343C255.343 42.1657 254.945 48.2727 249.103 55.2042C243.597 61.7235 232.035 70.365 208.162 74.4567C185.068 78.4263 174.974 95.1138 170.799 105.847L166.547 106.442C123.526 112.214 105.648 137.314 98.582 153.054H72.8274C67.9576 153.06 63.2526 154.816 59.5735 158.001C55.8944 161.186 53.4873 165.587 52.7926 170.398C47.9947 171.085 43.6027 173.468 40.4147 177.113C37.2266 180.757 35.4541 185.423 35.4189 190.262V778.355C35.4248 783.215 37.1841 787.91 40.3748 791.58C43.5655 795.251 47.9739 797.651 52.7926 798.341C53.4873 803.152 55.8944 807.554 59.5735 810.739C63.2526 813.924 67.9576 815.679 72.8274 815.685H97.955C104.868 831.868 122.624 857.671 166.471 863.549L170.723 864.159C174.898 874.847 184.992 891.641 208.085 895.534C251.764 903.031 255.022 925.199 255.251 927.703L255.419 929.474L257.025 930.207L260.971 932.009L261.384 927.719C261.613 925.215 264.825 903.046 308.565 895.534C331.643 891.565 341.737 874.877 345.912 864.159L350.164 863.549C394.011 857.671 411.782 831.868 418.695 815.685H443.823C448.685 815.672 453.381 813.912 457.051 810.727C460.721 807.543 463.121 803.146 463.812 798.341C468.63 797.651 473.039 795.251 476.229 791.58C479.42 787.91 481.179 783.215 481.185 778.355V190.262C481.168 185.41 479.404 180.726 476.214 177.065C473.025 173.404 468.622 171.011 463.812 170.322C463.12 165.512 460.716 161.111 457.04 157.926C453.363 154.74 448.66 152.984 443.792 152.978H418.145C411.064 137.237 393.185 112.137 350.164 106.366L345.912 105.771C341.737 95.0833 331.643 78.2889 308.565 74.3804C284.691 70.2887 273.114 61.6472 267.608 55.1279C261.781 48.2117 261.384 42.1504 261.384 42.0894H261.414Z" fill="url(#paint0_linear_6_2021)"/>
<path d="M265.819 35.2356C266.745 35.2336 267.663 35.4142 268.519 35.7672C269.376 36.1202 270.154 36.6386 270.809 37.2926C271.464 37.9465 271.983 38.7233 272.337 39.5781C272.69 40.4329 272.871 41.3491 272.869 42.274V42.3961C273.16 43.9229 276.678 58.4882 310.507 64.3051C319.812 65.7664 328.621 69.4634 336.177 75.078C343.733 80.6925 349.808 88.0562 353.88 96.5351C395.173 102.749 415.514 125.299 425.241 142.735H443.823C450.1 142.74 456.235 144.6 461.455 148.081C466.675 151.561 470.747 156.506 473.156 162.293C478.945 164.695 483.894 168.752 487.38 173.955C490.866 179.157 492.733 185.271 492.747 191.53V779.624C492.742 785.89 490.879 792.015 487.392 797.226C483.906 802.437 478.952 806.502 473.156 808.907C470.747 814.694 466.675 819.639 461.455 823.119C456.235 826.6 450.1 828.46 443.823 828.465H425.944C416.34 846.404 395.999 869.596 353.88 875.917C349.808 884.396 343.733 891.759 336.177 897.374C328.621 902.988 319.812 906.685 310.507 908.147C276.662 913.964 273.145 928.544 272.869 930.071C272.886 929.898 272.886 929.724 272.869 929.552V930.071C272.877 930.116 272.877 930.163 272.869 930.208C272.869 930.208 272.869 930.208 272.869 930.102C272.837 931.947 272.08 933.706 270.762 935C269.443 936.293 267.668 937.018 265.819 937.018H250.846C249.919 937.02 249.001 936.839 248.144 936.486C247.286 936.134 246.507 935.615 245.851 934.962C245.195 934.308 244.674 933.531 244.319 932.676C243.964 931.821 243.781 930.905 243.781 929.979V929.552C243.76 929.77 243.76 929.99 243.781 930.208C243.689 929.552 241.12 914.177 206.128 908.177C196.826 906.714 188.019 903.016 180.466 897.401C172.914 891.787 166.841 884.424 162.77 875.947C120.651 869.627 100.295 846.435 90.7058 828.495H72.8275C66.548 828.491 60.4103 826.632 55.1877 823.151C49.965 819.671 45.8909 814.725 43.4788 808.938C37.6847 806.529 32.7335 802.464 29.2476 797.253C25.7617 792.043 23.8968 785.92 23.8875 779.654V191.53C23.8968 185.265 25.7617 179.142 29.2476 173.931C32.7335 168.721 37.6847 164.656 43.4788 162.247C45.8886 156.456 49.9616 151.508 55.1845 148.024C60.4074 144.541 66.5463 142.679 72.8275 142.674H91.394C101.136 125.238 121.477 102.688 162.77 96.474C166.841 87.9971 172.914 80.6345 180.466 75.0201C188.019 69.4057 196.826 65.7076 206.128 64.2441C241.12 58.2439 243.689 42.8694 243.781 42.2129C243.76 42.4312 243.76 42.651 243.781 42.8694H243.872V42.1976C243.872 41.272 244.055 40.3555 244.411 39.5006C244.766 38.6457 245.287 37.8691 245.943 37.2153C246.599 36.5615 247.378 36.0434 248.235 35.6906C249.093 35.3378 250.011 35.1572 250.938 35.1592H265.911L265.819 35.2356ZM265.911 32.1057H250.938C248.31 32.1084 245.787 33.1308 243.9 34.9571C242.014 36.7833 240.912 39.2703 240.829 41.8923C240.493 43.2511 236.608 55.9079 205.653 61.2211C196.135 62.7598 187.113 66.512 179.315 72.1744C171.518 77.8369 165.164 85.2509 160.766 93.8174C120.636 100.321 100.004 121.971 89.62 139.742H72.7969C66.1256 139.734 59.593 141.643 53.9792 145.241C48.3653 148.839 43.9078 153.974 41.1389 160.033C35.0654 162.794 29.917 167.242 26.3098 172.847C22.7025 178.452 20.789 184.975 20.7982 191.637V779.624C20.789 786.286 22.7025 792.809 26.3098 798.414C29.917 804.019 35.0654 808.467 41.1389 811.228C43.9078 817.287 48.3653 822.422 53.9792 826.02C59.593 829.618 66.1256 831.527 72.7969 831.518H88.8553C99.1174 849.84 119.779 872.069 160.736 878.695C165.143 887.232 171.497 894.617 179.285 900.255C187.074 905.892 196.079 909.626 205.577 911.154C236.899 916.529 240.477 929.476 240.753 930.544C240.905 933.114 242.034 935.528 243.911 937.293C245.787 939.058 248.268 940.041 250.846 940.041H265.819C268.413 940.029 270.904 939.028 272.784 937.243C274.663 935.458 275.788 933.023 275.928 930.437C276.326 928.743 280.333 916.422 311.104 911.154C320.604 909.627 329.612 905.894 337.403 900.256C345.194 894.618 351.55 887.233 355.96 878.695C396.902 872.069 417.579 849.809 427.841 831.518H443.914C450.586 831.527 457.118 829.618 462.732 826.02C468.346 822.422 472.804 817.287 475.572 811.228C481.642 808.464 486.786 804.014 490.39 798.409C493.994 792.805 495.906 786.284 495.898 779.624V191.53C495.906 184.87 493.994 178.349 490.39 172.745C486.786 167.14 481.642 162.69 475.572 159.926C472.799 153.85 468.328 148.702 462.697 145.1C457.065 141.498 450.511 139.595 443.823 139.62H427.107C416.722 121.849 396.091 100.199 355.96 93.6953C351.533 85.1617 345.16 77.7846 337.356 72.1576C329.552 66.5306 320.534 62.8108 311.027 61.2974C280.547 56.0606 276.387 43.8771 275.852 42.0602C275.792 39.4222 274.701 36.9121 272.812 35.0663C270.923 33.2205 268.386 32.1854 265.742 32.182L265.911 32.1057Z" fill="url(#paint1_linear_6_2021)"/>
<path d="M493.573 140.856C490.928 134.528 486.468 129.123 480.753 125.32C475.038 121.516 468.325 119.485 461.457 119.481H441.116C430.41 100.397 408.173 75.6935 362.95 68.8994C358.5 59.6254 351.86 51.5691 343.601 45.4231C335.343 39.277 325.713 35.2252 315.539 33.616C278.482 27.2494 274.628 11.2947 274.322 9.61527V9.49313C274.324 8.47805 274.126 7.47256 273.737 6.53436C273.349 5.59616 272.779 4.74373 272.06 4.02595C271.341 3.30818 270.487 2.7392 269.548 2.35168C268.608 1.96415 267.601 1.7657 266.584 1.76772H250.143C249.126 1.7657 248.119 1.96415 247.179 2.35168C246.239 2.7392 245.386 3.30818 244.667 4.02595C243.948 4.74373 243.378 5.59616 242.989 6.53436C242.601 7.47256 242.402 8.47805 242.404 9.49313V10.2107C242.384 9.97196 242.384 9.73188 242.404 9.49313C242.297 10.1954 239.483 27.0356 201.111 33.616C190.939 35.2289 181.31 39.2822 173.053 45.4278C164.795 51.5734 158.154 59.6277 153.701 68.8994C108.477 75.6935 86.2095 100.397 75.5498 119.481H55.2091C48.3414 119.487 41.6287 121.519 35.9144 125.322C30.2001 129.125 25.7392 134.529 23.0923 140.856C16.7552 143.498 11.3417 147.951 7.53223 153.656C3.72272 159.36 1.68706 166.062 1.68103 172.918V795.638C1.68505 802.494 3.7199 809.197 7.52967 814.902C11.3394 820.606 16.754 825.059 23.0923 827.7C25.7392 834.026 30.2001 839.431 35.9144 843.234C41.6287 847.037 48.3414 849.069 55.2091 849.075H74.7851C85.2919 868.724 107.575 894.114 153.701 900.985C158.151 910.26 164.79 918.318 173.049 924.467C181.307 930.615 190.937 934.67 201.111 936.283C239.422 942.864 242.236 959.689 242.404 960.406C242.404 959.948 242.404 960.147 242.404 960.147C242.402 961.162 242.601 962.167 242.989 963.105C243.378 964.044 243.948 964.896 244.667 965.614C245.386 966.332 246.239 966.901 247.179 967.288C248.119 967.676 249.126 967.874 250.143 967.872H266.523C267.539 967.874 268.547 967.676 269.486 967.288C270.426 966.901 271.28 966.332 271.999 965.614C272.718 964.896 273.288 964.044 273.676 963.105C274.064 962.167 274.263 961.162 274.261 960.147C274.261 960.147 274.261 959.948 274.261 960.406C274.353 959.689 277.182 942.864 315.554 936.283C325.73 934.674 335.362 930.62 343.621 924.471C351.879 918.322 358.518 910.262 362.965 900.985C409.091 894.068 431.374 868.678 441.881 849.075H461.472C468.34 849.071 475.054 847.039 480.768 843.236C486.483 839.433 490.943 834.028 493.589 827.7C499.927 825.059 505.342 820.606 509.151 814.902C512.961 809.197 514.996 802.494 515 795.638V172.933C514.996 166.073 512.959 159.367 509.147 153.659C505.334 147.951 499.916 143.497 493.573 140.856V140.856Z" stroke="url(#paint2_linear_6_2021)" stroke-width="2" stroke-miterlimit="10"/>
<path d="M472.513 161.866C470.113 156.068 466.046 151.11 460.825 147.618C455.604 144.126 449.464 142.257 443.18 142.247H424.598C414.871 124.811 394.531 102.261 353.237 96.047C349.165 87.5681 343.09 80.2044 335.534 74.5898C327.979 68.9753 319.169 65.2783 309.865 63.817C276.035 58.0001 272.517 43.4347 272.227 41.908V41.7858C272.229 40.861 272.048 39.9448 271.694 39.09C271.34 38.2351 270.821 37.4584 270.166 36.8045C269.511 36.1505 268.733 35.6321 267.877 35.2791C267.02 34.9261 266.103 34.7454 265.176 34.7475H250.204C249.276 34.7454 248.358 34.926 247.501 35.2788C246.644 35.6316 245.865 36.1498 245.208 36.8035C244.552 37.4573 244.031 38.2339 243.676 39.0888C243.321 39.9438 243.138 40.8602 243.138 41.7858V42.4576H243.046C243.026 42.2392 243.026 42.0195 243.046 41.8011C242.954 42.4576 240.385 57.8321 205.393 63.8323C196.091 65.2958 187.285 68.994 179.732 74.6084C172.179 80.2228 166.106 87.5853 162.035 96.0622C120.742 102.276 100.402 124.826 90.6595 142.262H72.1847C65.9053 142.266 59.7676 144.126 54.5449 147.606C49.3222 151.087 45.2481 156.032 42.836 161.82C37.042 164.229 32.0907 168.294 28.6048 173.504C25.1189 178.714 23.2541 184.838 23.2448 191.103V779.197C23.2541 785.462 25.1189 791.585 28.6048 796.796C32.0907 802.006 37.042 806.071 42.836 808.48C45.2481 814.268 49.3222 819.213 54.5449 822.694C59.7676 826.174 65.9053 828.033 72.1847 828.038H90.0019C99.591 845.977 119.947 869.169 162.066 875.49C166.137 883.966 172.21 891.329 179.763 896.943C187.315 902.558 196.122 906.256 205.424 907.719C240.416 913.72 242.985 929.094 243.077 929.751C243.056 929.532 243.056 929.312 243.077 929.094V929.522C243.077 930.447 243.26 931.364 243.615 932.219C243.97 933.074 244.491 933.85 245.147 934.504C245.803 935.158 246.583 935.676 247.44 936.029C248.297 936.381 249.215 936.562 250.142 936.56H265.115C266.041 936.562 266.959 936.381 267.815 936.028C268.672 935.675 269.45 935.157 270.105 934.503C270.76 933.849 271.279 933.072 271.633 932.217C271.986 931.363 272.167 930.446 272.165 929.522V929.094C272.186 929.312 272.186 929.532 272.165 929.751C272.257 929.094 274.842 913.72 309.819 907.719C319.123 906.258 327.933 902.561 335.488 896.947C343.044 891.332 349.12 883.968 353.192 875.49C395.311 869.169 415.651 845.977 425.256 828.038H443.134C449.411 828.032 455.547 826.172 460.767 822.692C465.987 819.212 470.058 814.266 472.467 808.48C478.264 806.074 483.217 802.01 486.704 796.799C490.19 791.588 492.053 785.463 492.059 779.197V191.103C492.048 184.85 490.187 178.739 486.71 173.537C483.233 168.335 478.294 164.275 472.513 161.866ZM272.257 42.5034V42.0454C272.257 42.3202 272.257 42.5034 272.257 42.5034ZM477.514 779.197C477.514 783.744 475.705 788.105 472.484 791.32C469.263 794.536 464.895 796.342 460.339 796.342C460.339 800.885 458.532 805.242 455.314 808.455C452.095 811.668 447.731 813.472 443.18 813.472H415.988C409.962 828.74 393.276 855.443 349.123 861.367C347.044 861.642 345.025 861.932 343.006 862.253C339.198 873.077 329.777 889.52 307.387 893.368C261.276 901.276 257.912 925.735 257.682 928.285C257.438 925.644 253.981 901.276 207.978 893.383C185.572 889.536 176.167 873.092 172.343 862.268C170.355 861.947 168.336 861.657 166.226 861.382C122.073 855.458 105.372 828.771 99.3463 813.488H72.1847C69.93 813.49 67.697 813.048 65.6133 812.188C63.5296 811.328 61.6362 810.067 60.0411 808.476C58.4461 806.885 57.1808 804.996 56.3175 802.916C55.4542 800.837 55.0098 798.608 55.0098 796.357C50.4548 796.357 46.0863 794.551 42.8653 791.336C39.6444 788.12 37.835 783.759 37.835 779.212V191.103C37.835 186.556 39.6444 182.195 42.8653 178.979C46.0863 175.764 50.4548 173.958 55.0098 173.958C55.0098 171.707 55.4542 169.478 56.3175 167.399C57.1808 165.319 58.4461 163.43 60.0411 161.839C61.6362 160.248 63.5296 158.987 65.6133 158.127C67.697 157.267 69.93 156.825 72.1847 156.827H99.8663C106.305 141.377 123.281 115.956 166.241 110.185C168.321 109.91 170.34 109.62 172.359 109.314C176.182 98.4745 185.588 82.0313 207.993 78.1991C256.658 69.8325 257.713 43.0836 257.713 43.0836C257.713 43.0836 258.753 69.8783 307.433 78.1991C329.823 82.0313 339.244 98.4745 343.052 109.314C345.055 109.62 347.074 109.91 349.169 110.185C392.129 115.956 409.105 141.377 415.544 156.827H443.226C445.479 156.827 447.711 157.27 449.792 158.131C451.874 158.992 453.766 160.254 455.359 161.845C456.953 163.435 458.217 165.324 459.079 167.402C459.941 169.48 460.385 171.708 460.385 173.958C464.932 173.97 469.289 175.781 472.5 178.996C475.711 182.21 477.514 186.564 477.514 191.103V779.197Z" fill="url(#paint3_linear_6_2021)"/>
<path d="M460.971 173.247C460.973 170.997 460.531 168.767 459.669 166.687C458.808 164.607 457.544 162.717 455.951 161.125C454.357 159.532 452.465 158.269 450.382 157.407C448.299 156.546 446.066 156.102 443.811 156.102H416.13C409.691 140.666 392.715 115.231 349.755 109.475C347.675 109.2 345.656 108.894 343.637 108.589C339.829 97.7644 330.408 81.3211 308.018 77.4737C259.338 69.1223 258.298 42.3582 258.298 42.3582C258.298 42.3582 257.243 69.1681 208.579 77.4737C186.173 81.3211 176.768 97.7644 172.944 108.589C170.956 108.894 168.937 109.2 166.827 109.475C123.867 115.231 106.89 140.666 100.452 156.102H72.7702C68.2151 156.102 63.8466 157.908 60.6257 161.124C57.4048 164.339 55.5953 168.7 55.5953 173.247C53.3385 173.253 51.1051 173.703 49.0227 174.572C46.9402 175.44 45.0496 176.709 43.4588 178.307C41.868 179.905 40.6083 181.8 39.7517 183.885C38.895 185.969 38.4582 188.201 38.4663 190.454V778.425C38.4663 782.973 40.2758 787.334 43.4967 790.549C46.7176 793.765 51.0861 795.571 55.6412 795.571C55.6412 800.118 57.4507 804.479 60.6716 807.695C63.8925 810.91 68.261 812.717 72.816 812.717H99.993C106.019 827.984 122.719 854.672 166.872 860.596C168.952 860.871 170.971 861.176 172.99 861.481C176.813 872.306 186.219 888.749 208.624 892.597C257.289 900.948 258.344 927.712 258.344 927.712C258.344 927.712 259.384 900.902 308.064 892.597C330.454 888.749 339.875 872.306 343.683 861.481C345.687 861.176 347.706 860.871 349.801 860.596C393.954 854.672 410.639 828 416.665 812.717H443.857C446.112 812.717 448.345 812.273 450.428 811.411C452.51 810.549 454.403 809.286 455.996 807.694C457.59 806.102 458.854 804.211 459.715 802.131C460.577 800.051 461.019 797.822 461.017 795.571C463.272 795.571 465.506 795.128 467.589 794.266C469.673 793.404 471.567 792.141 473.161 790.549C474.756 788.957 476.021 787.067 476.884 784.987C477.748 782.907 478.192 780.677 478.192 778.425V190.454C478.2 188.194 477.76 185.954 476.898 183.863C476.035 181.773 474.767 179.874 473.167 178.275C471.566 176.675 469.665 175.408 467.572 174.545C465.479 173.682 463.235 173.241 460.971 173.247Z" fill="url(#paint4_radial_6_2021)"/>
<defs>
<linearGradient id="paint0_linear_6_2021" x1="258.325" y1="932.009" x2="258.325" y2="42.0894" gradientUnits="userSpaceOnUse">
<stop stop-color="#629897"/>
<stop offset="0.25" stop-color="#4F8282"/>
<stop offset="0.74" stop-color="#2D5C5E"/>
<stop offset="1" stop-color="#204D50"/>
</linearGradient>
<linearGradient id="paint1_linear_6_2021" x1="258.325" y1="940.041" x2="258.325" y2="32.182" gradientUnits="userSpaceOnUse">
<stop stop-color="#204D50"/>
<stop offset="0.19" stop-color="#2D5C5F"/>
<stop offset="0.55" stop-color="#4E8286"/>
<stop offset="1" stop-color="#7DB9BD"/>
</linearGradient>
<linearGradient id="paint2_linear_6_2021" x1="258.325" y1="969.49" x2="258.325" y2="0.195136" gradientUnits="userSpaceOnUse">
<stop stop-color="#E1B664"/>
<stop offset="0.22" stop-color="#956D3A"/>
<stop offset="0.3" stop-color="#9C743C"/>
<stop offset="0.42" stop-color="#AF8842"/>
<stop offset="0.5" stop-color="#C19C48"/>
<stop offset="0.77" stop-color="#FFF789"/>
<stop offset="1" stop-color="#96743B"/>
</linearGradient>
<linearGradient id="paint3_linear_6_2021" x1="257.682" y1="936.56" x2="257.682" y2="34.8085" gradientUnits="userSpaceOnUse">
<stop stop-color="#204D50"/>
<stop offset="0.26" stop-color="#2D5C5E"/>
<stop offset="0.75" stop-color="#4F8282"/>
<stop offset="1" stop-color="#629897"/>
</linearGradient>
<radialGradient id="paint4_radial_6_2021" cx="0" cy="0" r="1" gradientUnits="userSpaceOnUse" gradientTransform="translate(270.182 804.808) scale(460.005 459.22)">
<stop stop-color="#157B7D"/>
<stop offset="1" stop-color="#001F23"/>
</radialGradient>
</defs>
</svg>
