<svg width="235" height="17" viewBox="0 0 235 17" fill="none" xmlns="http://www.w3.org/2000/svg">
<path style="mix-blend-mode:screen" d="M235 1.14556C233.801 3.5737 231.819 5.49903 229.392 6.59304C227.011 7.74111 224.499 8.57689 221.915 9.08066C216.762 10.0918 211.531 10.6188 206.286 10.6551C195.832 10.6244 185.391 9.8986 175.028 8.48237C164.685 7.22283 154.343 5.33352 144.199 3.20805C141.78 2.79084 139.31 2.79084 136.891 3.20805C134.473 3.67429 132.134 4.50177 129.949 5.66414C125.528 8.06116 121.682 11.4385 118.687 15.5515L117.6 17L116.343 15.6617C112.9 11.9161 108.989 8.65504 104.713 5.96328C102.656 4.65637 100.405 3.70435 98.0482 3.14505C95.6624 2.75909 93.2325 2.75909 90.8467 3.14505C80.6572 4.81394 70.4219 6.29392 60.2018 7.34878C49.9818 8.40365 39.5931 9.08064 29.2352 9.01767C24.05 8.97842 18.8739 8.56808 13.7442 7.78962C11.1764 7.40318 8.65156 6.75986 6.20556 5.86882C3.69321 5.08743 1.5083 3.46323 0 1.25578C1.60545 3.33541 3.84522 4.79944 6.3588 5.41223C8.80476 6.19033 11.3197 6.71771 13.8668 6.98665C18.9565 7.52253 24.0765 7.6909 29.1892 7.49048C39.4389 7.17054 49.6666 6.32456 59.834 4.95568C70.0388 3.60168 80.2282 2.16891 90.3716 0.342585C93.0809 -0.114195 95.8446 -0.114195 98.5538 0.342585C101.262 0.9399 103.853 2.00459 106.215 3.49143C110.762 6.30334 114.93 9.71765 118.611 13.6465L116.282 13.7724C119.589 9.31863 123.825 5.68205 128.678 3.12934C131.129 1.84541 133.752 0.943336 136.462 0.452806C139.197 0.0220363 141.983 0.0646356 144.705 0.578786C154.94 2.81447 165.114 4.64079 175.35 6.27819C185.594 7.96018 195.932 8.96983 206.301 9.30105C211.468 9.50927 216.643 9.23526 221.761 8.48237C224.318 8.10405 226.82 7.40064 229.208 6.38836C231.682 5.40109 233.735 3.5431 235 1.14556Z" fill="url(#paint0_linear_6_2276)"/>
<defs>
<linearGradient id="paint0_linear_6_2276" x1="53006.6" y1="6916.96" x2="89060.3" y2="6916.96" gradientUnits="userSpaceOnUse">
<stop stop-color="#E1B664"/>
<stop offset="0.22" stop-color="#956D3A"/>
<stop offset="0.3" stop-color="#9C743C"/>
<stop offset="0.42" stop-color="#AF8842"/>
<stop offset="0.5" stop-color="#C19C48"/>
<stop offset="0.77" stop-color="#FFF789"/>
<stop offset="1" stop-color="#96743B"/>
</linearGradient>
</defs>
</svg>
