<svg width="513" height="771" viewBox="0 0 513 771" fill="none" xmlns="http://www.w3.org/2000/svg">
<g opacity="0.580331">
<path opacity="0.580331" d="M302.506 6.12325C302.506 6.42177 302.387 6.70806 302.176 6.91915C301.964 7.13023 301.678 7.2488 301.379 7.2488C301.08 7.2488 300.793 7.13023 300.581 6.91915C300.37 6.70806 300.251 6.42177 300.251 6.12325C300.251 5.82473 300.37 5.53844 300.581 5.32735C300.793 5.11627 301.08 4.99768 301.379 4.99768C301.678 4.99768 301.964 5.11627 302.176 5.32735C302.387 5.53844 302.506 5.82473 302.506 6.12325Z" fill="#C5FFD8"/>
</g>
<g opacity="0.636133">
<path opacity="0.636133" d="M253.26 1.85945C253.277 2.01842 253.261 2.17923 253.212 2.33141C253.163 2.4836 253.082 2.62374 252.975 2.74274C252.868 2.86173 252.737 2.95691 252.591 3.02206C252.445 3.08721 252.286 3.12086 252.126 3.12086C251.966 3.12086 251.808 3.08721 251.661 3.02206C251.515 2.95691 251.384 2.86173 251.277 2.74274C251.17 2.62374 251.09 2.4836 251.04 2.33141C250.991 2.17923 250.975 2.01842 250.992 1.85945C250.992 1.71164 251.021 1.56527 251.078 1.42871C251.135 1.29215 251.218 1.16808 251.322 1.06356C251.427 0.959042 251.551 0.876143 251.688 0.819578C251.825 0.763014 251.971 0.733887 252.12 0.733887C252.42 0.733866 252.708 0.85204 252.921 1.06275C253.135 1.27346 253.257 1.55973 253.26 1.85945Z" fill="#C5FFD8"/>
</g>
<g opacity="0.648214">
<path opacity="0.648214" d="M190.486 2.86579C190.486 3.08841 190.42 3.30604 190.296 3.49113C190.172 3.67623 189.996 3.82048 189.79 3.90567C189.584 3.99087 189.357 4.01316 189.138 3.96973C188.92 3.9263 188.719 3.8191 188.561 3.66169C188.404 3.50428 188.296 3.30372 188.253 3.08539C188.209 2.86705 188.232 2.64074 188.317 2.43507C188.402 2.2294 188.547 2.0536 188.732 1.92993C188.917 1.80625 189.135 1.74023 189.358 1.74023C189.657 1.74023 189.944 1.8588 190.156 2.06989C190.367 2.28097 190.486 2.56727 190.486 2.86579Z" fill="#C5FFD8"/>
</g>
<g opacity="0.590229">
<path opacity="0.590229" d="M118.852 5.62006C118.848 5.91979 118.727 6.20605 118.513 6.41676C118.3 6.62747 118.011 6.74564 117.711 6.74562C117.412 6.74562 117.125 6.62703 116.914 6.41595C116.703 6.20487 116.584 5.91857 116.584 5.62006C116.567 5.4611 116.583 5.30029 116.632 5.1481C116.681 4.99592 116.762 4.85578 116.869 4.73679C116.976 4.61779 117.107 4.52262 117.253 4.45747C117.399 4.39232 117.558 4.35864 117.718 4.35864C117.878 4.35864 118.036 4.39232 118.183 4.45747C118.329 4.52262 118.46 4.61779 118.567 4.73679C118.674 4.85578 118.754 4.99592 118.803 5.1481C118.853 5.30029 118.869 5.4611 118.852 5.62006Z" fill="#C5FFD8"/>
</g>
<g opacity="0.483393">
<path opacity="0.483393" d="M75.4947 17.7362C75.4947 17.9615 75.4278 18.1817 75.3025 18.369C75.1772 18.5562 74.999 18.7022 74.7906 18.7884C74.5822 18.8746 74.3528 18.8972 74.1316 18.8532C73.9103 18.8093 73.7071 18.7008 73.5475 18.5415C73.388 18.3823 73.2794 18.1793 73.2354 17.9584C73.1913 17.7375 73.2139 17.5085 73.3003 17.3004C73.3866 17.0923 73.5328 16.9145 73.7204 16.7893C73.908 16.6642 74.1285 16.5974 74.3541 16.5974C74.5044 16.5956 74.6535 16.6239 74.7927 16.6805C74.9319 16.7371 75.0583 16.8209 75.1646 16.927C75.2709 17.0331 75.3548 17.1593 75.4115 17.2983C75.4682 17.4373 75.4965 17.5862 75.4947 17.7362Z" fill="#C5FFD8"/>
</g>
<g opacity="0.424375">
<path opacity="0.424375" d="M65.6271 41.1872C65.6443 41.3462 65.6279 41.507 65.5787 41.6592C65.5296 41.8113 65.4489 41.9515 65.3419 42.0705C65.235 42.1895 65.1041 42.2846 64.9578 42.3498C64.8116 42.4149 64.6532 42.4486 64.4931 42.4486C64.3329 42.4486 64.1746 42.4149 64.0283 42.3498C63.882 42.2846 63.7512 42.1895 63.6442 42.0705C63.5372 41.9515 63.4565 41.8113 63.4074 41.6592C63.3583 41.507 63.3418 41.3462 63.3591 41.1872C63.3591 40.8887 63.4778 40.6024 63.6892 40.3913C63.9007 40.1802 64.1874 40.0616 64.4864 40.0616C64.7867 40.0616 65.0748 40.1798 65.2883 40.3905C65.5019 40.6012 65.6236 40.8875 65.6271 41.1872Z" fill="#C5FFD8"/>
</g>
<g opacity="0.525336">
<path opacity="0.525336" d="M136.147 45.6629C136.147 45.9613 136.028 46.2476 135.817 46.4587C135.605 46.6697 135.319 46.7883 135.02 46.7883C134.793 46.7909 134.57 46.726 134.381 46.6019C134.191 46.4778 134.043 46.3001 133.955 46.0915C133.867 45.8829 133.843 45.6529 133.887 45.4308C133.931 45.2086 134.039 45.0045 134.2 44.8445C134.36 44.6845 134.565 44.5757 134.787 44.5322C135.01 44.4887 135.24 44.5124 135.449 44.6002C135.658 44.688 135.836 44.836 135.96 45.0253C136.084 45.2146 136.149 45.4365 136.147 45.6629Z" fill="#C5FFD8"/>
</g>
<g opacity="0.503616">
<path opacity="0.503616" d="M319.31 33.0303C319.31 33.3289 319.191 33.6151 318.98 33.8262C318.769 34.0373 318.482 34.1559 318.183 34.1559C317.884 34.1559 317.597 34.0373 317.386 33.8262C317.174 33.6151 317.055 33.3289 317.055 33.0303C317.055 32.7318 317.174 32.4455 317.386 32.2344C317.597 32.0234 317.884 31.9048 318.183 31.9048C318.482 31.9048 318.769 32.0234 318.98 32.2344C319.191 32.4455 319.31 32.7318 319.31 33.0303Z" fill="#C5FFD8"/>
</g>
<g opacity="0.478764">
<path opacity="0.478764" d="M394.472 32.3286C394.472 32.6271 394.353 32.9134 394.142 33.1245C393.931 33.3356 393.644 33.4542 393.345 33.4542C393.118 33.4568 392.896 33.3919 392.706 33.2678C392.517 33.1436 392.368 32.9659 392.28 32.7573C392.192 32.5487 392.169 32.3186 392.212 32.0965C392.256 31.8744 392.365 31.6702 392.525 31.5102C392.685 31.3501 392.89 31.2414 393.112 31.1979C393.335 31.1544 393.565 31.178 393.774 31.2659C393.983 31.3537 394.161 31.5017 394.286 31.691C394.41 31.8803 394.475 32.1023 394.472 32.3286Z" fill="#C5FFD8"/>
</g>
<g opacity="0.474901">
<path opacity="0.474901" d="M344.072 38.7905C344.09 38.9494 344.073 39.1102 344.024 39.2624C343.975 39.4146 343.894 39.5548 343.787 39.6737C343.68 39.7927 343.549 39.8879 343.403 39.9531C343.257 40.0182 343.099 40.0519 342.938 40.0519C342.778 40.0519 342.62 40.0182 342.474 39.9531C342.327 39.8879 342.197 39.7927 342.09 39.6737C341.983 39.5548 341.902 39.4146 341.853 39.2624C341.804 39.1102 341.787 38.9494 341.804 38.7905C341.804 38.492 341.923 38.2057 342.135 37.9946C342.346 37.7835 342.633 37.6649 342.932 37.6649C343.232 37.6649 343.52 37.7831 343.734 37.9938C343.947 38.2045 344.069 38.4907 344.072 38.7905Z" fill="#C5FFD8"/>
</g>
<g opacity="0.569868">
<path opacity="0.569868" d="M189.345 37.6252C189.315 37.9043 189.182 38.1625 188.973 38.35C188.764 38.5376 188.492 38.6413 188.211 38.6413C187.93 38.6413 187.659 38.5376 187.449 38.35C187.24 38.1625 187.107 37.9043 187.077 37.6252C187.06 37.4662 187.076 37.3054 187.126 37.1532C187.175 37.001 187.255 36.8609 187.362 36.7419C187.469 36.6229 187.6 36.5277 187.746 36.4626C187.893 36.3974 188.051 36.3638 188.211 36.3638C188.371 36.3638 188.53 36.3974 188.676 36.4626C188.822 36.5277 188.953 36.6229 189.06 36.7419C189.167 36.8609 189.248 37.001 189.297 37.1532C189.346 37.3054 189.362 37.4662 189.345 37.6252Z" fill="#C5FFD8"/>
</g>
<g opacity="0.371226">
<path opacity="0.371226" d="M38.0929 69.5509C38.0929 69.7761 38.026 69.9963 37.9006 70.1836C37.7753 70.3709 37.5972 70.5168 37.3887 70.603C37.1803 70.6892 36.951 70.7118 36.7297 70.6678C36.5085 70.6239 36.3052 70.5154 36.1457 70.3562C35.9862 70.1969 35.8776 69.994 35.8336 69.7731C35.7896 69.5522 35.8121 69.3232 35.8985 69.1151C35.9848 68.907 36.131 68.7291 36.3186 68.604C36.5061 68.4789 36.7267 68.4121 36.9523 68.4121C37.1025 68.4103 37.2517 68.4385 37.3909 68.4951C37.53 68.5517 37.6565 68.6356 37.7628 68.7417C37.869 68.8478 37.953 68.974 38.0097 69.113C38.0664 69.252 38.0947 69.4009 38.0929 69.5509Z" fill="#C5FFD8"/>
</g>
<g opacity="0.37464">
<path opacity="0.37464" d="M31.0634 85.9177C31.066 86.144 31.001 86.366 30.8767 86.5553C30.7524 86.7446 30.5744 86.8926 30.3654 86.9804C30.1564 87.0683 29.926 87.0919 29.7035 87.0484C29.481 87.0049 29.2766 86.8962 29.1163 86.7361C28.9559 86.5761 28.847 86.3719 28.8034 86.1498C28.7599 85.9276 28.7836 85.6976 28.8715 85.489C28.9595 85.2803 29.1078 85.1026 29.2974 84.9785C29.4869 84.8544 29.7093 84.7895 29.936 84.7921C30.235 84.7921 30.5217 84.9107 30.7332 85.1218C30.9446 85.3328 31.0634 85.6191 31.0634 85.9177Z" fill="#C5FFD8"/>
</g>
<g opacity="0.439478">
<path opacity="0.439478" d="M249.586 74.2914C249.589 74.5177 249.524 74.7397 249.399 74.929C249.275 75.1183 249.097 75.2663 248.888 75.3542C248.679 75.442 248.449 75.4656 248.226 75.4221C248.004 75.3786 247.799 75.2699 247.639 75.1098C247.479 74.9498 247.37 74.7456 247.326 74.5235C247.283 74.3014 247.306 74.0713 247.394 73.8627C247.482 73.6541 247.631 73.4764 247.82 73.3522C248.01 73.2281 248.232 73.1632 248.459 73.1658C248.758 73.1658 249.045 73.2844 249.256 73.4955C249.467 73.7066 249.586 73.9929 249.586 74.2914Z" fill="#C5FFD8"/>
</g>
<g opacity="0.456601">
<path opacity="0.456601" d="M429.42 72.0272C429.417 72.3269 429.295 72.6132 429.082 72.8239C428.868 73.0346 428.58 73.1527 428.28 73.1527C427.981 73.1527 427.694 73.0341 427.483 72.823C427.271 72.612 427.153 72.3257 427.153 72.0272C427.135 71.8682 427.152 71.7074 427.201 71.5552C427.25 71.403 427.331 71.2629 427.438 71.1439C427.545 71.0249 427.676 70.9297 427.822 70.8646C427.968 70.7994 428.126 70.7657 428.287 70.7657C428.447 70.7657 428.605 70.7994 428.751 70.8646C428.898 70.9297 429.028 71.0249 429.135 71.1439C429.242 71.2629 429.323 71.403 429.372 71.5552C429.421 71.7074 429.438 71.8682 429.42 72.0272Z" fill="#C5FFD8"/>
</g>
<g opacity="0.494722">
<path opacity="0.494722" d="M452.392 78.7937C452.409 78.9527 452.393 79.1135 452.344 79.2657C452.295 79.4179 452.214 79.5581 452.107 79.6771C452 79.7961 451.869 79.8912 451.723 79.9564C451.577 80.0215 451.418 80.0552 451.258 80.0552C451.098 80.0552 450.94 80.0215 450.793 79.9564C450.647 79.8912 450.516 79.7961 450.409 79.6771C450.302 79.5581 450.222 79.4179 450.172 79.2657C450.123 79.1135 450.107 78.9527 450.124 78.7937C450.124 78.4952 450.243 78.2089 450.454 77.9978C450.666 77.7867 450.952 77.6681 451.251 77.6681C451.552 77.6681 451.84 77.7862 452.053 77.997C452.267 78.2077 452.389 78.494 452.392 78.7937Z" fill="#C5FFD8"/>
</g>
<g opacity="0.511558">
<path opacity="0.511558" d="M156.612 75.8274C156.629 75.9864 156.613 76.1472 156.563 76.2994C156.514 76.4516 156.434 76.5917 156.327 76.7107C156.22 76.8297 156.089 76.9249 155.943 76.99C155.796 77.0552 155.638 77.0888 155.478 77.0888C155.318 77.0888 155.159 77.0552 155.013 76.99C154.867 76.9249 154.736 76.8297 154.629 76.7107C154.522 76.5917 154.441 76.4516 154.392 76.2994C154.343 76.1472 154.327 75.9864 154.344 75.8274C154.344 75.5289 154.463 75.2426 154.674 75.0316C154.885 74.8205 155.172 74.7019 155.471 74.7019C155.771 74.7019 156.06 74.8201 156.273 75.0308C156.487 75.2415 156.608 75.5277 156.612 75.8274Z" fill="#C5FFD8"/>
</g>
<g opacity="0.43135">
<path opacity="0.43135" d="M91.5298 78.5686C91.5298 78.7938 91.4629 79.014 91.3376 79.2013C91.2122 79.3885 91.0341 79.5345 90.8257 79.6207C90.6172 79.7068 90.3879 79.7294 90.1666 79.6854C89.9454 79.6415 89.7421 79.5331 89.5826 79.3738C89.4231 79.2145 89.3145 79.0117 89.2704 78.7908C89.2264 78.5699 89.249 78.3409 89.3354 78.1328C89.4217 77.9248 89.5679 77.7469 89.7555 77.6218C89.943 77.4967 90.1636 77.4299 90.3892 77.4299C90.5394 77.4281 90.6886 77.4564 90.8277 77.513C90.9669 77.5696 91.0934 77.6534 91.1997 77.7595C91.3059 77.8656 91.3899 77.9918 91.4466 78.1307C91.5033 78.2697 91.5316 78.4186 91.5298 78.5686Z" fill="#C5FFD8"/>
</g>
<g opacity="0.382438">
<path opacity="0.382438" d="M134.927 84.9643C134.927 85.1895 134.86 85.4097 134.734 85.597C134.609 85.7842 134.431 85.9302 134.223 86.0164C134.014 86.1026 133.785 86.1251 133.564 86.0812C133.342 86.0372 133.139 85.9288 132.979 85.7695C132.82 85.6102 132.711 85.4074 132.667 85.1865C132.623 84.9656 132.646 84.7366 132.732 84.5285C132.819 84.3204 132.965 84.1426 133.152 84.0174C133.34 83.8923 133.56 83.8255 133.786 83.8255C133.936 83.8237 134.085 83.852 134.225 83.9086C134.364 83.9652 134.49 84.049 134.597 84.1551C134.703 84.2612 134.787 84.3874 134.843 84.5264C134.9 84.6654 134.928 84.8142 134.927 84.9643Z" fill="#C5FFD8"/>
</g>
<g opacity="0.278019">
<path opacity="0.278019" d="M221.787 95.9416C221.789 96.1679 221.724 96.3899 221.6 96.5791C221.476 96.7684 221.298 96.9164 221.089 97.0042C220.88 97.092 220.649 97.1157 220.427 97.0722C220.204 97.0287 220 96.92 219.84 96.7599C219.679 96.5999 219.57 96.3958 219.527 96.1737C219.483 95.9516 219.507 95.7215 219.595 95.5129C219.683 95.3043 219.831 95.1266 220.021 95.0025C220.21 94.8784 220.433 94.8135 220.659 94.8161C220.958 94.8161 221.245 94.9347 221.456 95.1458C221.668 95.3568 221.787 95.6431 221.787 95.9416Z" fill="#C5FFD8"/>
</g>
<g opacity="0.214945">
<path opacity="0.214945" d="M122.194 109.117C122.194 109.343 122.127 109.564 122.001 109.751C121.875 109.939 121.696 110.085 121.487 110.171C121.278 110.256 121.048 110.278 120.826 110.233C120.604 110.188 120.401 110.078 120.242 109.918C120.083 109.757 119.976 109.553 119.933 109.331C119.891 109.109 119.915 108.88 120.004 108.672C120.092 108.464 120.24 108.287 120.429 108.164C120.619 108.04 120.841 107.976 121.067 107.978C121.216 107.978 121.364 108.008 121.501 108.065C121.639 108.123 121.764 108.207 121.869 108.313C121.974 108.419 122.056 108.544 122.112 108.682C122.168 108.82 122.196 108.968 122.194 109.117Z" fill="#C5FFD8"/>
</g>
<g opacity="0.166193">
<path opacity="0.166193" d="M151.2 121.67C151.218 121.829 151.201 121.99 151.152 122.142C151.103 122.294 151.022 122.435 150.915 122.554C150.808 122.673 150.677 122.768 150.531 122.833C150.385 122.898 150.227 122.932 150.067 122.932C149.906 122.932 149.748 122.898 149.602 122.833C149.456 122.768 149.325 122.673 149.218 122.554C149.111 122.435 149.03 122.294 148.981 122.142C148.932 121.99 148.915 121.829 148.933 121.67C148.933 121.372 149.051 121.085 149.263 120.874C149.474 120.663 149.761 120.545 150.06 120.545C150.36 120.545 150.648 120.663 150.862 120.874C151.075 121.084 151.197 121.371 151.2 121.67Z" fill="#C5FFD8"/>
</g>
<g opacity="0.097489">
<path opacity="0.097489" d="M98.8908 149.054C98.908 149.213 98.8915 149.374 98.8424 149.526C98.7933 149.678 98.7126 149.819 98.6057 149.938C98.4987 150.057 98.3678 150.152 98.2216 150.217C98.0753 150.282 97.9169 150.316 97.7568 150.316C97.5966 150.316 97.4383 150.282 97.292 150.217C97.1458 150.152 97.0149 150.057 96.9079 149.938C96.801 149.819 96.7203 149.678 96.6711 149.526C96.622 149.374 96.6055 149.213 96.6228 149.054C96.6228 148.756 96.7416 148.469 96.953 148.258C97.1644 148.047 97.4512 147.929 97.7502 147.929C98.0504 147.929 98.3385 148.047 98.552 148.258C98.7656 148.468 98.8873 148.755 98.8908 149.054Z" fill="#C5FFD8"/>
</g>
<g opacity="0.095682">
<path opacity="0.095682" d="M149.927 146.644C149.945 146.803 149.928 146.964 149.879 147.116C149.83 147.268 149.749 147.408 149.642 147.527C149.535 147.646 149.404 147.742 149.258 147.807C149.112 147.872 148.953 147.905 148.793 147.905C148.633 147.905 148.475 147.872 148.329 147.807C148.182 147.742 148.051 147.646 147.944 147.527C147.837 147.408 147.757 147.268 147.708 147.116C147.659 146.964 147.642 146.803 147.659 146.644C147.69 146.365 147.822 146.107 148.031 145.919C148.241 145.732 148.512 145.628 148.793 145.628C149.075 145.628 149.346 145.732 149.555 145.919C149.764 146.107 149.897 146.365 149.927 146.644Z" fill="#C5FFD8"/>
</g>
<g opacity="0.084109">
<path opacity="0.084109" d="M111.69 155.874C111.692 156.1 111.627 156.322 111.503 156.511C111.379 156.701 111.201 156.849 110.992 156.936C110.783 157.024 110.552 157.048 110.33 157.004C110.107 156.961 109.903 156.852 109.743 156.692C109.582 156.532 109.473 156.328 109.43 156.106C109.386 155.884 109.41 155.654 109.498 155.445C109.586 155.236 109.734 155.059 109.924 154.934C110.113 154.81 110.336 154.746 110.562 154.748C110.861 154.748 111.148 154.867 111.359 155.078C111.571 155.289 111.69 155.575 111.69 155.874Z" fill="#C5FFD8"/>
</g>
<g opacity="0.112467">
<path opacity="0.112467" d="M57.8018 151.093C57.8017 151.319 57.7345 151.54 57.6086 151.727C57.4826 151.915 57.3037 152.061 57.0945 152.147C56.8853 152.232 56.6553 152.254 56.4337 152.209C56.2121 152.164 56.0089 152.054 55.8499 151.894C55.6909 151.733 55.5833 151.529 55.5408 151.307C55.4983 151.085 55.5228 150.856 55.6112 150.648C55.6996 150.441 55.8478 150.264 56.0371 150.14C56.2264 150.017 56.4483 149.952 56.6744 149.955C56.8236 149.955 56.9712 149.984 57.1089 150.042C57.2465 150.099 57.3714 150.183 57.4763 150.289C57.5811 150.395 57.6639 150.521 57.7198 150.659C57.7756 150.797 57.8035 150.944 57.8018 151.093Z" fill="#C5FFD8"/>
</g>
<g opacity="0.119532">
<path opacity="0.119532" d="M114.462 137.322C114.464 137.548 114.399 137.77 114.275 137.96C114.151 138.149 113.973 138.297 113.764 138.385C113.555 138.472 113.324 138.496 113.102 138.453C112.879 138.409 112.675 138.3 112.515 138.14C112.354 137.98 112.245 137.776 112.202 137.554C112.158 137.332 112.182 137.102 112.27 136.893C112.358 136.685 112.506 136.507 112.696 136.383C112.885 136.259 113.108 136.194 113.334 136.196C113.633 136.196 113.92 136.315 114.131 136.526C114.343 136.737 114.462 137.023 114.462 137.322Z" fill="#C5FFD8"/>
</g>
<g opacity="0.190369">
<path opacity="0.190369" d="M22.7341 131.363C22.7341 131.589 22.6673 131.809 22.5419 131.996C22.4166 132.183 22.2385 132.329 22.03 132.416C21.8216 132.502 21.5923 132.524 21.371 132.48C21.1498 132.436 20.9465 132.328 20.787 132.169C20.6275 132.009 20.5189 131.806 20.4749 131.586C20.4308 131.365 20.4534 131.136 20.5398 130.927C20.6261 130.719 20.7723 130.542 20.9599 130.416C21.1474 130.291 21.368 130.224 21.5935 130.224C21.7438 130.223 21.8929 130.251 22.0321 130.308C22.1713 130.364 22.2978 130.448 22.404 130.554C22.5103 130.66 22.5943 130.786 22.6509 130.925C22.7076 131.064 22.7359 131.213 22.7341 131.363Z" fill="#C5FFD8"/>
</g>
<g opacity="0.163558">
<path opacity="0.163558" d="M106.849 123.246C107.471 123.246 107.976 122.742 107.976 122.121C107.976 121.499 107.471 120.995 106.849 120.995C106.226 120.995 105.721 121.499 105.721 122.121C105.721 122.742 106.226 123.246 106.849 123.246Z" fill="#C5FFD8"/>
</g>
<g opacity="0.16295">
<path opacity="0.16295" d="M77.3515 126.57C77.3515 126.718 77.3223 126.864 77.2656 127C77.209 127.137 77.126 127.261 77.0213 127.366C76.9166 127.47 76.7923 127.553 76.6555 127.61C76.5188 127.666 76.3722 127.695 76.2241 127.695C76.0761 127.695 75.9295 127.666 75.7927 127.61C75.6559 127.553 75.5317 127.47 75.427 127.366C75.3223 127.261 75.2393 127.137 75.1826 127C75.126 126.864 75.0968 126.718 75.0968 126.57C75.0968 126.422 75.126 126.276 75.1826 126.139C75.2393 126.002 75.3223 125.878 75.427 125.774C75.5317 125.669 75.6559 125.586 75.7927 125.53C75.9295 125.473 76.0761 125.444 76.2241 125.444C76.3722 125.444 76.5188 125.473 76.6555 125.53C76.7923 125.586 76.9166 125.669 77.0213 125.774C77.126 125.878 77.209 126.002 77.2656 126.139C77.3223 126.276 77.3515 126.422 77.3515 126.57Z" fill="#C5FFD8"/>
</g>
<g opacity="0.345904">
<path opacity="0.345904" d="M172.978 92.3399C172.978 92.6384 172.86 92.9246 172.648 93.1357C172.437 93.3468 172.15 93.4654 171.851 93.4654C171.624 93.468 171.402 93.4031 171.212 93.279C171.023 93.1549 170.875 92.9772 170.787 92.7686C170.699 92.56 170.675 92.3299 170.719 92.1078C170.762 91.8857 170.871 91.6816 171.031 91.5215C171.192 91.3615 171.396 91.2527 171.619 91.2092C171.841 91.1657 172.072 91.1894 172.28 91.2772C172.489 91.365 172.667 91.513 172.792 91.7023C172.916 91.8916 172.981 92.1136 172.978 92.3399Z" fill="#C5FFD8"/>
</g>
<g opacity="0.370252">
<path opacity="0.370252" d="M90.3759 88.8574C90.3931 89.0164 90.3767 89.1772 90.3275 89.3294C90.2784 89.4816 90.1977 89.6217 90.0908 89.7407C89.9838 89.8597 89.8529 89.9549 89.7066 90.02C89.5604 90.0852 89.4021 90.1189 89.2419 90.1189C89.0817 90.1189 88.9234 90.0852 88.7771 90.02C88.6309 89.9549 88.5 89.8597 88.393 89.7407C88.2861 89.6217 88.2054 89.4816 88.1563 89.3294C88.1071 89.1772 88.0906 89.0164 88.1079 88.8574C88.1079 88.5589 88.2267 88.2726 88.4381 88.0615C88.6495 87.8504 88.9363 87.7318 89.2353 87.7318C89.5355 87.7318 89.8236 87.85 90.0371 88.0607C90.2507 88.2714 90.3724 88.5577 90.3759 88.8574Z" fill="#C5FFD8"/>
</g>
<g opacity="0.574003">
<path opacity="0.574003" d="M210.115 34.99C210.112 35.2897 209.99 35.576 209.776 35.7867C209.563 35.9974 209.275 36.1156 208.975 36.1155C208.676 36.1155 208.389 35.997 208.177 35.7859C207.966 35.5748 207.847 35.2885 207.847 34.99C207.83 34.8311 207.846 34.6703 207.896 34.5181C207.945 34.3659 208.025 34.2257 208.132 34.1068C208.239 33.9878 208.37 33.8926 208.516 33.8275C208.663 33.7623 208.821 33.7286 208.981 33.7286C209.141 33.7286 209.3 33.7623 209.446 33.8275C209.592 33.8926 209.723 33.9878 209.83 34.1068C209.937 34.2257 210.018 34.3659 210.067 34.5181C210.116 34.6703 210.132 34.8311 210.115 34.99Z" fill="#C5FFD8"/>
</g>
<g opacity="0.604789">
<path opacity="0.604789" d="M239.878 17.4845C239.878 17.783 239.759 18.0693 239.548 18.2803C239.336 18.4914 239.049 18.61 238.75 18.61C238.451 18.61 238.165 18.4914 237.953 18.2803C237.742 18.0693 237.623 17.783 237.623 17.4845C237.623 17.186 237.742 16.8997 237.953 16.6887C238.165 16.4776 238.451 16.359 238.75 16.359C239.049 16.359 239.336 16.4776 239.548 16.6887C239.759 16.8997 239.878 17.186 239.878 17.4845Z" fill="#C5FFD8"/>
</g>
<g opacity="0.562016">
<path opacity="0.562016" d="M221.203 41.4256C221.203 41.6508 221.136 41.871 221.011 42.0583C220.885 42.2456 220.707 42.3915 220.499 42.4777C220.291 42.5639 220.061 42.5865 219.84 42.5425C219.619 42.4986 219.415 42.3902 219.256 42.2309C219.096 42.0716 218.988 41.8687 218.944 41.6477C218.9 41.4268 218.922 41.1978 219.009 40.9897C219.095 40.7816 219.241 40.6038 219.429 40.4786C219.616 40.3535 219.837 40.2867 220.062 40.2867C220.213 40.2849 220.362 40.3132 220.501 40.3698C220.64 40.4264 220.767 40.5102 220.873 40.6163C220.979 40.7224 221.063 40.8487 221.12 40.9877C221.177 41.1266 221.205 41.2755 221.203 41.4256Z" fill="#C5FFD8"/>
</g>
<g opacity="0.515531">
<path opacity="0.515531" d="M329.815 23.6023C329.815 23.9008 329.696 24.1871 329.484 24.3982C329.273 24.6093 328.986 24.7278 328.687 24.7278C328.461 24.7305 328.238 24.6656 328.049 24.5414C327.859 24.4173 327.711 24.2396 327.623 24.031C327.535 23.8224 327.511 23.5923 327.555 23.3702C327.598 23.148 327.707 22.9439 327.868 22.7839C328.028 22.6238 328.232 22.5151 328.455 22.4716C328.677 22.428 328.908 22.4517 329.117 22.5395C329.326 22.6274 329.504 22.7754 329.628 22.9647C329.752 23.1539 329.817 23.3759 329.815 23.6023Z" fill="#C5FFD8"/>
</g>
<g opacity="0.537586">
<path opacity="0.537586" d="M177.687 67.7766C177.687 68.0018 177.62 68.222 177.495 68.4092C177.369 68.5965 177.191 68.7425 176.983 68.8287C176.774 68.9149 176.545 68.9374 176.324 68.8935C176.102 68.8495 175.899 68.7411 175.74 68.5818C175.58 68.4225 175.472 68.2196 175.428 67.9987C175.384 67.7778 175.406 67.5488 175.492 67.3408C175.579 67.1327 175.725 66.9548 175.913 66.8297C176.1 66.7046 176.321 66.6378 176.546 66.6378C176.697 66.636 176.846 66.6642 176.985 66.7208C177.124 66.7774 177.25 66.8613 177.357 66.9674C177.463 67.0735 177.547 67.1997 177.604 67.3387C177.66 67.4776 177.689 67.6265 177.687 67.7766Z" fill="#C5FFD8"/>
</g>
<g opacity="0.475711">
<path opacity="0.475711" d="M408.571 36.9366C408.573 37.163 408.508 37.3849 408.384 37.5742C408.26 37.7635 408.082 37.9115 407.873 37.9993C407.664 38.0872 407.433 38.1108 407.211 38.0673C406.988 38.0238 406.784 37.9151 406.624 37.755C406.463 37.595 406.355 37.3909 406.311 37.1687C406.267 36.9466 406.291 36.7165 406.379 36.5079C406.467 36.2993 406.615 36.1216 406.805 35.9975C406.994 35.8734 407.217 35.8085 407.443 35.8111C407.742 35.8111 408.029 35.9297 408.241 36.1408C408.452 36.3518 408.571 36.6381 408.571 36.9366Z" fill="#C5FFD8"/>
</g>
<g opacity="0.466271">
<path opacity="0.466271" d="M315.809 73.2984C315.826 73.4574 315.81 73.6182 315.76 73.7704C315.711 73.9226 315.631 74.0628 315.524 74.1817C315.417 74.3007 315.286 74.3959 315.14 74.4611C314.993 74.5262 314.835 74.5599 314.675 74.5599C314.515 74.5599 314.356 74.5262 314.21 74.4611C314.064 74.3959 313.933 74.3007 313.826 74.1817C313.719 74.0628 313.638 73.9226 313.589 73.7704C313.54 73.6182 313.524 73.4574 313.541 73.2984C313.541 72.9999 313.66 72.7136 313.871 72.5025C314.082 72.2914 314.369 72.1729 314.668 72.1729C314.968 72.1728 315.257 72.291 315.47 72.5017C315.684 72.7124 315.805 72.9987 315.809 73.2984Z" fill="#C5FFD8"/>
</g>
<g opacity="0.431953">
<path opacity="0.431953" d="M385.506 64.294C385.506 64.4419 385.477 64.5882 385.421 64.7248C385.364 64.8613 385.281 64.9854 385.176 65.0899C385.072 65.1945 384.947 65.2774 384.811 65.3339C384.674 65.3905 384.527 65.4196 384.379 65.4196C384.152 65.4222 383.93 65.3573 383.741 65.2332C383.551 65.1091 383.403 64.9314 383.315 64.7228C383.227 64.5141 383.203 64.2841 383.247 64.062C383.29 63.8398 383.399 63.6357 383.559 63.4756C383.72 63.3156 383.924 63.2069 384.147 63.1633C384.369 63.1198 384.6 63.1435 384.809 63.2313C385.017 63.3191 385.196 63.4672 385.32 63.6564C385.444 63.8457 385.509 64.0677 385.506 64.294Z" fill="#C5FFD8"/>
</g>
<g opacity="0.356871">
<path opacity="0.356871" d="M270.436 86.3415C270.436 86.64 270.317 86.9263 270.106 87.1374C269.894 87.3485 269.607 87.4671 269.308 87.4671C269.082 87.4697 268.859 87.4048 268.67 87.2807C268.48 87.1565 268.332 86.9788 268.244 86.7702C268.156 86.5616 268.132 86.3315 268.176 86.1093C268.219 85.8872 268.328 85.6831 268.489 85.523C268.649 85.363 268.853 85.2542 269.076 85.2107C269.298 85.1672 269.529 85.1909 269.738 85.2787C269.947 85.3665 270.125 85.5145 270.249 85.7038C270.373 85.8931 270.438 86.1151 270.436 86.3415Z" fill="#C5FFD8"/>
</g>
<g opacity="0.441908">
<path opacity="0.441908" d="M403.014 79.8795C403.01 80.1793 402.889 80.4655 402.675 80.6762C402.462 80.8869 402.173 81.0051 401.873 81.0051C401.725 81.0051 401.579 80.9759 401.442 80.9194C401.305 80.8628 401.181 80.7799 401.076 80.6754C400.971 80.5709 400.888 80.4468 400.832 80.3103C400.775 80.1737 400.746 80.0274 400.746 79.8795C400.746 79.7317 400.775 79.5854 400.832 79.4488C400.888 79.3123 400.971 79.1882 401.076 79.0837C401.181 78.9792 401.305 78.8963 401.442 78.8397C401.579 78.7832 401.725 78.754 401.873 78.754C402.173 78.754 402.462 78.8722 402.675 79.0829C402.889 79.2936 403.01 79.5798 403.014 79.8795Z" fill="#C5FFD8"/>
</g>
<g opacity="0.290859">
<path opacity="0.290859" d="M281.272 99.7686C281.274 99.9944 281.21 100.216 281.086 100.405C280.962 100.594 280.785 100.742 280.577 100.83C280.369 100.918 280.139 100.943 279.917 100.9C279.695 100.858 279.49 100.751 279.329 100.592C279.168 100.433 279.058 100.23 279.013 100.009C278.968 99.7877 278.99 99.5581 279.076 99.3492C279.162 99.1403 279.308 98.9616 279.496 98.8359C279.684 98.7102 279.905 98.643 280.131 98.643C280.28 98.6413 280.428 98.6691 280.567 98.7249C280.705 98.7807 280.831 98.8633 280.937 98.968C281.043 99.0727 281.127 99.1974 281.185 99.3348C281.242 99.4722 281.272 99.6197 281.272 99.7686Z" fill="#C5FFD8"/>
</g>
<g opacity="0.476621">
<path opacity="0.476621" d="M424.646 95.0678C424.649 95.2941 424.583 95.5161 424.459 95.7054C424.335 95.8947 424.157 96.0427 423.948 96.1305C423.739 96.2183 423.509 96.242 423.286 96.1985C423.064 96.155 422.859 96.0462 422.699 95.8862C422.538 95.7261 422.429 95.522 422.386 95.2999C422.342 95.0777 422.366 94.8477 422.454 94.6391C422.542 94.4304 422.69 94.2527 422.88 94.1286C423.069 94.0045 423.292 93.9396 423.518 93.9422C423.817 93.9422 424.104 94.0608 424.316 94.2719C424.527 94.483 424.646 94.7693 424.646 95.0678Z" fill="#C5FFD8"/>
</g>
<g opacity="0.300346">
<path opacity="0.300346" d="M318.475 121.392C318.477 121.619 318.412 121.841 318.288 122.03C318.164 122.219 317.986 122.367 317.777 122.455C317.568 122.543 317.337 122.566 317.115 122.523C316.892 122.479 316.688 122.371 316.528 122.211C316.367 122.051 316.258 121.846 316.215 121.624C316.171 121.402 316.195 121.172 316.283 120.964C316.371 120.755 316.519 120.577 316.709 120.453C316.898 120.329 317.121 120.264 317.347 120.267C317.646 120.267 317.933 120.385 318.145 120.596C318.356 120.808 318.475 121.094 318.475 121.392Z" fill="#C5FFD8"/>
</g>
<g opacity="0.417709">
<path opacity="0.417709" d="M403.637 122.068C403.654 122.226 403.638 122.387 403.589 122.539C403.54 122.692 403.459 122.832 403.352 122.951C403.245 123.07 403.114 123.165 402.968 123.23C402.822 123.295 402.663 123.329 402.503 123.329C402.343 123.329 402.185 123.295 402.038 123.23C401.892 123.165 401.761 123.07 401.654 122.951C401.547 122.832 401.467 122.692 401.418 122.539C401.368 122.387 401.352 122.226 401.369 122.068C401.369 121.769 401.488 121.483 401.699 121.272C401.911 121.061 402.197 120.942 402.496 120.942C402.797 120.942 403.085 121.06 403.298 121.271C403.512 121.482 403.634 121.768 403.637 122.068Z" fill="#C5FFD8"/>
</g>
<g opacity="0.324004">
<path opacity="0.324004" d="M399.91 133.879C399.91 134.105 399.843 134.325 399.718 134.512C399.593 134.699 399.415 134.845 399.206 134.931C398.998 135.018 398.768 135.04 398.547 134.996C398.326 134.952 398.123 134.844 397.963 134.685C397.804 134.525 397.695 134.322 397.651 134.101C397.607 133.881 397.629 133.652 397.716 133.443C397.802 133.235 397.948 133.058 398.136 132.932C398.323 132.807 398.544 132.74 398.77 132.74C398.92 132.739 399.069 132.767 399.208 132.824C399.347 132.88 399.474 132.964 399.58 133.07C399.686 133.176 399.77 133.302 399.827 133.441C399.884 133.58 399.912 133.729 399.91 133.879Z" fill="#C5FFD8"/>
</g>
<g opacity="0.318797">
<path opacity="0.318797" d="M435.76 130.847C435.778 131.006 435.761 131.167 435.712 131.319C435.663 131.471 435.582 131.611 435.475 131.73C435.368 131.849 435.237 131.944 435.091 132.009C434.945 132.074 434.786 132.108 434.626 132.108C434.466 132.108 434.308 132.074 434.161 132.009C434.015 131.944 433.884 131.849 433.777 131.73C433.67 131.611 433.59 131.471 433.541 131.319C433.491 131.167 433.475 131.006 433.492 130.847C433.492 130.548 433.611 130.262 433.822 130.051C434.034 129.84 434.321 129.721 434.62 129.721C434.92 129.721 435.208 129.839 435.422 130.05C435.635 130.261 435.757 130.547 435.76 130.847Z" fill="#C5FFD8"/>
</g>
<g opacity="0.243934">
<path opacity="0.243934" d="M459.369 138.884C459.371 139.111 459.306 139.333 459.182 139.522C459.058 139.711 458.88 139.859 458.671 139.947C458.462 140.035 458.231 140.059 458.009 140.015C457.786 139.972 457.582 139.863 457.421 139.703C457.261 139.543 457.152 139.339 457.109 139.117C457.065 138.894 457.089 138.664 457.177 138.456C457.265 138.247 457.413 138.07 457.602 137.945C457.792 137.821 458.014 137.756 458.241 137.759C458.54 137.759 458.827 137.878 459.038 138.089C459.25 138.3 459.369 138.586 459.369 138.884Z" fill="#C5FFD8"/>
</g>
<g opacity="0.211556">
<path opacity="0.211556" d="M398.252 155.715C398.249 155.937 398.181 156.153 398.056 156.336C397.93 156.52 397.753 156.662 397.547 156.745C397.341 156.828 397.115 156.849 396.897 156.804C396.679 156.759 396.479 156.65 396.323 156.493C396.167 156.335 396.061 156.134 396.018 155.916C395.976 155.698 395.999 155.473 396.085 155.268C396.17 155.063 396.315 154.888 396.5 154.765C396.685 154.642 396.902 154.576 397.125 154.576C397.274 154.576 397.422 154.605 397.559 154.663C397.697 154.72 397.822 154.804 397.927 154.91C398.032 155.016 398.114 155.142 398.17 155.28C398.226 155.418 398.254 155.566 398.252 155.715Z" fill="#C5FFD8"/>
</g>
<g opacity="0.16675">
<path opacity="0.16675" d="M512.991 150.643C512.991 150.791 512.962 150.937 512.906 151.074C512.849 151.21 512.766 151.334 512.661 151.439C512.556 151.543 512.432 151.626 512.295 151.683C512.159 151.74 512.012 151.769 511.864 151.769C511.637 151.771 511.415 151.706 511.225 151.582C511.036 151.458 510.887 151.28 510.799 151.072C510.711 150.863 510.688 150.633 510.731 150.411C510.775 150.189 510.884 149.985 511.044 149.825C511.204 149.665 511.409 149.556 511.631 149.512C511.854 149.469 512.084 149.493 512.293 149.58C512.502 149.668 512.68 149.816 512.805 150.006C512.929 150.195 512.994 150.417 512.991 150.643Z" fill="#C5FFD8"/>
</g>
<g opacity="0.144604">
<path opacity="0.144604" d="M311.074 162.879C311.074 163.177 310.955 163.463 310.744 163.674C310.532 163.886 310.246 164.004 309.947 164.004C309.648 164.004 309.361 163.886 309.149 163.674C308.938 163.463 308.819 163.177 308.819 162.879C308.819 162.58 308.938 162.294 309.149 162.083C309.361 161.872 309.648 161.753 309.947 161.753C310.246 161.753 310.532 161.872 310.744 162.083C310.955 162.294 311.074 162.58 311.074 162.879Z" fill="#C5FFD8"/>
</g>
<g opacity="0.329337">
<path opacity="0.329337" d="M393.053 133.879C393.053 134.178 392.934 134.464 392.723 134.675C392.512 134.886 392.225 135.005 391.926 135.005C391.699 135.007 391.477 134.943 391.287 134.818C391.098 134.694 390.949 134.517 390.861 134.308C390.773 134.099 390.75 133.869 390.793 133.647C390.837 133.425 390.946 133.221 391.106 133.061C391.266 132.901 391.471 132.792 391.693 132.748C391.916 132.705 392.146 132.729 392.355 132.816C392.564 132.904 392.742 133.052 392.867 133.242C392.991 133.431 393.056 133.653 393.053 133.879Z" fill="#C5FFD8"/>
</g>
<g opacity="0.269447">
<path opacity="0.269447" d="M329.271 132.793C329.288 132.952 329.272 133.113 329.223 133.265C329.173 133.417 329.093 133.558 328.986 133.677C328.879 133.796 328.748 133.891 328.602 133.956C328.455 134.021 328.297 134.055 328.137 134.055C327.977 134.055 327.818 134.021 327.672 133.956C327.526 133.891 327.395 133.796 327.288 133.677C327.181 133.558 327.1 133.417 327.051 133.265C327.002 133.113 326.986 132.952 327.003 132.793C327.003 132.495 327.122 132.208 327.333 131.997C327.545 131.786 327.831 131.668 328.13 131.668C328.431 131.668 328.719 131.786 328.932 131.997C329.146 132.207 329.267 132.494 329.271 132.793Z" fill="#C5FFD8"/>
</g>
<g opacity="0.453463">
<path opacity="0.453463" d="M365.877 113.447C365.877 113.746 365.758 114.032 365.547 114.243C365.335 114.454 365.049 114.573 364.75 114.573C364.523 114.575 364.301 114.51 364.111 114.386C363.921 114.262 363.773 114.085 363.685 113.876C363.597 113.667 363.574 113.437 363.617 113.215C363.661 112.993 363.77 112.789 363.93 112.629C364.09 112.469 364.295 112.36 364.517 112.316C364.74 112.273 364.97 112.297 365.179 112.384C365.388 112.472 365.566 112.62 365.69 112.81C365.815 112.999 365.88 113.221 365.877 113.447Z" fill="#C5FFD8"/>
</g>
<g opacity="0.229393">
<path opacity="0.229393" d="M279.083 112.904C279.08 113.204 278.958 113.49 278.745 113.701C278.531 113.912 278.243 114.03 277.943 114.03C277.663 114 277.404 113.867 277.217 113.658C277.029 113.449 276.925 113.178 276.925 112.898C276.925 112.617 277.029 112.346 277.217 112.137C277.404 111.928 277.663 111.796 277.943 111.766C278.245 111.766 278.535 111.885 278.749 112.099C278.963 112.313 279.083 112.602 279.083 112.904Z" fill="#C5FFD8"/>
</g>
<g opacity="0.449042">
<path opacity="0.449042" d="M407.205 54.1774C407.222 54.3364 407.206 54.4972 407.156 54.6493C407.107 54.8015 407.027 54.9417 406.92 55.0607C406.813 55.1796 406.682 55.2748 406.536 55.34C406.389 55.4051 406.231 55.4388 406.071 55.4388C405.911 55.4388 405.752 55.4051 405.606 55.34C405.46 55.2748 405.329 55.1796 405.222 55.0607C405.115 54.9417 405.034 54.8015 404.985 54.6493C404.936 54.4972 404.92 54.3364 404.937 54.1774C404.937 54.0296 404.966 53.8832 405.023 53.7467C405.079 53.6101 405.162 53.486 405.267 53.3815C405.372 53.277 405.496 53.1941 405.633 53.1375C405.77 53.081 405.916 53.0519 406.064 53.0519C406.364 53.0519 406.653 53.17 406.866 53.3807C407.08 53.5914 407.201 53.8777 407.205 54.1774Z" fill="#C5FFD8"/>
</g>
<g opacity="0.478102">
<path opacity="0.478102" d="M309.283 80.2105C309.283 80.4357 309.217 80.6558 309.091 80.8431C308.966 81.0304 308.788 81.1763 308.579 81.2625C308.371 81.3487 308.142 81.3712 307.92 81.3273C307.699 81.2834 307.496 81.1749 307.336 81.0157C307.177 80.8564 307.068 80.6535 307.024 80.4326C306.98 80.2117 307.003 79.9828 307.089 79.7747C307.175 79.5666 307.322 79.3888 307.509 79.2636C307.697 79.1385 307.917 79.0717 308.143 79.0717C308.293 79.07 308.442 79.0982 308.581 79.1548C308.721 79.2114 308.847 79.2952 308.953 79.4013C309.06 79.5074 309.144 79.6336 309.2 79.7726C309.257 79.9116 309.285 80.0604 309.283 80.2105Z" fill="#C5FFD8"/>
</g>
<g opacity="0.43601">
<path opacity="0.43601" d="M370.453 57.6996C370.423 57.9787 370.29 58.2369 370.081 58.4244C369.871 58.612 369.6 58.7157 369.319 58.7157C369.038 58.7157 368.766 58.612 368.557 58.4244C368.348 58.2369 368.215 57.9787 368.185 57.6996C368.168 57.5406 368.184 57.3798 368.233 57.2277C368.282 57.0755 368.363 56.9353 368.47 56.8164C368.577 56.6974 368.708 56.6022 368.854 56.5371C369 56.4719 369.159 56.4382 369.319 56.4382C369.479 56.4382 369.637 56.4719 369.784 56.5371C369.93 56.6022 370.061 56.6974 370.168 56.8164C370.275 56.9353 370.355 57.0755 370.405 57.2277C370.454 57.3798 370.47 57.5406 370.453 57.6996Z" fill="#C5FFD8"/>
</g>
<g opacity="0.534285">
<path opacity="0.534285" d="M199.584 70.1204C199.601 70.2794 199.585 70.4402 199.536 70.5924C199.487 70.7445 199.406 70.8847 199.299 71.0037C199.192 71.1227 199.061 71.2178 198.915 71.283C198.769 71.3481 198.61 71.3818 198.45 71.3818C198.29 71.3818 198.132 71.3481 197.986 71.283C197.839 71.2178 197.708 71.1227 197.601 71.0037C197.494 70.8847 197.414 70.7445 197.365 70.5924C197.316 70.4402 197.299 70.2794 197.316 70.1204C197.316 69.8219 197.435 69.5356 197.646 69.3245C197.858 69.1135 198.145 68.9949 198.444 68.9949C198.744 68.9949 199.032 69.113 199.246 69.3237C199.459 69.5344 199.581 69.8207 199.584 70.1204Z" fill="#C5FFD8"/>
</g>
<g opacity="0.539045">
<path opacity="0.539045" d="M185.844 64.6913C186.466 64.6913 186.971 64.1875 186.971 63.5658C186.971 62.9442 186.466 62.4403 185.844 62.4403C185.221 62.4403 184.716 62.9442 184.716 63.5658C184.716 64.1875 185.221 64.6913 185.844 64.6913Z" fill="#C5FFD8"/>
</g>
<g opacity="0.444332">
<path opacity="0.444332" d="M124.237 77.3106C124.233 77.6103 124.111 77.8966 123.898 78.1073C123.684 78.318 123.396 78.4361 123.096 78.4361C122.816 78.4059 122.558 78.2736 122.37 78.0646C122.182 77.8557 122.078 77.5848 122.078 77.304C122.078 77.0232 122.182 76.7523 122.37 76.5434C122.558 76.3344 122.816 76.2021 123.096 76.1719C123.398 76.1719 123.689 76.2919 123.902 76.5054C124.116 76.719 124.237 77.0086 124.237 77.3106Z" fill="#C5FFD8"/>
</g>
<g opacity="0.285573">
<path opacity="0.285573" d="M105.549 96.6568C105.549 96.8047 105.52 96.951 105.463 97.0876C105.406 97.2242 105.323 97.3482 105.219 97.4528C105.114 97.5573 104.99 97.6402 104.853 97.6967C104.716 97.7533 104.57 97.7824 104.421 97.7824C104.273 97.7824 104.127 97.7533 103.99 97.6967C103.853 97.6402 103.729 97.5573 103.624 97.4528C103.52 97.3482 103.437 97.2242 103.38 97.0876C103.323 96.951 103.294 96.8047 103.294 96.6568C103.294 96.509 103.323 96.3627 103.38 96.2261C103.437 96.0895 103.52 95.9655 103.624 95.8609C103.729 95.7564 103.853 95.6735 103.99 95.6169C104.127 95.5604 104.273 95.5312 104.421 95.5312C104.57 95.5312 104.716 95.5604 104.853 95.6169C104.99 95.6735 105.114 95.7564 105.219 95.8609C105.323 95.9655 105.406 96.0895 105.463 96.2261C105.52 96.3627 105.549 96.509 105.549 96.6568Z" fill="#C5FFD8"/>
</g>
<g opacity="0.150736">
<path opacity="0.150736" d="M121.332 127.047C121.955 127.047 122.459 126.543 122.459 125.921C122.459 125.299 121.955 124.796 121.332 124.796C120.709 124.796 120.205 125.299 120.205 125.921C120.205 126.543 120.709 127.047 121.332 127.047Z" fill="#C5FFD8"/>
</g>
<g opacity="0.123217">
<path opacity="0.123217" d="M42.5359 151.451C42.5324 151.751 42.4107 152.037 42.1972 152.248C41.9837 152.458 41.6955 152.577 41.3953 152.577C41.1157 152.546 40.8571 152.414 40.6693 152.205C40.4814 151.996 40.3775 151.725 40.3775 151.444C40.3775 151.164 40.4814 150.893 40.6693 150.684C40.8571 150.475 41.1157 150.342 41.3953 150.312C41.6978 150.312 41.988 150.432 42.2019 150.646C42.4158 150.859 42.5359 151.149 42.5359 151.451Z" fill="#C5FFD8"/>
</g>
<g opacity="0.074526">
<path opacity="0.074526" d="M142.712 159.436C142.712 159.734 142.593 160.02 142.382 160.231C142.171 160.443 141.884 160.561 141.585 160.561C141.358 160.564 141.136 160.499 140.946 160.375C140.757 160.251 140.608 160.073 140.52 159.864C140.432 159.656 140.409 159.426 140.452 159.203C140.496 158.981 140.605 158.777 140.765 158.617C140.925 158.457 141.13 158.348 141.352 158.305C141.575 158.261 141.805 158.285 142.014 158.373C142.223 158.461 142.401 158.609 142.526 158.798C142.65 158.987 142.715 159.209 142.712 159.436Z" fill="#C5FFD8"/>
</g>
<g opacity="0.093541">
<path opacity="0.093541" d="M39.512 172.28C39.512 172.579 39.3932 172.865 39.1818 173.076C38.9704 173.287 38.6836 173.406 38.3846 173.406C38.1579 173.409 37.9356 173.344 37.746 173.22C37.5564 173.095 37.4082 172.918 37.3202 172.709C37.2322 172.5 37.2085 172.27 37.2521 172.048C37.2957 171.826 37.4046 171.622 37.5649 171.462C37.7252 171.302 37.9297 171.193 38.1522 171.15C38.3746 171.106 38.6051 171.13 38.814 171.218C39.023 171.305 39.201 171.453 39.3253 171.643C39.4496 171.832 39.5146 172.054 39.512 172.28Z" fill="#C5FFD8"/>
</g>
<g opacity="0.049019">
<path opacity="0.049019" d="M141.664 183.999C141.664 184.225 141.597 184.446 141.471 184.633C141.345 184.821 141.166 184.967 140.957 185.052C140.748 185.138 140.518 185.16 140.296 185.115C140.075 185.07 139.871 184.96 139.712 184.8C139.553 184.639 139.446 184.435 139.403 184.213C139.361 183.991 139.385 183.762 139.474 183.554C139.562 183.346 139.71 183.169 139.9 183.046C140.089 182.922 140.311 182.858 140.537 182.86C140.686 182.86 140.834 182.89 140.971 182.947C141.109 183.005 141.234 183.089 141.339 183.195C141.444 183.301 141.526 183.426 141.582 183.564C141.638 183.702 141.666 183.85 141.664 183.999Z" fill="#C5FFD8"/>
</g>
<g opacity="0.075589">
<path opacity="0.075589" d="M46.8861 185.522C46.8861 185.747 46.8193 185.967 46.6939 186.155C46.5686 186.342 46.3905 186.488 46.182 186.574C45.9736 186.66 45.7443 186.683 45.523 186.639C45.3017 186.595 45.0985 186.486 44.939 186.327C44.7795 186.168 44.6708 185.965 44.6268 185.744C44.5828 185.523 44.6054 185.294 44.6917 185.086C44.7781 184.878 44.9243 184.7 45.1118 184.575C45.2994 184.45 45.5199 184.383 45.7455 184.383C45.8958 184.381 46.0449 184.409 46.1841 184.466C46.3233 184.523 46.4498 184.606 46.556 184.713C46.6623 184.819 46.7463 184.945 46.8029 185.084C46.8596 185.223 46.8879 185.372 46.8861 185.522Z" fill="#C5FFD8"/>
</g>
<g opacity="0.061757">
<path opacity="0.061757" d="M67.2054 185.005C67.208 185.232 67.143 185.454 67.0187 185.643C66.8943 185.832 66.7163 185.98 66.5074 186.068C66.2984 186.156 66.068 186.18 65.8455 186.136C65.623 186.093 65.4186 185.984 65.2582 185.824C65.0979 185.664 64.989 185.46 64.9454 185.238C64.9018 185.015 64.9255 184.785 65.0135 184.577C65.1015 184.368 65.2497 184.19 65.4393 184.066C65.6289 183.942 65.8513 183.877 66.078 183.88C66.377 183.88 66.6637 183.999 66.8752 184.21C67.0866 184.421 67.2054 184.707 67.2054 185.005Z" fill="#C5FFD8"/>
</g>
<g opacity="0.043744">
<path opacity="0.043744" d="M170.458 190.58C170.458 190.805 170.392 191.026 170.266 191.213C170.141 191.4 169.963 191.546 169.754 191.632C169.546 191.718 169.317 191.741 169.095 191.697C168.874 191.653 168.671 191.545 168.511 191.385C168.352 191.226 168.243 191.023 168.199 190.802C168.155 190.581 168.178 190.352 168.264 190.144C168.35 189.936 168.497 189.758 168.684 189.633C168.872 189.508 169.092 189.441 169.318 189.441C169.468 189.44 169.617 189.468 169.756 189.524C169.896 189.581 170.022 189.665 170.128 189.771C170.235 189.877 170.319 190.003 170.375 190.142C170.432 190.281 170.46 190.43 170.458 190.58Z" fill="#C5FFD8"/>
</g>
<g opacity="0.046307">
<path opacity="0.046307" d="M88.7976 206.285C88.7976 206.583 88.6788 206.87 88.4674 207.081C88.256 207.292 87.9692 207.41 87.6702 207.41C87.3712 207.41 87.0845 207.292 86.8731 207.081C86.6616 206.87 86.5428 206.583 86.5428 206.285C86.5428 206.137 86.572 205.991 86.6287 205.854C86.6853 205.718 86.7684 205.593 86.8731 205.489C86.9777 205.384 87.102 205.302 87.2388 205.245C87.3756 205.188 87.5222 205.159 87.6702 205.159C87.8183 205.159 87.9649 205.188 88.1017 205.245C88.2384 205.302 88.3627 205.384 88.4674 205.489C88.5721 205.593 88.6551 205.718 88.7118 205.854C88.7685 205.991 88.7976 206.137 88.7976 206.285Z" fill="#C5FFD8"/>
</g>
<g opacity="0.075666">
<path opacity="0.075666" d="M260.634 194.963C260.652 195.122 260.635 195.283 260.586 195.435C260.537 195.587 260.456 195.728 260.349 195.847C260.242 195.966 260.111 196.061 259.965 196.126C259.819 196.191 259.66 196.225 259.5 196.225C259.34 196.225 259.182 196.191 259.036 196.126C258.889 196.061 258.758 195.966 258.651 195.847C258.545 195.728 258.464 195.587 258.415 195.435C258.366 195.283 258.349 195.122 258.366 194.963C258.366 194.815 258.396 194.669 258.452 194.532C258.509 194.396 258.592 194.272 258.697 194.167C258.801 194.063 258.926 193.98 259.062 193.923C259.199 193.867 259.346 193.838 259.494 193.838C259.794 193.838 260.082 193.956 260.296 194.167C260.509 194.377 260.631 194.664 260.634 194.963Z" fill="#C5FFD8"/>
</g>
<g opacity="0.052924">
<path opacity="0.052924" d="M114.302 184.674C114.925 184.674 115.43 184.17 115.43 183.549C115.43 182.927 114.925 182.423 114.302 182.423C113.68 182.423 113.175 182.927 113.175 183.549C113.175 184.17 113.68 184.674 114.302 184.674Z" fill="#C5FFD8"/>
</g>
<g opacity="0.062903">
<path opacity="0.062903" d="M198.178 167.301C198.181 167.527 198.116 167.748 197.993 167.937C197.869 168.126 197.692 168.274 197.483 168.363C197.275 168.451 197.046 168.475 196.823 168.433C196.601 168.391 196.397 168.283 196.236 168.124C196.075 167.966 195.965 167.763 195.92 167.542C195.875 167.32 195.897 167.091 195.983 166.882C196.069 166.673 196.215 166.494 196.403 166.369C196.591 166.243 196.812 166.176 197.038 166.176C197.187 166.174 197.335 166.202 197.473 166.258C197.612 166.313 197.737 166.396 197.843 166.501C197.95 166.605 198.034 166.73 198.091 166.867C198.149 167.005 198.178 167.152 198.178 167.301Z" fill="#C5FFD8"/>
</g>
<g opacity="0.136193">
<path opacity="0.136193" d="M2.83945 167.367C2.83596 167.667 2.71425 167.953 2.50072 168.164C2.28719 168.375 1.99906 168.493 1.69883 168.493C1.41922 168.463 1.16066 168.33 0.972797 168.121C0.784938 167.913 0.68103 167.642 0.68103 167.361C0.68103 167.08 0.784938 166.809 0.972797 166.6C1.16066 166.391 1.41922 166.259 1.69883 166.229C2.00134 166.229 2.29146 166.349 2.50537 166.562C2.71927 166.776 2.83945 167.065 2.83945 167.367Z" fill="#C5FFD8"/>
</g>
<g opacity="0.173271">
<path opacity="0.173271" d="M347.547 168.837C347.565 168.996 347.548 169.157 347.499 169.309C347.45 169.461 347.369 169.602 347.262 169.721C347.155 169.84 347.024 169.935 346.878 170C346.732 170.065 346.574 170.099 346.413 170.099C346.253 170.099 346.095 170.065 345.949 170C345.802 169.935 345.671 169.84 345.565 169.721C345.458 169.602 345.377 169.461 345.328 169.309C345.279 169.157 345.262 168.996 345.279 168.837C345.31 168.558 345.442 168.3 345.651 168.112C345.861 167.925 346.132 167.821 346.413 167.821C346.695 167.821 346.966 167.925 347.175 168.112C347.385 168.3 347.517 168.558 347.547 168.837Z" fill="#C5FFD8"/>
</g>
<g opacity="0.145273">
<path opacity="0.145273" d="M360.32 184.343C360.337 184.502 360.321 184.663 360.271 184.815C360.222 184.968 360.142 185.108 360.035 185.227C359.928 185.346 359.797 185.441 359.651 185.506C359.504 185.571 359.346 185.605 359.186 185.605C359.026 185.605 358.867 185.571 358.721 185.506C358.575 185.441 358.444 185.346 358.337 185.227C358.23 185.108 358.149 184.968 358.1 184.815C358.051 184.663 358.035 184.502 358.052 184.343C358.052 184.196 358.081 184.049 358.138 183.913C358.194 183.776 358.277 183.652 358.382 183.548C358.487 183.443 358.611 183.36 358.748 183.304C358.885 183.247 359.031 183.218 359.179 183.218C359.479 183.218 359.768 183.336 359.981 183.547C360.195 183.757 360.316 184.044 360.32 184.343Z" fill="#C5FFD8"/>
</g>
<g opacity="0.133247">
<path opacity="0.133247" d="M456.941 168.692C456.944 168.917 456.879 169.139 456.756 169.328C456.632 169.517 456.455 169.665 456.247 169.753C456.038 169.841 455.809 169.866 455.587 169.823C455.364 169.781 455.16 169.674 454.999 169.515C454.838 169.356 454.728 169.153 454.683 168.932C454.638 168.711 454.66 168.481 454.746 168.272C454.832 168.063 454.978 167.885 455.166 167.759C455.354 167.633 455.575 167.566 455.801 167.566C455.95 167.564 456.098 167.592 456.236 167.648C456.375 167.704 456.5 167.786 456.607 167.891C456.713 167.996 456.797 168.12 456.854 168.258C456.912 168.395 456.941 168.543 456.941 168.692Z" fill="#C5FFD8"/>
</g>
<g opacity="0.125092">
<path opacity="0.125092" d="M434.142 180.026C434.145 180.253 434.08 180.475 433.955 180.664C433.831 180.853 433.653 181.001 433.444 181.089C433.235 181.177 433.005 181.201 432.782 181.157C432.56 181.114 432.355 181.005 432.195 180.845C432.035 180.685 431.926 180.481 431.882 180.258C431.839 180.036 431.862 179.806 431.95 179.598C432.038 179.389 432.187 179.211 432.376 179.087C432.566 178.963 432.788 178.898 433.015 178.901C433.163 178.901 433.309 178.93 433.446 178.987C433.583 179.043 433.707 179.126 433.812 179.231C433.917 179.335 434 179.459 434.056 179.596C434.113 179.732 434.142 179.879 434.142 180.026Z" fill="#C5FFD8"/>
</g>
<g opacity="0.116671">
<path opacity="0.116671" d="M454.276 177.232C454.276 177.531 454.157 177.817 453.945 178.028C453.734 178.239 453.447 178.358 453.148 178.358C452.849 178.358 452.562 178.239 452.351 178.028C452.14 177.817 452.021 177.531 452.021 177.232C452.021 176.934 452.14 176.648 452.351 176.437C452.562 176.225 452.849 176.107 453.148 176.107C453.447 176.107 453.734 176.225 453.945 176.437C454.157 176.648 454.276 176.934 454.276 177.232Z" fill="#C5FFD8"/>
</g>
<g opacity="0.130844">
<path opacity="0.130844" d="M397.788 187.693C397.788 187.841 397.759 187.988 397.702 188.124C397.646 188.261 397.563 188.385 397.458 188.489C397.353 188.594 397.229 188.677 397.092 188.733C396.955 188.79 396.809 188.819 396.661 188.819C396.434 188.822 396.212 188.757 396.022 188.633C395.832 188.509 395.684 188.331 395.596 188.122C395.508 187.914 395.485 187.684 395.528 187.461C395.572 187.239 395.681 187.035 395.841 186.875C396.001 186.715 396.206 186.606 396.428 186.563C396.651 186.519 396.881 186.543 397.09 186.631C397.299 186.719 397.477 186.867 397.601 187.056C397.726 187.245 397.791 187.467 397.788 187.693Z" fill="#C5FFD8"/>
</g>
<g opacity="0.120947">
<path opacity="0.120947" d="M492.022 166.864C492.039 167.023 492.023 167.184 491.974 167.336C491.925 167.489 491.844 167.629 491.737 167.748C491.63 167.867 491.499 167.962 491.353 168.027C491.207 168.092 491.048 168.126 490.888 168.126C490.728 168.126 490.57 168.092 490.424 168.027C490.277 167.962 490.146 167.867 490.039 167.748C489.932 167.629 489.852 167.489 489.803 167.336C489.754 167.184 489.737 167.023 489.754 166.864C489.754 166.566 489.873 166.28 490.085 166.068C490.296 165.857 490.583 165.739 490.882 165.739C491.182 165.739 491.47 165.857 491.684 166.068C491.897 166.278 492.019 166.565 492.022 166.864Z" fill="#C5FFD8"/>
</g>
<g opacity="0.122843">
<path opacity="0.122843" d="M311.458 176.425C311.461 176.651 311.396 176.873 311.272 177.062C311.147 177.252 310.969 177.4 310.76 177.487C310.551 177.575 310.321 177.599 310.099 177.555C309.876 177.512 309.672 177.403 309.511 177.243C309.351 177.083 309.242 176.879 309.199 176.657C309.155 176.435 309.179 176.205 309.267 175.996C309.355 175.787 309.503 175.61 309.692 175.486C309.882 175.362 310.104 175.297 310.331 175.299C310.63 175.299 310.917 175.418 311.128 175.629C311.34 175.84 311.458 176.126 311.458 176.425Z" fill="#C5FFD8"/>
</g>
<g opacity="0.209756">
<path opacity="0.209756" d="M371.249 158.707C371.249 158.855 371.219 159.001 371.163 159.138C371.106 159.275 371.023 159.399 370.918 159.503C370.814 159.608 370.689 159.691 370.553 159.747C370.416 159.804 370.269 159.833 370.121 159.833C369.894 159.835 369.672 159.771 369.482 159.646C369.293 159.522 369.145 159.345 369.057 159.136C368.969 158.927 368.945 158.697 368.989 158.475C369.032 158.253 369.141 158.049 369.301 157.889C369.462 157.729 369.666 157.62 369.889 157.577C370.111 157.533 370.342 157.557 370.551 157.645C370.76 157.732 370.938 157.88 371.062 158.07C371.186 158.259 371.251 158.481 371.249 158.707Z" fill="#C5FFD8"/>
</g>
<g opacity="0.2365">
<path opacity="0.2365" d="M336.924 144.261C336.924 144.486 336.857 144.706 336.732 144.893C336.606 145.081 336.428 145.226 336.22 145.313C336.011 145.399 335.782 145.421 335.561 145.377C335.339 145.334 335.136 145.225 334.977 145.066C334.817 144.907 334.709 144.704 334.664 144.483C334.62 144.262 334.643 144.033 334.729 143.825C334.816 143.617 334.962 143.439 335.15 143.314C335.337 143.189 335.558 143.122 335.783 143.122C335.933 143.12 336.083 143.148 336.222 143.205C336.361 143.262 336.487 143.345 336.594 143.451C336.7 143.558 336.784 143.684 336.841 143.823C336.897 143.962 336.926 144.111 336.924 144.261Z" fill="#C5FFD8"/>
</g>
<g opacity="0.457456">
<path opacity="0.457456" d="M382.947 115.712C382.943 116.011 382.821 116.298 382.608 116.508C382.394 116.719 382.106 116.837 381.806 116.837C381.507 116.837 381.22 116.719 381.009 116.507C380.797 116.296 380.679 116.01 380.679 115.712C380.661 115.553 380.678 115.392 380.727 115.24C380.776 115.087 380.857 114.947 380.964 114.828C381.071 114.709 381.202 114.614 381.348 114.549C381.494 114.484 381.652 114.45 381.813 114.45C381.973 114.45 382.131 114.484 382.277 114.549C382.424 114.614 382.554 114.709 382.661 114.828C382.768 114.947 382.849 115.087 382.898 115.24C382.947 115.392 382.964 115.553 382.947 115.712Z" fill="#C5FFD8"/>
</g>
<g opacity="0.236796">
<path opacity="0.236796" d="M290.277 117.857C290.28 118.082 290.215 118.304 290.092 118.493C289.968 118.682 289.791 118.83 289.583 118.918C289.374 119.006 289.145 119.031 288.922 118.988C288.7 118.946 288.496 118.839 288.335 118.68C288.174 118.521 288.064 118.318 288.019 118.097C287.974 117.876 287.996 117.646 288.082 117.437C288.168 117.228 288.314 117.05 288.502 116.924C288.69 116.798 288.911 116.731 289.137 116.731C289.286 116.729 289.434 116.757 289.572 116.813C289.711 116.869 289.836 116.951 289.943 117.056C290.049 117.161 290.133 117.285 290.19 117.423C290.248 117.56 290.277 117.708 290.277 117.857Z" fill="#C5FFD8"/>
</g>
<g opacity="0.204517">
<path opacity="0.204517" d="M246.761 111.792C246.764 112.018 246.699 112.24 246.574 112.43C246.45 112.619 246.272 112.767 246.063 112.855C245.854 112.942 245.624 112.966 245.401 112.923C245.179 112.879 244.974 112.77 244.814 112.61C244.654 112.45 244.545 112.246 244.501 112.024C244.458 111.802 244.481 111.572 244.569 111.363C244.657 111.155 244.805 110.977 244.995 110.853C245.185 110.729 245.407 110.664 245.634 110.667C245.933 110.667 246.219 110.785 246.431 110.996C246.642 111.207 246.761 111.494 246.761 111.792Z" fill="#C5FFD8"/>
</g>
<g opacity="0.433062">
<path opacity="0.433062" d="M359.405 69.4185C359.422 69.5774 359.405 69.7382 359.356 69.8904C359.307 70.0426 359.226 70.1827 359.119 70.3017C359.012 70.4207 358.882 70.5158 358.735 70.581C358.589 70.6461 358.431 70.6798 358.271 70.6798C358.11 70.6798 357.952 70.6461 357.806 70.581C357.66 70.5158 357.529 70.4207 357.422 70.3017C357.315 70.1827 357.234 70.0426 357.185 69.8904C357.136 69.7382 357.119 69.5774 357.137 69.4185C357.137 69.12 357.255 68.8337 357.467 68.6226C357.678 68.4116 357.965 68.293 358.264 68.293C358.564 68.2929 358.852 68.4111 359.066 68.6218C359.279 68.8325 359.401 69.1188 359.405 69.4185Z" fill="#C5FFD8"/>
</g>
<g opacity="0.315398">
<path opacity="0.315398" d="M199.611 93.2536C199.611 93.4014 199.582 93.5478 199.525 93.6843C199.468 93.8209 199.385 93.945 199.281 94.0495C199.176 94.154 199.052 94.2369 198.915 94.2935C198.778 94.35 198.632 94.3791 198.484 94.3791C198.257 94.3818 198.034 94.3169 197.845 94.1927C197.655 94.0686 197.507 93.8909 197.419 93.6823C197.331 93.4737 197.307 93.2436 197.351 93.0215C197.395 92.7994 197.503 92.5953 197.664 92.4352C197.824 92.2752 198.029 92.1664 198.251 92.1229C198.474 92.0794 198.704 92.1031 198.913 92.1909C199.122 92.2787 199.3 92.4267 199.424 92.616C199.549 92.8053 199.613 93.0273 199.611 93.2536Z" fill="#C5FFD8"/>
</g>
<g opacity="0.470897">
<path opacity="0.470897" d="M329.483 49.3575C329.453 49.6367 329.32 49.8948 329.111 50.0824C328.902 50.2699 328.63 50.3737 328.349 50.3737C328.068 50.3737 327.796 50.2699 327.587 50.0824C327.378 49.8948 327.245 49.6367 327.215 49.3575C327.198 49.1985 327.214 49.0377 327.263 48.8855C327.313 48.7334 327.393 48.5932 327.5 48.4742C327.607 48.3552 327.738 48.26 327.884 48.1949C328.031 48.1297 328.189 48.0961 328.349 48.0961C328.509 48.0961 328.668 48.1297 328.814 48.1949C328.96 48.26 329.091 48.3552 329.198 48.4742C329.305 48.5932 329.386 48.7334 329.435 48.8855C329.484 49.0377 329.5 49.1985 329.483 49.3575Z" fill="#C5FFD8"/>
</g>
<g opacity="0.446568">
<path opacity="0.446568" d="M211.64 78.1846C211.643 78.411 211.578 78.633 211.454 78.8223C211.329 79.0115 211.151 79.1596 210.942 79.2474C210.733 79.3352 210.503 79.3589 210.281 79.3154C210.058 79.2719 209.854 79.1631 209.693 79.0031C209.533 78.843 209.424 78.6389 209.381 78.4167C209.337 78.1946 209.361 77.9645 209.449 77.7559C209.537 77.5473 209.685 77.3696 209.874 77.2454C210.064 77.1213 210.286 77.0564 210.513 77.059C210.661 77.059 210.808 77.0882 210.944 77.1447C211.081 77.2013 211.205 77.2842 211.31 77.3887C211.415 77.4932 211.498 77.6173 211.555 77.7539C211.611 77.8904 211.64 78.0368 211.64 78.1846Z" fill="#C5FFD8"/>
</g>
<g opacity="0.527582">
<path opacity="0.527582" d="M302.771 28.581C302.774 28.8073 302.709 29.0293 302.585 29.2186C302.46 29.4079 302.282 29.5559 302.073 29.6438C301.864 29.7316 301.634 29.7553 301.411 29.7117C301.189 29.6682 300.984 29.5595 300.824 29.3994C300.664 29.2394 300.555 29.0353 300.511 28.8131C300.468 28.591 300.491 28.3609 300.579 28.1523C300.667 27.9436 300.816 27.7659 301.005 27.6418C301.195 27.5177 301.417 27.4528 301.644 27.4554C301.792 27.4554 301.939 27.4845 302.075 27.5411C302.212 27.5976 302.336 27.6805 302.441 27.7851C302.546 27.8896 302.629 28.0137 302.686 28.1502C302.742 28.2868 302.771 28.4332 302.771 28.581Z" fill="#C5FFD8"/>
</g>
<g opacity="0.563338">
<path opacity="0.563338" d="M208.789 41.6375C208.789 41.8627 208.722 42.0829 208.597 42.2702C208.471 42.4574 208.293 42.6034 208.085 42.6896C207.876 42.7758 207.647 42.7983 207.426 42.7544C207.204 42.7104 207.001 42.602 206.842 42.4427C206.682 42.2835 206.574 42.0806 206.529 41.8597C206.485 41.6388 206.508 41.4098 206.594 41.2017C206.681 40.9936 206.827 40.8158 207.014 40.6907C207.202 40.5655 207.423 40.4987 207.648 40.4987C207.799 40.497 207.948 40.5252 208.087 40.5818C208.226 40.6384 208.352 40.7222 208.459 40.8283C208.565 40.9344 208.649 41.0607 208.706 41.1996C208.762 41.3386 208.791 41.4875 208.789 41.6375Z" fill="#C5FFD8"/>
</g>
<g opacity="0.570593">
<path opacity="0.570593" d="M314.284 5.6862C314.28 5.98592 314.158 6.27217 313.945 6.48287C313.731 6.69358 313.443 6.81173 313.143 6.81171C312.995 6.81171 312.848 6.7826 312.711 6.72604C312.575 6.66948 312.45 6.58658 312.346 6.48207C312.241 6.37755 312.158 6.25346 312.101 6.1169C312.045 5.98035 312.016 5.834 312.016 5.6862C311.998 5.52724 312.015 5.36643 312.064 5.21425C312.113 5.06207 312.194 4.92193 312.301 4.80294C312.408 4.68395 312.539 4.58878 312.685 4.52363C312.831 4.45848 312.989 4.4248 313.15 4.4248C313.31 4.4248 313.468 4.45848 313.614 4.52363C313.761 4.58878 313.891 4.68395 313.998 4.80294C314.105 4.92193 314.186 5.06207 314.235 5.21425C314.284 5.36643 314.301 5.52724 314.284 5.6862Z" fill="#C5FFD8"/>
</g>
<g opacity="0.560428">
<path opacity="0.560428" d="M245.78 38.2872C245.793 38.5131 245.738 38.7378 245.623 38.9325C245.507 39.1272 245.336 39.2833 245.132 39.3806C244.927 39.478 244.698 39.5124 244.474 39.4793C244.25 39.4462 244.041 39.3472 243.873 39.1949C243.706 39.0426 243.587 38.844 243.533 38.6242C243.479 38.4045 243.492 38.1737 243.57 37.9612C243.648 37.7487 243.787 37.5642 243.971 37.4312C244.154 37.2983 244.373 37.2228 244.599 37.2146C244.747 37.2074 244.895 37.2295 245.035 37.2796C245.174 37.3297 245.303 37.4068 245.412 37.5064C245.522 37.606 245.611 37.7263 245.674 37.8603C245.737 37.9943 245.773 38.1393 245.78 38.2872Z" fill="#C5FFD8"/>
</g>
<g opacity="0.613859">
<path opacity="0.613859" d="M282.147 2.54783C282.15 2.77362 282.085 2.99509 281.961 3.18411C281.838 3.37313 281.661 3.52115 281.452 3.60938C281.244 3.69761 281.014 3.72207 280.792 3.67964C280.57 3.6372 280.366 3.52977 280.205 3.37104C280.044 3.21231 279.934 3.00943 279.889 2.78816C279.844 2.56689 279.865 2.33723 279.951 2.12836C280.037 1.91948 280.184 1.74082 280.371 1.61509C280.559 1.48935 280.78 1.42221 281.007 1.4222C281.156 1.42044 281.304 1.44827 281.442 1.50405C281.58 1.55984 281.706 1.64246 281.812 1.74716C281.918 1.85186 282.003 1.97653 282.06 2.11397C282.118 2.25141 282.147 2.39889 282.147 2.54783Z" fill="#C5FFD8"/>
</g>
<g opacity="0.541231">
<path opacity="0.541231" d="M267.783 41.3595C267.786 41.5858 267.721 41.8078 267.596 41.9971C267.472 42.1864 267.294 42.3344 267.085 42.4222C266.876 42.51 266.646 42.5337 266.423 42.4902C266.201 42.4467 265.996 42.3379 265.836 42.1779C265.676 42.0178 265.567 41.8137 265.523 41.5916C265.48 41.3695 265.503 41.1394 265.591 40.9308C265.679 40.7222 265.828 40.5445 266.017 40.4204C266.207 40.2962 266.429 40.2313 266.656 40.234C266.955 40.234 267.242 40.3525 267.453 40.5636C267.664 40.7747 267.783 41.061 267.783 41.3595Z" fill="#C5FFD8"/>
</g>
<g opacity="0.531224">
<path opacity="0.531224" d="M285.357 38.6846C285.357 38.9104 285.29 39.1311 285.164 39.3186C285.038 39.5062 284.859 39.6521 284.65 39.7379C284.44 39.8237 284.21 39.8455 283.989 39.8005C283.767 39.7554 283.564 39.6457 283.405 39.4851C283.246 39.3245 283.138 39.1203 283.096 38.8985C283.053 38.6767 283.078 38.4474 283.166 38.2395C283.255 38.0317 283.403 37.8547 283.592 37.7312C283.781 37.6077 284.003 37.5431 284.229 37.5457C284.379 37.5457 284.526 37.5753 284.664 37.6327C284.802 37.6901 284.927 37.7742 285.031 37.8801C285.136 37.986 285.219 38.1117 285.275 38.2498C285.331 38.3878 285.359 38.5356 285.357 38.6846Z" fill="#C5FFD8"/>
</g>
<g opacity="0.485737">
<path opacity="0.485737" d="M305.251 56.1901C305.254 56.4158 305.189 56.6373 305.066 56.8263C304.942 57.0153 304.765 57.1633 304.557 57.2515C304.348 57.3398 304.119 57.3642 303.896 57.3218C303.674 57.2793 303.47 57.1719 303.309 57.0132C303.148 56.8545 303.038 56.6516 302.993 56.4304C302.948 56.2091 302.97 55.9795 303.056 55.7706C303.142 55.5618 303.288 55.3831 303.476 55.2574C303.664 55.1317 303.885 55.0645 304.111 55.0645C304.26 55.0628 304.408 55.0906 304.546 55.1464C304.685 55.2022 304.81 55.2848 304.917 55.3895C305.023 55.4942 305.107 55.6188 305.164 55.7563C305.222 55.8937 305.251 56.0411 305.251 56.1901Z" fill="#C5FFD8"/>
</g>
<g opacity="0.49109">
<path opacity="0.49109" d="M299.867 82.0513C299.869 82.2776 299.804 82.4996 299.68 82.6889C299.556 82.8781 299.378 83.0261 299.169 83.114C298.96 83.2018 298.729 83.2255 298.507 83.1819C298.284 83.1384 298.08 83.0297 297.919 82.8697C297.759 82.7096 297.65 82.5055 297.607 82.2834C297.563 82.0612 297.587 81.8312 297.675 81.6226C297.763 81.414 297.911 81.2362 298.1 81.1121C298.29 80.988 298.512 80.9231 298.739 80.9257C299.038 80.9257 299.325 81.0443 299.536 81.2554C299.748 81.4665 299.867 81.7528 299.867 82.0513Z" fill="#C5FFD8"/>
</g>
<g opacity="0.434638">
<path opacity="0.434638" d="M390.029 76.2776C390.652 76.2776 391.156 75.7737 391.156 75.1521C391.156 74.5304 390.652 74.0265 390.029 74.0265C389.407 74.0265 388.902 74.5304 388.902 75.1521C388.902 75.7737 389.407 76.2776 390.029 76.2776Z" fill="#C5FFD8"/>
</g>
<g opacity="0.36415">
<path opacity="0.36415" d="M379.339 127.338C379.342 127.564 379.277 127.785 379.153 127.974C379.03 128.163 378.852 128.311 378.644 128.399C378.436 128.488 378.206 128.512 377.984 128.47C377.762 128.427 377.558 128.32 377.397 128.161C377.236 128.002 377.126 127.799 377.081 127.578C377.036 127.357 377.057 127.127 377.143 126.918C377.229 126.71 377.376 126.531 377.563 126.405C377.751 126.28 377.972 126.212 378.199 126.212C378.348 126.211 378.496 126.238 378.634 126.294C378.772 126.35 378.898 126.433 379.004 126.537C379.11 126.642 379.195 126.767 379.252 126.904C379.31 127.041 379.339 127.189 379.339 127.338Z" fill="#C5FFD8"/>
</g>
<g opacity="0.511651">
<path opacity="0.511651" d="M439.116 104.138C439.086 104.417 438.953 104.676 438.744 104.863C438.534 105.051 438.263 105.154 437.982 105.154C437.701 105.154 437.429 105.051 437.22 104.863C437.011 104.676 436.878 104.417 436.848 104.138C436.831 103.979 436.847 103.818 436.896 103.666C436.945 103.514 437.026 103.374 437.133 103.255C437.24 103.136 437.371 103.041 437.517 102.976C437.663 102.91 437.822 102.877 437.982 102.877C438.142 102.877 438.3 102.91 438.447 102.976C438.593 103.041 438.724 103.136 438.831 103.255C438.938 103.374 439.018 103.514 439.068 103.666C439.117 103.818 439.133 103.979 439.116 104.138Z" fill="#C5FFD8"/>
</g>
<g opacity="0.452487">
<path opacity="0.452487" d="M393.504 91.9691C393.501 92.2688 393.379 92.5551 393.165 92.7658C392.952 92.9765 392.664 93.0946 392.363 93.0946C392.064 93.0946 391.778 92.976 391.566 92.765C391.355 92.5539 391.236 92.2676 391.236 91.9691C391.219 91.8101 391.235 91.6493 391.284 91.4971C391.334 91.3449 391.414 91.2048 391.521 91.0858C391.628 90.9668 391.759 90.8716 391.905 90.8065C392.052 90.7413 392.21 90.7076 392.37 90.7076C392.53 90.7076 392.689 90.7413 392.835 90.8065C392.981 90.8716 393.112 90.9668 393.219 91.0858C393.326 91.2048 393.407 91.3449 393.456 91.4971C393.505 91.6493 393.521 91.8101 393.504 91.9691Z" fill="#C5FFD8"/>
</g>
<g opacity="0.335523">
<path opacity="0.335523" d="M250.461 87.5995C250.461 87.8247 250.395 88.0449 250.269 88.2322C250.144 88.4195 249.966 88.5655 249.757 88.6517C249.549 88.7379 249.32 88.7605 249.098 88.7165C248.877 88.6726 248.674 88.5641 248.514 88.4048C248.355 88.2455 248.246 88.0426 248.202 87.8216C248.158 87.6007 248.181 87.3717 248.267 87.1636C248.353 86.9555 248.5 86.7776 248.687 86.6525C248.875 86.5273 249.095 86.4605 249.321 86.4605C249.471 86.4588 249.62 86.487 249.759 86.5436C249.899 86.6002 250.025 86.684 250.131 86.7902C250.238 86.8963 250.322 87.0225 250.378 87.1615C250.435 87.3005 250.463 87.4494 250.461 87.5995Z" fill="#C5FFD8"/>
</g>
<g opacity="0.469525">
<path opacity="0.469525" d="M360.134 36.738C360.134 36.9638 360.067 37.1845 359.941 37.3721C359.815 37.5596 359.636 37.7055 359.427 37.7913C359.218 37.8771 358.988 37.8989 358.766 37.8539C358.545 37.8088 358.341 37.6991 358.182 37.5385C358.023 37.3779 357.916 37.1737 357.873 36.9519C357.831 36.7302 357.855 36.5008 357.944 36.293C358.032 36.0851 358.18 35.9082 358.37 35.7846C358.559 35.6611 358.781 35.5966 359.007 35.5992C359.156 35.5992 359.304 35.6287 359.441 35.6861C359.579 35.7435 359.704 35.8276 359.809 35.9335C359.914 36.0395 359.996 36.1651 360.052 36.3032C360.108 36.4413 360.136 36.5891 360.134 36.738Z" fill="#C5FFD8"/>
</g>
<g opacity="0.545116">
<path opacity="0.545116" d="M227.649 55.2765C227.645 55.5762 227.524 55.8625 227.31 56.0732C227.097 56.2839 226.809 56.4021 226.508 56.4021C226.209 56.4021 225.923 56.2835 225.711 56.0724C225.5 55.8613 225.381 55.575 225.381 55.2765C225.364 55.1175 225.38 54.9567 225.429 54.8045C225.478 54.6523 225.559 54.5122 225.666 54.3932C225.773 54.2742 225.904 54.179 226.05 54.1138C226.196 54.0487 226.355 54.015 226.515 54.015C226.675 54.015 226.834 54.0487 226.98 54.1138C227.126 54.179 227.257 54.2742 227.364 54.3932C227.471 54.5122 227.551 54.6523 227.601 54.8045C227.65 54.9567 227.666 55.1175 227.649 55.2765Z" fill="#C5FFD8"/>
</g>
<g opacity="0.530901">
<path opacity="0.530901" d="M257.65 54.9189C257.667 55.0779 257.651 55.2387 257.602 55.3909C257.553 55.543 257.472 55.6832 257.365 55.8022C257.258 55.9212 257.127 56.0163 256.981 56.0815C256.835 56.1466 256.676 56.1803 256.516 56.1803C256.356 56.1803 256.198 56.1466 256.051 56.0815C255.905 56.0163 255.774 55.9212 255.667 55.8022C255.56 55.6832 255.48 55.543 255.43 55.3909C255.381 55.2387 255.365 55.0779 255.382 54.9189C255.412 54.6398 255.545 54.3817 255.754 54.1941C255.964 54.0066 256.235 53.9028 256.516 53.9028C256.797 53.9028 257.069 54.0066 257.278 54.1941C257.487 54.3817 257.62 54.6398 257.65 54.9189Z" fill="#C5FFD8"/>
</g>
<g opacity="0.489026">
<path opacity="0.489026" d="M431.728 41.6109C431.728 41.9094 431.609 42.1957 431.398 42.4068C431.186 42.6179 430.9 42.7364 430.601 42.7364C430.374 42.7391 430.152 42.6742 429.962 42.5501C429.773 42.4259 429.624 42.2482 429.536 42.0396C429.448 41.831 429.425 41.6009 429.468 41.3788C429.512 41.1567 429.621 40.9526 429.781 40.7925C429.941 40.6325 430.146 40.5237 430.368 40.4802C430.591 40.4367 430.821 40.4604 431.03 40.5482C431.239 40.636 431.417 40.784 431.541 40.9733C431.666 41.1626 431.731 41.3846 431.728 41.6109Z" fill="#C5FFD8"/>
</g>
<g opacity="0.578719">
<path opacity="0.578719" d="M257.862 24.6616C257.862 24.9601 257.744 25.2464 257.532 25.4575C257.321 25.6686 257.034 25.7872 256.735 25.7872C256.436 25.7872 256.149 25.6686 255.938 25.4575C255.726 25.2464 255.608 24.9601 255.608 24.6616C255.608 24.3631 255.726 24.0768 255.938 23.8657C256.149 23.6546 256.436 23.536 256.735 23.536C257.034 23.536 257.321 23.6546 257.532 23.8657C257.744 24.0768 257.862 24.3631 257.862 24.6616Z" fill="#C5FFD8"/>
</g>
<g opacity="0.538768">
<path opacity="0.538768" d="M124.237 29.9847C124.237 30.2832 124.118 30.5695 123.906 30.7806C123.695 30.9917 123.408 31.1103 123.109 31.1103C122.883 31.1129 122.66 31.048 122.471 30.9239C122.281 30.7998 122.133 30.6221 122.045 30.4134C121.957 30.2048 121.933 29.9748 121.977 29.7526C122.02 29.5305 122.129 29.3264 122.29 29.1663C122.45 29.0063 122.654 28.8975 122.877 28.854C123.099 28.8105 123.33 28.8342 123.539 28.922C123.748 29.0098 123.926 29.1578 124.05 29.3471C124.174 29.5364 124.239 29.7584 124.237 29.9847Z" fill="#C5FFD8"/>
</g>
<g opacity="0.484269">
<path opacity="0.484269" d="M97.7502 31.1896C97.7502 31.4154 97.6829 31.6361 97.557 31.8236C97.4311 32.0112 97.2521 32.1571 97.0429 32.2429C96.8337 32.3287 96.6037 32.3505 96.3821 32.3054C96.1605 32.2604 95.9573 32.1506 95.7983 31.9901C95.6393 31.8295 95.5318 31.6253 95.4893 31.4035C95.4468 31.1818 95.4713 30.9524 95.5596 30.7446C95.648 30.5368 95.7962 30.3598 95.9855 30.2363C96.1749 30.1128 96.3967 30.0482 96.6228 30.0509C96.772 30.0508 96.9197 30.0804 97.0574 30.1378C97.195 30.1952 97.3199 30.2793 97.4247 30.3852C97.5296 30.4911 97.6123 30.6167 97.6682 30.7548C97.7241 30.8929 97.752 31.0407 97.7502 31.1896Z" fill="#C5FFD8"/>
</g>
<g opacity="0.462998">
<path opacity="0.462998" d="M372.23 38.9759C372.233 39.2022 372.168 39.4242 372.043 39.6135C371.919 39.8028 371.741 39.9508 371.532 40.0386C371.323 40.1264 371.093 40.1501 370.87 40.1066C370.648 40.0631 370.443 39.9543 370.283 39.7943C370.123 39.6342 370.014 39.4301 369.97 39.208C369.927 38.9858 369.95 38.7558 370.038 38.5471C370.126 38.3385 370.275 38.1608 370.464 38.0367C370.654 37.9126 370.876 37.8477 371.103 37.8503C371.251 37.8503 371.397 37.8794 371.534 37.936C371.671 37.9926 371.795 38.0755 371.9 38.18C372.005 38.2845 372.088 38.4086 372.144 38.5451C372.201 38.6817 372.23 38.828 372.23 38.9759Z" fill="#C5FFD8"/>
</g>
<g opacity="0.382303">
<path opacity="0.382303" d="M14.3784 42.0083C14.381 42.2347 14.316 42.4566 14.1917 42.6459C14.0673 42.8352 13.8893 42.9832 13.6804 43.071C13.4714 43.1588 13.241 43.1825 13.0185 43.139C12.796 43.0954 12.5916 42.9867 12.4312 42.8267C12.2709 42.6666 12.162 42.4625 12.1184 42.2404C12.0749 42.0183 12.0986 41.7883 12.1865 41.5797C12.2745 41.3711 12.4228 41.1934 12.6123 41.0693C12.8019 40.9452 13.0243 40.8803 13.251 40.8829C13.55 40.8829 13.8367 41.0015 14.0482 41.2125C14.2596 41.4236 14.3784 41.7098 14.3784 42.0083Z" fill="#C5FFD8"/>
</g>
<g opacity="0.370448">
<path opacity="0.370448" d="M14.6833 50.324C14.6859 50.5503 14.6209 50.7723 14.4966 50.9616C14.3723 51.1508 14.1943 51.2988 13.9854 51.3867C13.7764 51.4745 13.546 51.4982 13.3235 51.4546C13.101 51.4111 12.8966 51.3024 12.7363 51.1424C12.576 50.9823 12.4671 50.7782 12.4235 50.5561C12.3799 50.334 12.4036 50.1039 12.4916 49.8953C12.5796 49.6867 12.7278 49.509 12.9174 49.3849C13.107 49.2608 13.3293 49.1959 13.556 49.1986C13.855 49.1986 14.1417 49.3171 14.3531 49.5282C14.5645 49.7393 14.6833 50.0255 14.6833 50.324Z" fill="#C5FFD8"/>
</g>
<path d="M73.8633 639.064C74.0819 639.687 74.2374 640.33 74.3275 640.984C74.5 645.407 74.6061 649.829 74.7785 654.225C74.743 655.124 74.8734 656.022 75.1631 656.874C75.5531 657.537 75.7686 658.288 75.7894 659.057C75.8103 659.825 75.6359 660.587 75.2825 661.27C75.0703 661.667 75.4549 662.594 75.7998 663.071C76.2168 663.571 76.4582 664.195 76.4869 664.845C76.5157 665.495 76.3302 666.137 75.9589 666.673C75.1101 667.997 75.4814 668.91 76.768 669.731C79.4206 671.387 82.0069 673.108 82.8292 676.352C83.1861 677.33 83.2955 678.381 83.1475 679.411C82.6701 681.133 83.4658 681.927 84.7523 682.616C85.5614 683.039 86.3572 683.49 87.3254 684.032C87.6437 681.861 87.9488 679.954 85.8532 678.524C85.5822 678.297 85.3593 678.019 85.1976 677.705C85.0359 677.391 84.9386 677.048 84.9115 676.697C84.8054 674.419 84.9115 672.141 84.9115 669.851C84.9115 668.884 85.2298 668.434 86.2378 668.328C86.7153 668.328 87.4846 667.626 87.4978 667.216C87.6702 662.793 87.7365 658.357 87.7763 653.974C87.7319 653.737 87.6381 653.512 87.501 653.313C87.3639 653.115 87.1866 652.948 86.9806 652.822C86.3655 652.464 85.8738 651.928 85.5707 651.285C85.2675 650.641 85.1672 649.921 85.2829 649.22C85.3757 647.684 85.2829 646.135 85.2829 644.599C85.2829 643.275 85.6144 642.546 87.0336 642.652C88.4528 642.758 88.6782 642.149 88.6384 640.984C88.6384 639.395 88.6384 637.793 88.6384 636.19C88.6384 635.767 88.6384 635.144 88.3864 634.959C86.7153 633.754 87.0601 632.019 87.1662 630.417C87.1662 629.715 87.8427 629.093 88.161 628.378C88.3987 627.97 88.5563 627.52 88.6252 627.053C88.5716 625.945 88.5982 624.834 88.7048 623.73C89.0739 622.555 89.5169 621.406 90.0311 620.287C90.5881 618.632 91.1054 616.963 91.6094 615.295C91.7951 614.672 91.9012 613.971 92.0471 613.388H92.5113C92.7765 614.712 93.0285 616.036 93.3203 617.361C93.4662 618.009 93.4662 618.923 93.9039 619.241C96.1984 620.949 96.026 623.319 95.9597 625.743C95.9597 627.067 95.4689 628.59 97.6043 628.735C97.7635 628.735 98.042 629.212 98.0287 629.463C97.9094 631.331 98.8776 633.436 96.7024 634.879C96.3576 635.118 96.278 635.859 96.2515 636.389C96.2515 637.488 96.2515 638.6 96.2515 639.713C96.2515 641.407 96.1056 642.996 98.599 642.785C98.9041 642.785 99.554 643.553 99.5672 643.99C99.6733 646.267 99.6468 648.545 99.5672 650.822C99.5618 651.061 99.503 651.295 99.3951 651.509C99.2873 651.722 99.1331 651.908 98.9439 652.054C97.3788 652.954 97.3788 654.278 97.3788 655.722C97.3788 659.416 97.3788 663.111 97.3788 666.805C97.3788 667.229 97.8298 667.653 98.0818 668.129C98.3736 667.798 98.9041 667.507 98.9306 667.163C99.4213 661.323 103.215 657.827 107.698 654.848C109.196 653.855 110.788 653.1 110.748 650.875C110.773 650.633 110.852 650.4 110.978 650.191C111.104 649.983 111.275 649.805 111.478 649.67C113.573 648.346 113.639 646.307 113.745 644.175C113.891 641.341 114.21 638.521 114.462 635.687H115.138C115.403 639.66 115.655 643.632 115.934 647.83C116.783 648.285 117.509 648.94 118.047 649.739C118.586 650.537 118.921 651.454 119.024 652.411C119.104 653.193 120.549 653.855 121.359 654.57C123.627 656.543 126.027 658.383 128.096 660.542C128.944 661.529 129.582 662.677 129.972 663.918C130.362 665.158 130.495 666.465 130.364 667.758C130.386 668.513 130.489 669.263 130.669 669.996C131.833 670.244 133.021 670.36 134.21 670.341C134.847 670.248 135.431 669.546 135.921 669.016C136.12 668.805 136.001 668.301 136.001 667.931C136.001 656.914 136.001 645.879 136.001 634.826C136.001 633.741 135.895 633.065 134.555 632.747C132.645 632.284 132.301 630.39 133.441 628.775C133.987 627.99 134.321 627.078 134.409 626.127C134.555 624.418 134.409 622.684 134.409 620.949C134.409 619.757 134.701 618.46 133.083 617.93C132.888 617.772 132.734 617.569 132.634 617.338C132.535 617.107 132.493 616.856 132.513 616.606C133.121 615.998 133.802 615.468 134.542 615.03C134.542 614.699 134.462 613.984 134.343 613.282C133.983 611.363 134.14 609.382 134.8 607.544C135.46 605.705 136.597 604.075 138.097 602.821C139.012 602 140.02 601.272 141.014 600.544C142.42 599.511 144.184 598.769 144.118 596.571C144.117 596.507 144.141 596.446 144.184 596.399C147.381 593.658 146.28 589.778 146.718 586.401C146.797 585.766 146.863 585.077 146.93 584.495H147.447C147.619 585.633 147.858 586.772 147.964 587.924C148.137 589.871 148.216 591.817 148.375 593.777C148.395 594.126 148.541 594.456 148.787 594.704C149.412 595.099 149.932 595.641 150.299 596.283C150.667 596.925 150.872 597.646 150.895 598.385C150.895 598.782 151.691 599.18 152.142 599.55C154.318 601.151 156.363 602.922 158.256 604.847C160.498 607.495 160.737 610.753 160.193 614.116C160.168 614.405 160.205 614.697 160.301 614.97C160.397 615.244 160.55 615.495 160.75 615.705C161.864 616.698 161.824 617.387 160.67 618.354C160.078 618.852 159.686 619.549 159.57 620.313C159.424 622.088 159.57 623.875 159.57 625.61C159.47 626.207 159.523 626.819 159.722 627.391C159.921 627.962 160.261 628.475 160.71 628.881C160.994 629.184 161.192 629.556 161.285 629.961C161.377 630.365 161.361 630.787 161.237 631.182C161.113 631.578 160.886 631.934 160.579 632.214C160.272 632.493 159.896 632.687 159.49 632.774C158.416 633.012 158.071 633.423 158.071 634.482C158.071 640.56 158.071 646.638 158.071 652.729L158.654 652.862C159.43 651.671 160.318 650.558 161.307 649.538C165.286 646.28 169.185 643.076 173.244 640.044C174.809 638.878 176.042 637.951 175.896 635.7C175.751 633.449 177.435 631.728 179.332 630.576C180.658 629.742 181.984 628.987 180.658 627.159C180.583 626.922 180.583 626.668 180.658 626.431C181.082 622.339 181.533 618.261 181.984 614.182C182.117 612.713 182.117 611.23 182.196 609.76C182.196 609.19 182.329 608.634 182.395 608.065H183.005C183.165 609.217 183.35 610.356 183.47 611.494C183.828 615.017 184.239 618.539 184.464 622.088C184.597 624.154 184.305 626.246 184.464 628.325C184.528 628.715 184.67 629.089 184.882 629.424C185.094 629.758 185.372 630.046 185.698 630.271C187.508 631.24 188.89 632.851 189.571 634.787C189.65 635.078 189.889 635.409 189.823 635.661C189.093 638.137 190.977 638.945 192.475 640.123C196.454 643.169 200.234 646.347 204.107 649.472C204.314 649.599 204.532 649.71 204.757 649.803C204.492 647.909 204.226 646.174 204.001 644.44C202.993 637.15 203.907 629.724 206.654 622.896C208.982 617.516 212.416 612.684 216.734 608.714C223.299 602.318 230.885 597.299 238.657 592.546C239.122 592.33 239.502 591.969 239.742 591.517C239.981 591.065 240.066 590.547 239.984 590.043C239.679 586.653 239.851 583.303 242.636 580.774C244.399 579.267 246.245 577.861 248.167 576.563C249.679 575.517 250.117 574.471 249.215 572.882C248.717 572.139 248.465 571.26 248.494 570.367C248.522 569.474 248.83 568.612 249.374 567.903C249.596 567.458 249.726 566.973 249.756 566.477C249.786 565.981 249.714 565.484 249.546 565.016C249.277 564.4 249.151 563.731 249.176 563.06C249.201 562.388 249.378 561.73 249.692 561.136C250.058 560.425 250.266 559.644 250.302 558.845C250.607 552.331 250.846 545.829 251.151 539.314C251.237 538.652 251.388 538 251.602 537.367H252.265C252.484 537.986 252.639 538.625 252.73 539.274C253.035 545.776 253.287 552.291 253.565 558.806C253.534 559.232 253.607 559.659 253.777 560.05C254.402 560.896 254.76 561.907 254.808 562.956C254.855 564.006 254.589 565.045 254.043 565.943C253.791 566.353 254.228 567.36 254.6 567.929C255.096 568.64 255.379 569.478 255.414 570.343C255.449 571.209 255.236 572.067 254.799 572.815C254.579 573.114 254.428 573.457 254.356 573.82C254.284 574.183 254.294 574.558 254.383 574.917C254.473 575.276 254.642 575.611 254.876 575.898C255.111 576.185 255.406 576.416 255.74 576.576C257.345 577.715 258.977 578.827 260.489 580.085C261.978 581.255 263.096 582.831 263.707 584.621C264.319 586.412 264.399 588.341 263.937 590.175C263.792 590.606 263.817 591.076 264.007 591.489C264.196 591.903 264.537 592.228 264.958 592.4C272.05 596.51 278.745 601.266 284.959 606.608C296.378 616.553 301.644 628.854 299.867 644.003C299.787 644.612 299.787 645.221 299.707 645.83C299.628 646.439 299.495 647.022 299.336 647.869C299.615 647.773 299.886 647.653 300.145 647.512C303.686 644.864 307.214 642.215 310.756 639.567C311.737 638.852 312.692 638.243 312.546 636.839C312.241 633.86 313.872 631.953 316.22 630.523C317.546 629.675 318.554 628.881 317.467 627.186C317.336 626.905 317.299 626.589 317.361 626.285C317.719 623.174 318.17 620.075 318.475 617.016C318.7 614.818 318.7 612.607 318.846 610.395C318.846 609.641 319.072 608.873 319.191 608.118H319.695C319.863 608.496 319.987 608.891 320.066 609.296C320.212 612.17 320.279 615.056 320.478 617.943C320.557 619.267 320.968 620.446 321.048 621.704C321.167 623.809 321.048 625.941 321.207 628.033C321.26 628.887 321.646 629.685 322.281 630.258C324.828 631.966 326.605 633.952 326.525 637.289C326.525 638.057 327.52 639.011 328.276 639.58C331.367 641.924 334.51 644.188 337.667 646.426C341.261 648.955 343.343 652.597 345.478 656.834C345.478 655.92 345.478 655.43 345.478 654.94L345.797 635.012C345.797 633.926 345.876 633.065 344.285 632.853C342.693 632.641 341.99 630.443 342.958 628.881C343.507 627.983 343.847 626.974 343.953 625.928C344.126 624.339 343.953 622.723 343.953 621.121C343.953 619.903 344.099 618.764 342.627 618.036C342.425 617.941 342.256 617.788 342.141 617.596C342.026 617.405 341.971 617.184 341.983 616.961C341.994 616.738 342.071 616.524 342.205 616.345C342.339 616.166 342.522 616.031 342.733 615.957C343.688 615.533 343.648 615.004 343.489 614.236C342.388 608.939 344.378 604.847 348.622 601.709C349.709 600.914 350.85 600.186 351.964 599.431C351.964 599.431 352.11 599.431 352.123 599.339C353.389 597.314 354.446 595.166 355.28 592.93C355.683 590.573 355.865 588.183 355.824 585.792C355.831 585.53 355.901 585.273 356.028 585.042C356.155 584.812 356.335 584.615 356.553 584.468C356.818 586.785 357.163 589.103 357.309 591.433C357.415 593.102 357.19 594.81 358.98 595.83C359.087 595.894 359.178 595.983 359.244 596.089C359.311 596.195 359.352 596.314 359.365 596.439C359.365 599.272 361.832 600.08 363.583 601.272C368.53 604.622 370.214 609.124 369.007 614.858C369.012 615.024 369.038 615.189 369.087 615.348L369.989 615.705C371.315 616.248 371.461 617.029 370.426 618.182C369.837 618.796 369.452 619.578 369.326 620.419C369.16 622.137 369.16 623.866 369.326 625.584C369.444 626.748 369.791 627.877 370.347 628.907C370.57 629.249 370.712 629.638 370.76 630.044C370.808 630.449 370.762 630.86 370.624 631.245C370.487 631.63 370.262 631.977 369.968 632.261C369.674 632.545 369.318 632.756 368.928 632.88C368.659 633.045 368.431 633.27 368.261 633.536C368.091 633.802 367.983 634.103 367.946 634.416C367.946 645.892 367.946 657.368 367.946 668.844C368.115 669.639 368.405 670.403 368.808 671.109C369.949 669.784 370.997 669.255 372.23 670.963C372.548 670.115 372.893 669.639 372.867 669.175C372.562 662.462 376.501 658.357 381.554 654.94C382.164 654.642 382.734 654.268 383.252 653.828C383.819 653.108 384.304 652.326 384.697 651.498C385.056 650.822 385.162 649.789 385.706 649.458C387.695 648.28 387.523 646.347 387.708 644.546C387.987 641.792 388.172 639.05 388.411 636.296C388.411 636.031 388.597 635.78 389.088 635.515C389.18 636.071 389.3 636.614 389.34 637.17C389.539 640.52 389.684 643.897 389.936 647.247C389.936 647.697 390.454 648.187 390.852 648.571C391.942 649.461 392.668 650.719 392.894 652.107C393.106 653.1 394.459 653.881 395.361 654.755C397.523 656.662 399.804 658.436 401.873 660.436C403.677 662.184 404.154 664.58 404.526 667.057C404.526 667.52 405.123 667.931 405.454 668.381C405.706 667.904 406.17 667.414 406.17 666.937C406.17 662.819 406.051 658.701 405.945 654.57C405.945 654.106 405.826 653.378 405.534 653.246C403.266 652.146 403.743 650.121 403.717 648.267C403.717 647.525 403.717 646.784 403.717 646.042C403.558 644.162 403.796 642.705 406.277 642.93C406.582 642.93 407.245 642.189 407.271 641.752C407.391 640.044 407.338 638.309 407.271 636.588C407.297 636.164 407.16 635.747 406.887 635.422C405.242 634.23 405.56 632.522 405.56 630.88C405.56 629.861 405.56 628.881 406.979 628.775C407.245 628.775 407.629 628.113 407.682 627.702C407.789 626.911 407.789 626.11 407.682 625.319C407.545 624.258 407.646 623.179 407.978 622.162C408.311 621.145 408.867 620.215 409.606 619.439C410.388 618.566 410.388 616.95 410.667 615.652C410.76 615.012 410.813 614.366 410.826 613.719H411.37C411.539 614.661 411.756 615.593 412.02 616.513C412.537 617.983 413.226 619.387 413.73 620.843C414.092 621.973 414.388 623.122 414.619 624.286C415.004 626.007 413.545 628.258 416.197 629.344C416.105 631.066 416.516 633.092 415.746 634.442C415.041 635.46 414.649 636.661 414.619 637.898C414.619 638.574 414.619 639.223 414.619 639.938C414.5 641.765 414.433 643.473 417.152 643.169C417.471 643.169 418.174 644.029 418.2 644.493C418.313 646.583 418.313 648.679 418.2 650.769C418.184 651.096 418.099 651.417 417.95 651.709C417.801 652.001 417.593 652.258 417.338 652.464C416.851 652.779 416.466 653.228 416.23 653.757C415.995 654.286 415.919 654.872 416.012 655.444C416.012 659.271 416.012 663.084 416.012 666.898C416.012 667.97 416.012 668.844 417.524 668.897C417.922 668.897 418.585 669.705 418.611 670.221C418.717 672.618 418.717 675.028 418.611 677.425C418.58 677.749 418.478 678.063 418.313 678.344C418.148 678.625 417.924 678.867 417.656 679.054C417.077 679.344 416.608 679.816 416.321 680.396C416.034 680.977 415.944 681.635 416.065 682.271C416.144 683.596 416.065 684.92 416.065 686.495C416.521 686.41 416.966 686.272 417.391 686.085C419.182 684.999 421.012 683.953 422.696 682.722C423.006 682.48 423.259 682.174 423.435 681.823C423.612 681.473 423.708 681.088 423.718 680.696C423.468 679.07 423.677 677.408 424.321 675.894C424.965 674.381 426.019 673.077 427.365 672.128C428.346 671.387 429.368 670.685 430.389 669.996C430.62 669.879 430.823 669.712 430.983 669.507C431.142 669.303 431.255 669.065 431.312 668.812C431.369 668.559 431.369 668.297 431.313 668.044C431.256 667.791 431.145 667.553 430.986 667.348C430.569 666.761 430.36 666.051 430.391 665.332C430.422 664.613 430.692 663.925 431.158 663.375C431.41 662.676 431.496 661.928 431.41 661.191C431.476 660.144 431.41 659.085 431.543 658.039C431.675 656.993 432.034 656.251 432.073 655.391C432.259 650.902 432.352 646.413 432.511 641.924C432.511 641.116 432.736 640.308 432.856 639.487H433.572C433.823 640.659 434.009 641.844 434.129 643.036C434.381 647.512 434.461 652.001 434.792 656.477C434.925 658.317 435.164 660.118 435.217 661.972C435.217 664.302 436.119 666.633 435.389 669.043C435.389 669.281 435.774 669.758 436.092 669.996C437.087 670.725 438.121 671.387 439.129 672.089C441.57 673.797 443.108 676.061 442.671 679.12C442.379 681.464 443.427 682.602 445.323 683.728C451.911 687.495 457.922 692.186 463.175 697.658C467.328 702.171 469.994 707.846 470.815 713.919C471.969 721.387 470.457 728.485 467.618 735.357C467.327 736.095 467.178 736.882 467.181 737.675C467.181 747.782 467.181 757.881 467.181 767.972C467.181 770.461 467.181 770.474 464.793 770.474H75.1897C63.9028 770.474 52.6424 770.474 41.329 770.474C39.3793 770.474 38.9681 769.878 38.9814 768.064C39.0742 758.65 38.9814 749.221 39.0742 739.807C39.0654 736.492 38.519 733.201 37.4561 730.061C34.4587 720.381 34.9759 710.953 40.2679 702.134C42.9619 697.848 46.4722 694.132 50.5998 691.196C54.6451 688.177 58.9423 685.516 63.0804 682.629C63.3626 682.434 63.599 682.181 63.7731 681.886C63.9472 681.591 64.0548 681.261 64.0884 680.921C63.3192 675.836 66.0646 672.764 70.0436 670.46C70.377 670.338 70.6781 670.143 70.9238 669.887C71.1695 669.631 71.3532 669.323 71.4608 668.985C71.5684 668.647 71.597 668.29 71.5444 667.939C71.4919 667.589 71.3596 667.255 71.1577 666.964C71.025 666.699 70.8128 666.355 70.8792 666.103C71.4529 663.621 71.6982 661.075 71.6086 658.529C71.6086 657.205 72.1789 655.775 72.2585 654.384C72.4707 650.266 72.5503 646.148 72.7492 642.043C72.8604 641.173 73.0422 640.314 73.293 639.474L73.8633 639.064ZM147.023 627.914H148.349C150.829 627.914 150.842 627.914 150.816 625.491C150.816 624.273 150.816 623.054 150.697 621.836C150.577 620.618 147.487 619.069 146.187 619.453C143.322 620.287 143.68 622.776 143.322 624.749C142.818 627.61 143.15 627.874 146.121 627.874L147.023 627.914ZM356.58 627.914C357.132 627.881 357.685 627.881 358.238 627.914C359.856 628.1 360.506 627.424 360.36 625.809C360.24 624.485 360.36 623.24 360.201 621.969C360.055 620.34 356.964 618.963 355.479 619.572C353.383 620.433 353.264 622.035 353.091 623.955C352.786 627.795 352.76 627.914 356.606 627.914H356.58ZM135.47 619.638C135.47 622.286 135.404 624.617 135.55 626.987C135.55 627.318 136.611 627.835 137.168 627.835C137.725 627.835 138.494 627.199 138.494 626.815C138.494 625.491 138.189 624.034 138.216 622.644C138.282 620.83 137.168 620.287 135.497 619.638H135.47ZM345.399 619.718C345.399 622.286 345.333 624.617 345.465 626.948C345.465 627.292 346.394 627.808 346.898 627.822C347.161 627.776 347.408 627.663 347.615 627.493C347.822 627.324 347.981 627.104 348.078 626.855C347.933 625.585 347.88 624.306 347.919 623.028C348.264 620.896 346.924 620.406 345.399 619.718ZM368.145 620.062L367.787 619.638C367.111 620.247 366.01 620.75 365.837 621.479C365.498 623.223 365.364 625 365.439 626.775C365.535 627.045 365.701 627.284 365.92 627.468C366.139 627.652 366.404 627.774 366.686 627.822C367.217 627.822 368.012 627.133 368.092 626.709C368.158 624.498 368.079 622.273 368.079 620.062H368.145ZM158.588 620.062L157.912 619.744C157.288 620.327 156.227 620.843 156.108 621.518C155.866 623.273 155.817 625.05 155.962 626.815C155.962 627.186 156.705 627.755 157.142 627.795C157.58 627.835 158.469 627.358 158.535 627.08C158.535 624.789 158.482 622.498 158.482 620.115L158.588 620.062Z" fill="url(#paint0_linear_6_2027)"/>
<defs>
<linearGradient id="paint0_linear_6_2027" x1="253.406" y1="770.077" x2="253.406" y2="537.394" gradientUnits="userSpaceOnUse">
<stop stop-color="#072F32" stop-opacity="0"/>
<stop offset="0.09" stop-color="#072F32" stop-opacity="0.26"/>
<stop offset="0.26" stop-color="#072E31" stop-opacity="0.67"/>
<stop offset="0.44" stop-color="#072E31" stop-opacity="0.92"/>
<stop offset="0.61" stop-color="#072E31"/>
<stop offset="1" stop-color="#00222B"/>
</linearGradient>
</defs>
</svg>
