<svg width="90" height="90" viewBox="0 0 90 90" fill="none" xmlns="http://www.w3.org/2000/svg">
<g style="mix-blend-mode:screen">
<path style="mix-blend-mode:screen" opacity="0.15" d="M46.9858 30.0986C46.9828 32.5331 47.7032 34.9137 49.0558 36.9394C50.4085 38.9651 52.3326 40.5447 54.5847 41.4784C56.8369 42.4121 59.3159 42.658 61.708 42.1849C64.1002 41.7118 66.2981 40.541 68.0235 38.8207C69.749 37.1003 70.9245 34.9077 71.4014 32.5202C71.8782 30.1327 71.635 27.6577 70.7025 25.4082C69.77 23.1588 68.19 21.236 66.1625 19.8832C64.1351 18.5303 61.7513 17.8082 59.3126 17.8082C56.046 17.8082 52.9129 19.1026 50.6016 21.4071C48.2904 23.7115 46.9899 26.8376 46.9858 30.0986Z" fill="url(#paint0_radial_6_2263)"/>
<path style="mix-blend-mode:screen" opacity="0.5" d="M53.1493 30.0986C53.1493 31.3065 53.508 32.4872 54.1803 33.4915C54.8525 34.4958 55.8079 35.2785 56.9257 35.7408C58.0436 36.203 59.2736 36.3239 60.4603 36.0883C61.647 35.8526 62.737 35.271 63.5926 34.4169C64.4481 33.5628 65.0307 32.4747 65.2668 31.29C65.5028 30.1054 65.3817 28.8775 64.9186 27.7615C64.4556 26.6456 63.6715 25.6918 62.6655 25.0208C61.6595 24.3497 60.4768 23.9916 59.2668 23.9916C57.6443 23.9916 56.0883 24.635 54.9411 25.7803C53.7938 26.9256 53.1493 28.4789 53.1493 30.0986Z" fill="url(#paint1_radial_6_2263)"/>
<path style="mix-blend-mode:screen" d="M54.1894 30.0986C54.1863 31.1145 54.4855 32.1084 55.049 32.9544C55.6125 33.8003 56.4149 34.4602 57.3545 34.8503C58.294 35.2405 59.3285 35.3434 60.3267 35.1459C61.325 34.9485 62.242 34.4596 62.9616 33.7412C63.6812 33.0229 64.1709 32.1074 64.3687 31.1109C64.5665 30.1144 64.4634 29.0817 64.0726 28.1437C63.6818 27.2057 63.0207 26.4047 62.1733 25.8422C61.326 25.2797 60.3304 24.981 59.3127 24.984C57.9539 24.984 56.6508 25.5229 55.69 26.4821C54.7291 27.4412 54.1894 28.7421 54.1894 30.0986Z" fill="url(#paint2_radial_6_2263)"/>
<g style="mix-blend-mode:screen" opacity="0.03">
<path d="M59.3126 30.1139L57.9973 30.4803L59.3126 30.1139ZM59.3126 30.1139L60.6279 29.7322L59.3126 30.1139ZM59.3126 30.1139L58.9455 28.8009L59.3126 30.1139ZM59.3126 30.1139L59.6797 31.4269L59.3126 30.1139ZM59.3126 30.1139L29.5663 22.8465L59.3126 30.1139ZM59.3126 30.1139L89.0589 37.366L59.3126 30.1139ZM59.3126 30.1139L66.5924 0.418335L59.3126 30.1139ZM59.3126 30.1139L52.0481 59.8094L59.3126 30.1139ZM59.3126 30.1139L39.5072 11.6248L59.3126 30.1139ZM59.3126 30.1139L79.118 48.5877L59.3126 30.1139ZM59.3126 30.1139L77.818 10.3271L59.3126 30.1139ZM59.3126 30.1139L40.8072 49.8855L59.3126 30.1139ZM59.3126 30.1139L32.9156 19.0601L59.3126 30.1139ZM59.3126 30.1139L85.7096 41.1524L59.3126 30.1139ZM59.3126 30.1139L70.37 3.76195L59.3126 30.1139ZM59.3126 30.1139L48.2552 56.4505L59.3126 30.1139ZM59.3126 30.1139L49.2799 24.9076L59.3126 30.1139ZM59.3126 30.1139L69.3453 35.3049L59.3126 30.1139ZM59.3126 30.1139L64.5125 20.0983L59.3126 30.1139ZM59.3126 30.1139L54.1127 40.1294L59.3126 30.1139ZM59.3126 30.1139L43.3306 30.8773L59.3126 30.1139ZM59.3126 30.1139L75.2945 29.3352L59.3126 30.1139ZM59.3126 30.1139L58.5479 14.1592L59.3126 30.1139ZM59.3126 30.1139L60.0773 46.0533L59.3126 30.1139ZM59.3126 30.1139L44.2483 41.3814L59.3126 30.1139ZM59.3126 30.1139L74.3769 18.8311L59.3126 30.1139ZM59.3126 30.1139L48.0258 15.06L59.3126 30.1139ZM59.3126 30.1139L70.6147 45.1525L59.3126 30.1139ZM59.3126 30.1139L39.9507 9.73159L59.3126 30.1139ZM59.3126 30.1139L78.6745 50.4809L59.3126 30.1139ZM59.3126 30.1139L79.7297 10.7698L59.3126 30.1139ZM59.3126 30.1139L38.8955 49.4426L59.3126 30.1139ZM59.3126 30.1139L32.7627 32.3582L59.3126 30.1139ZM59.3126 30.1139L85.8625 27.8543L59.3126 30.1139ZM59.3126 30.1139L57.0644 3.59403L59.3126 30.1139ZM59.3126 30.1139L61.5608 56.6184L59.3126 30.1139ZM59.3126 30.1139L51.2222 25.2741L59.3126 30.1139ZM59.3126 30.1139L67.403 34.9385L59.3126 30.1139ZM59.3126 30.1139L64.1454 22.0221L59.3126 30.1139ZM59.3126 30.1139L54.4798 38.1905L59.3126 30.1139ZM59.3126 30.1139L57.8291 30.3582L59.3126 30.1139ZM59.3126 30.1139L60.7961 29.8544L59.3126 30.1139ZM59.3126 30.1139L59.0526 28.6329L59.3126 30.1139ZM59.3126 30.1139L59.5726 31.5796L59.3126 30.1139ZM59.3126 30.1139L45.6247 41.2134L59.3126 30.1139ZM59.3126 30.1139L73.0005 18.9991L59.3126 30.1139ZM59.3126 30.1139L48.1788 16.4493L59.3126 30.1139ZM59.3126 30.1139L70.4465 43.7784L59.3126 30.1139ZM59.3126 30.1139L48.7599 35.1369L59.3126 30.1139ZM59.3126 30.1139L69.8653 25.0908L59.3126 30.1139ZM59.3126 30.1139L54.281 19.5792L59.3126 30.1139ZM59.3126 30.1139L64.3442 40.6333L59.3126 30.1139ZM59.3126 30.1139L36.9684 18.2815L59.3126 30.1139ZM59.3126 30.1139L81.6721 41.931L59.3126 30.1139ZM59.3126 30.1139L71.15 7.79262L59.3126 30.1139ZM59.3126 30.1139L47.4752 52.4198L59.3126 30.1139ZM59.3126 30.1139L53.4398 25.5947L59.3126 30.1139ZM59.3126 30.1139L65.1854 34.6178L59.3126 30.1139ZM59.3126 30.1139L63.8242 24.2511L59.3126 30.1139ZM59.3126 30.1139L54.8009 35.9614" stroke="white" stroke-width="2" stroke-miterlimit="10"/>
</g>
</g>
<g style="mix-blend-mode:screen">
<path d="M73.3389 53.323C73.3389 60.5257 71.1994 67.5666 67.1911 73.5553C63.1827 79.544 57.4855 84.2113 50.8201 86.9671C44.1547 89.7228 36.8204 90.4432 29.7448 89.037C22.6693 87.6309 16.1704 84.1614 11.07 79.0674C5.96962 73.9734 2.49691 67.4837 1.09107 60.419C-0.314767 53.3544 0.409425 46.0322 3.17205 39.3785C5.93468 32.7248 10.6116 27.0385 16.6114 23.0388C22.6112 19.0391 29.6643 16.9056 36.8786 16.9082C37.6346 16.9082 38.3906 16.9082 39.1333 16.9082C39.8761 16.9082 40.8841 17.0671 41.786 17.1863C36.7997 17.9679 32.1274 20.1118 28.2863 23.3808C24.4451 26.6498 21.585 30.9164 20.0226 35.708C18.4602 40.4997 18.2564 45.6295 19.4338 50.5297C20.6111 55.4298 23.1238 59.9091 26.6935 63.4716C30.2633 67.034 34.7508 69.5407 39.6594 70.7142C44.5679 71.8876 49.706 71.6819 54.5047 70.12C59.3035 68.558 63.5756 65.7007 66.8483 61.8644C70.1209 58.028 72.2664 53.3623 73.0471 48.3838C73.1665 49.2445 73.246 50.1185 73.3123 51.0322C73.3786 51.9458 73.3389 52.5682 73.3389 53.323Z" fill="#1BF2DD"/>
</g>
<g style="mix-blend-mode:screen">
<path d="M73.2726 51.0721C72.8615 57.2123 70.6876 63.1043 67.0108 68.0433C63.334 72.9824 58.31 76.7596 52.5397 78.923C46.7694 81.0864 40.4969 81.5445 34.4727 80.2426C28.4484 78.9406 22.9274 75.9337 18.5698 71.5814C14.2121 67.2291 11.2025 61.7158 9.90078 55.7007C8.59905 49.6857 9.06032 43.4236 11.2295 37.6634C13.3986 31.9032 17.1838 26.8888 22.1323 23.2198C27.0808 19.5509 32.9831 17.3827 39.1334 16.9747C40.0087 17.0542 40.8841 17.1336 41.786 17.2528C36.7997 18.0344 32.1274 20.1784 28.2863 23.4474C24.4451 26.7164 21.585 30.9829 20.0226 35.7745C18.4602 40.5662 18.2564 45.696 19.4338 50.5961C20.6111 55.4963 23.1238 59.9756 26.6935 63.538C30.2633 67.1005 34.7508 69.6072 39.6594 70.7806C44.5679 71.954 49.706 71.7484 54.5048 70.1865C59.3035 68.6245 63.5756 65.7672 66.8483 61.9308C70.1209 58.0945 72.2664 53.4288 73.0471 48.4503C73.1665 49.311 73.1665 50.1849 73.2726 51.0721Z" fill="#9AF2DD"/>
</g>
<defs>
<radialGradient id="paint0_radial_6_2263" cx="0" cy="0" r="1" gradientUnits="userSpaceOnUse" gradientTransform="translate(59.3126 30.0986) scale(12.3268 12.3056)">
<stop/>
<stop offset="0.73" stop-color="#834A29"/>
<stop offset="1"/>
</radialGradient>
<radialGradient id="paint1_radial_6_2263" cx="0" cy="0" r="1" gradientUnits="userSpaceOnUse" gradientTransform="translate(59.3127 30.0986) scale(6.1634 6.15283)">
<stop offset="0.15" stop-color="white"/>
<stop offset="0.21" stop-color="#E2D7D7"/>
<stop offset="0.29" stop-color="#BBA1A0"/>
<stop offset="0.36" stop-color="#9E7978"/>
<stop offset="0.42" stop-color="#8C6160"/>
<stop offset="0.45" stop-color="#865857"/>
<stop offset="0.46" stop-color="#7F5453"/>
<stop offset="0.59" stop-color="#49302F"/>
<stop offset="0.71" stop-color="#211616"/>
<stop offset="0.8" stop-color="#090606"/>
<stop offset="0.85"/>
<stop offset="0.86" stop-color="#110804"/>
<stop offset="0.87" stop-color="#251309"/>
<stop offset="0.88" stop-color="#422211"/>
<stop offset="0.89" stop-color="#954B26"/>
<stop offset="0.9" stop-color="#A6542A"/>
<stop offset="0.92" stop-color="#7B3E1F"/>
<stop offset="0.93" stop-color="#552B15"/>
<stop offset="0.94" stop-color="#361B0E"/>
<stop offset="0.95" stop-color="#1E0F08"/>
<stop offset="0.97" stop-color="#0D0703"/>
<stop offset="0.98" stop-color="#030201"/>
<stop offset="1"/>
</radialGradient>
<radialGradient id="paint2_radial_6_2263" cx="0" cy="0" r="1" gradientUnits="userSpaceOnUse" gradientTransform="translate(59.3127 30.0986) scale(5.13867 5.12986)">
<stop offset="0.15" stop-color="white"/>
<stop offset="0.28" stop-color="#C2C2C2"/>
<stop offset="0.43" stop-color="#888888"/>
<stop offset="0.56" stop-color="#575757"/>
<stop offset="0.69" stop-color="#313131"/>
<stop offset="0.81" stop-color="#161616"/>
<stop offset="0.92" stop-color="#060606"/>
<stop offset="1"/>
</radialGradient>
</defs>
</svg>
