<svg width="228" height="219" viewBox="0 0 228 219" fill="none" xmlns="http://www.w3.org/2000/svg">
<path d="M18.6017 63.3389C19.4616 67.2947 21.3147 70.9673 23.9869 74.0118C26.6591 77.0563 30.0627 79.3728 33.8779 80.7436L113.731 109.462L60.6806 43.3345C58.145 40.1775 54.8478 37.7152 51.0982 36.1783C47.3486 34.6415 43.2694 34.0804 39.2432 34.5479C35.9239 34.9293 32.7214 36.0006 29.842 37.6928C26.9627 39.385 24.4704 41.6606 22.5258 44.373C20.5811 47.0855 19.2273 50.1745 18.5514 53.4411C17.8755 56.7077 17.8926 60.0794 18.6017 63.3389Z" fill="url(#paint0_radial_6_1460)"/>
<path d="M118.602 112.941L33.3836 82.2723C29.3033 80.8193 25.6628 78.3492 22.8077 75.0966C19.9526 71.844 17.9777 67.9169 17.0705 63.6881C15.8505 58.0676 16.5682 52.2003 19.1072 47.038C21.6462 41.8757 25.8576 37.721 31.0585 35.2477C36.2593 32.7743 42.1446 32.1274 47.76 33.4117C53.3753 34.6961 58.3914 37.8364 61.9948 42.3235L118.602 112.941ZM20.1932 63.002C20.9864 66.6917 22.7109 70.1178 25.203 72.9553C27.695 75.7928 30.872 77.9475 34.4325 79.215L108.848 105.936L59.4146 44.3095C56.2691 40.3969 51.8924 37.6593 46.9936 36.5404C42.0948 35.4215 36.961 35.9868 32.4243 38.1447C27.8876 40.3026 24.2137 43.9267 21.9981 48.4297C19.7825 52.9326 19.155 58.0504 20.2173 62.9539L20.1932 63.002Z" fill="url(#paint1_linear_6_1460)"/>
<path d="M208.849 155.586C207.991 151.631 206.14 147.959 203.47 144.914C200.8 141.87 197.398 139.553 193.585 138.181L113.731 109.462L166.782 175.591C169.318 178.747 172.616 181.208 176.365 182.745C180.114 184.282 184.193 184.844 188.219 184.377C191.538 183.994 194.739 182.922 197.617 181.229C200.495 179.536 202.985 177.26 204.929 174.548C206.872 171.836 208.225 168.747 208.9 165.481C209.575 162.216 209.558 158.845 208.849 155.586Z" fill="url(#paint2_radial_6_1460)"/>
<path d="M185.615 186.17C181.759 186.204 177.946 185.359 174.465 183.701C170.984 182.043 167.928 179.615 165.528 176.602L108.86 105.984L194.139 136.653C198.223 138.112 201.865 140.59 204.719 143.851C207.572 147.113 209.542 151.049 210.441 155.285C211.196 158.764 211.215 162.363 210.494 165.849C209.773 169.336 208.33 172.634 206.256 175.53C204.183 178.426 201.525 180.858 198.454 182.667C195.383 184.477 191.967 185.625 188.424 186.038C187.491 186.13 186.553 186.174 185.615 186.17ZM118.602 112.941L168.036 174.567C171.176 178.492 175.554 181.241 180.457 182.367C185.361 183.492 190.502 182.929 195.044 180.769C199.586 178.608 203.263 174.977 205.476 170.466C207.689 165.956 208.308 160.83 207.233 155.923C206.443 152.234 204.722 148.807 202.231 145.97C199.741 143.132 196.566 140.977 193.006 139.71L118.602 112.941Z" fill="url(#paint3_linear_6_1460)"/>
<path d="M63.9238 16.3366C62.2926 20.0408 61.6305 24.0979 61.9996 28.1274C62.3686 32.1569 63.7568 36.0269 66.0338 39.3744L113.731 109.462L109.728 24.8223C109.536 20.7804 108.319 16.8535 106.191 13.4094C104.063 9.96527 101.094 7.11678 97.5629 5.13072C94.6514 3.49622 91.4295 2.48823 88.1043 2.17157C84.7792 1.85491 81.4244 2.23663 78.2559 3.29213C75.0874 4.34762 72.1753 6.05352 69.707 8.30013C67.2386 10.5467 65.2687 13.2843 63.9238 16.3366Z" fill="url(#paint4_radial_6_1460)"/>
<path d="M115.624 115.144L64.7316 40.2894C62.277 36.7206 60.7779 32.5842 60.377 28.2737C59.976 23.9632 60.6865 19.6219 62.4408 15.6629C64.7658 10.4046 68.801 6.08392 73.8928 3.40081C78.9846 0.717705 84.8347 -0.170664 90.4953 0.879586C96.156 1.92984 101.296 4.8572 105.082 9.18746C108.868 13.5177 111.079 18.9972 111.356 24.7383L115.624 115.144ZM65.4189 16.9869C63.8868 20.4367 63.2631 24.2202 63.607 27.9783C63.951 31.7363 65.2512 35.3443 67.3842 38.4599L111.826 103.782L108.137 24.9069C107.972 21.1365 106.844 17.4709 104.86 14.2583C102.877 11.0456 100.103 8.39263 96.8032 6.55133C94.0908 5.02638 91.0886 4.08546 87.9898 3.78907C84.891 3.49268 81.7644 3.84744 78.8114 4.8305C75.8583 5.81357 73.1442 7.40309 70.8438 9.49682C68.5434 11.5905 66.7078 14.142 65.455 16.9869H65.4189Z" fill="url(#paint5_linear_6_1460)"/>
<path d="M163.527 202.588C165.163 198.885 165.829 194.827 165.459 190.796C165.09 186.766 163.699 182.896 161.417 179.55L113.731 109.462L117.782 194.09C117.977 198.135 119.197 202.064 121.327 205.509C123.456 208.955 126.427 211.806 129.96 213.794C132.868 215.418 136.084 216.418 139.401 216.729C142.719 217.04 146.065 216.656 149.225 215.601C152.386 214.546 155.29 212.843 157.753 210.602C160.216 208.362 162.182 205.632 163.527 202.588Z" fill="url(#paint6_radial_6_1460)"/>
<path d="M141.896 218.476C135.293 218.53 128.925 216.03 124.128 211.499C119.331 206.969 116.478 200.76 116.167 194.175L111.886 103.781L162.827 178.636C165.274 182.206 166.765 186.342 167.16 190.65C167.555 194.959 166.839 199.296 165.082 203.25C163.101 207.751 159.858 211.584 155.744 214.286C151.63 216.988 146.821 218.443 141.896 218.476ZM115.684 115.144L119.41 194.018C119.648 199.032 121.576 203.817 124.88 207.6C128.185 211.382 132.672 213.939 137.615 214.856C142.558 215.773 147.666 214.996 152.111 212.651C156.556 210.306 160.077 206.531 162.104 201.938C163.636 198.488 164.26 194.705 163.916 190.947C163.572 187.189 162.271 183.581 160.138 180.465L115.684 115.144Z" fill="url(#paint7_linear_6_1460)"/>
<path d="M128.272 4.89C124.77 6.93036 121.844 9.82524 119.769 13.3032C117.693 16.7811 116.537 20.7281 116.408 24.7742L113.731 109.462L160.319 38.6402C162.549 35.2588 163.88 31.3669 164.188 27.3305C164.496 23.2941 163.77 19.2457 162.08 15.5663C160.685 12.5372 158.672 9.83279 156.169 7.62663C153.665 5.42046 150.727 3.76135 147.544 2.75593C144.36 1.75052 141.001 1.42103 137.682 1.78855C134.363 2.15608 131.158 3.21248 128.272 4.89Z" fill="url(#paint8_radial_6_1460)"/>
<path d="M111.923 115.168L114.78 24.7262C114.903 20.7846 115.939 16.925 117.807 13.4503C119.675 9.97558 122.324 6.98043 125.547 4.69986C128.769 2.4193 132.478 0.915395 136.381 0.306258C140.283 -0.30288 144.275 -0.000697624 148.041 1.18908C151.807 2.37885 155.246 4.42381 158.087 7.16349C160.928 9.90317 163.095 13.263 164.416 16.9792C165.738 20.6954 166.179 24.6668 165.705 28.5818C165.23 32.4967 163.853 36.2487 161.682 39.543L111.923 115.168ZM140.16 3.22918C136.27 3.25207 132.453 4.29382 129.092 6.25033C125.82 8.14093 123.087 10.8353 121.152 14.0774C119.216 17.3196 118.144 21.0019 118.036 24.7744L115.54 103.709L158.945 37.7014C161.17 34.3347 162.435 30.4271 162.606 26.3973C162.776 22.3675 161.845 18.3673 159.913 14.8253C157.98 11.2833 155.119 8.33289 151.635 6.29014C148.151 4.2474 144.176 3.18929 140.136 3.22918H140.16Z" fill="url(#paint9_linear_6_1460)"/>
<path d="M99.1907 214.023C102.692 211.985 105.617 209.092 107.69 205.616C109.764 202.14 110.917 198.194 111.043 194.15L113.731 109.462L67.1432 180.285C64.9179 183.668 63.59 187.56 63.2842 191.596C62.9784 195.632 63.7047 199.679 65.3949 203.358C66.789 206.386 68.8021 209.089 71.3049 211.294C73.8076 213.499 76.7447 215.157 79.9274 216.161C83.1101 217.165 86.4681 217.494 89.7856 217.125C93.1031 216.757 96.3067 215.7 99.1907 214.023Z" fill="url(#paint10_radial_6_1460)"/>
<path d="M87.3143 218.897C84.6385 218.917 81.9767 218.511 79.429 217.694C75.6624 216.507 72.2227 214.466 69.3798 211.728C66.537 208.991 64.3686 205.633 63.0448 201.919C61.7211 198.204 61.2781 194.233 61.7507 190.319C62.2233 186.404 63.5985 182.652 65.7684 179.358L115.54 103.733L112.67 194.175C112.468 200.761 109.717 207.013 104.996 211.618C100.275 216.223 93.9509 218.824 87.3505 218.873L87.3143 218.897ZM111.923 115.168L68.5175 181.175C66.6265 184.049 65.4276 187.32 65.0148 190.733C64.6019 194.146 64.9863 197.608 66.1378 200.848C67.2893 204.088 69.1767 207.018 71.6521 209.408C74.1275 211.798 77.1235 213.584 80.4056 214.624C83.3746 215.557 86.5058 215.861 89.5992 215.517C92.6925 215.173 95.6799 214.188 98.3706 212.626C101.642 210.732 104.375 208.035 106.309 204.791C108.244 201.548 109.317 197.864 109.427 194.09L111.923 115.168Z" fill="url(#paint11_linear_6_1460)"/>
<path d="M187.062 33.4042C183.027 32.9953 178.954 33.6182 175.227 35.2143C171.5 36.8105 168.241 39.3273 165.757 42.5279L113.731 109.462L193.127 79.5158C196.917 78.0809 200.282 75.7096 202.905 72.6236C205.528 69.5377 207.324 65.8379 208.125 61.8704C208.783 58.6021 208.749 55.2324 208.023 51.9783C207.298 48.7243 205.898 45.6579 203.914 42.9764C201.93 40.295 199.405 38.058 196.503 36.4094C193.601 34.7608 190.385 33.7371 187.062 33.4042Z" fill="url(#paint12_radial_6_1460)"/>
<path d="M108.908 113.013L164.479 41.5291C167.123 38.1008 170.601 35.4051 174.584 33.6985C178.566 31.9919 182.92 31.3314 187.231 31.7796C192.964 32.3521 198.336 34.8417 202.474 38.8446C206.612 42.8475 209.274 48.1287 210.028 53.8316C210.782 59.5344 209.583 65.3243 206.627 70.2618C203.671 75.1993 199.13 78.9947 193.741 81.0324L108.908 113.013ZM184.445 34.9211C181.081 34.9472 177.766 35.7366 174.752 37.2296C171.738 38.7226 169.103 40.8802 167.047 43.5391L118.554 105.936L192.536 77.9873C197.242 76.216 201.209 72.9083 203.794 68.6016C206.379 64.2948 207.429 59.242 206.774 54.2641C206.119 49.2863 203.797 44.6758 200.186 41.1816C196.574 37.6875 191.885 35.5152 186.881 35.0174C186.071 34.944 185.258 34.9119 184.445 34.9211Z" fill="url(#paint13_linear_6_1460)"/>
<path d="M40.4007 185.521C44.4336 185.928 48.5039 185.304 52.2288 183.708C55.9536 182.111 59.2106 179.596 61.6933 176.397L113.731 109.462L34.336 139.409C30.5427 140.84 27.1761 143.21 24.5524 146.297C21.9287 149.383 20.134 153.085 19.3371 157.054C18.6791 160.323 18.7139 163.692 19.4392 166.947C20.1645 170.201 21.5643 173.267 23.5484 175.948C25.5325 178.63 28.0571 180.867 30.9595 182.516C33.862 184.164 37.078 185.188 40.4007 185.521Z" fill="url(#paint14_radial_6_1460)"/>
<path d="M43.0291 187.266C42.0912 187.273 41.1536 187.233 40.2198 187.145C34.4887 186.567 29.1214 184.072 24.9882 180.067C20.855 176.061 18.1983 170.78 17.4488 165.078C16.6993 159.376 17.9009 153.589 20.8589 148.655C23.8169 143.72 28.3577 139.928 33.7452 137.892L118.554 105.936L62.9834 177.432C60.6272 180.48 57.6047 182.95 54.1464 184.655C50.6882 186.359 46.8857 187.252 43.0291 187.266ZM108.896 113.013L34.9027 140.938C30.1971 142.708 26.2294 146.015 23.644 150.32C21.0585 154.626 20.0073 159.678 20.6609 164.656C21.3145 169.633 23.6346 174.244 27.2444 177.739C30.8542 181.234 35.5417 183.408 40.5453 183.908C44.3061 184.295 48.1036 183.717 51.5785 182.23C55.0533 180.743 58.0907 178.396 60.4032 175.41L108.896 113.013Z" fill="url(#paint15_linear_6_1460)"/>
<path d="M217.855 90.9624C214.831 88.2658 211.17 86.3806 207.215 85.4837C203.261 84.5868 199.143 84.7076 195.249 85.8348L113.743 109.463L195.61 131.814C199.515 132.889 203.629 132.955 207.566 132.008C211.504 131.061 215.135 129.13 218.121 126.398C220.586 124.141 222.549 121.392 223.884 118.33C225.219 115.268 225.896 111.961 225.871 108.621C225.846 105.282 225.12 101.985 223.739 98.9433C222.358 95.9016 220.354 93.1828 217.855 90.9624Z" fill="url(#paint16_radial_6_1460)"/>
<path d="M202.181 134.306C199.816 134.316 197.46 134.008 195.176 133.391L107.727 109.547L194.778 84.2703C198.281 83.2632 201.958 83.0154 205.564 83.5437C209.17 84.072 212.622 85.364 215.686 87.3331C218.751 89.3023 221.359 91.9029 223.334 94.9607C225.31 98.0184 226.607 101.463 227.14 105.062C227.672 108.661 227.428 112.333 226.422 115.83C225.417 119.328 223.673 122.57 221.31 125.339C218.946 128.109 216.016 130.342 212.717 131.888C209.418 133.435 205.826 134.259 202.181 134.306ZM119.736 109.414L196.032 130.249C200.881 131.57 206.034 131.218 210.657 129.249C215.28 127.28 219.101 123.811 221.502 119.403C223.902 114.995 224.741 109.906 223.882 104.963C223.023 100.019 220.517 95.51 216.77 92.1661C213.963 89.6358 210.553 87.865 206.866 87.0222C203.179 86.1795 199.337 86.2929 195.707 87.3516L119.736 109.414Z" fill="url(#paint17_linear_6_1460)"/>
<path d="M9.61917 127.963C12.638 130.652 16.291 132.533 20.2362 133.43C24.1815 134.327 28.2901 134.21 32.1778 133.09L113.683 109.463L31.8161 87.1109C27.9058 86.0405 23.7871 85.9805 19.8472 86.9364C15.9073 87.8923 12.2756 89.8329 9.29365 92.5755C6.84019 94.8366 4.88811 97.5855 3.56303 100.645C2.23795 103.705 1.56922 107.008 1.59989 110.341C1.63055 113.674 2.35991 116.964 3.74106 119.999C5.12221 123.034 7.12453 125.747 9.61917 127.963Z" fill="url(#paint18_radial_6_1460)"/>
<path d="M25.6911 135.666C22.0419 135.684 18.431 134.923 15.1012 133.432C11.7715 131.941 8.80008 129.756 6.38686 127.023C3.97364 124.29 2.17455 121.073 1.11056 117.589C0.0465833 114.104 -0.257627 110.432 0.218414 106.82C0.694455 103.208 1.93971 99.7399 3.87041 96.6485C5.80112 93.5571 8.37252 90.9142 11.4117 88.8976C14.4509 86.881 17.8873 85.5375 21.49 84.9573C25.0927 84.3771 28.7781 84.5737 32.2983 85.534L119.724 109.414L32.6721 134.691C30.402 135.339 28.0522 135.667 25.6911 135.666ZM25.3294 87.869C20.8302 87.9188 16.451 89.325 12.7665 91.9032C9.08205 94.4814 6.26424 98.1113 4.68279 102.316C3.10134 106.522 2.8301 111.106 3.90467 115.468C4.97923 119.83 7.34941 123.765 10.7043 126.759C13.5118 129.289 16.9214 131.06 20.6084 131.903C24.2954 132.745 28.1371 132.632 31.7678 131.573L107.727 109.559L31.4302 88.7237C29.4447 88.1658 27.392 87.8823 25.3294 87.8811V87.869Z" fill="url(#paint19_linear_6_1460)"/>
<path d="M74.6304 189.83C77.9815 189.106 81.0936 187.545 83.6749 185.292C86.2562 183.04 88.2221 180.169 89.3882 176.951L113.731 109.487L57.6663 154.322C55.0015 156.468 52.9249 159.252 51.6303 162.416C50.3357 165.579 49.8654 169.019 50.2633 172.413C50.59 175.211 51.4992 177.91 52.9325 180.337C54.3657 182.764 56.2914 184.865 58.5859 186.505C60.8804 188.145 63.493 189.288 66.2561 189.86C69.0192 190.433 71.8716 190.422 74.6304 189.83Z" fill="url(#paint20_radial_6_1460)"/>
<path d="M70.519 191.912C65.971 191.953 61.5235 190.577 57.7953 187.976C54.0672 185.376 51.2439 181.679 49.7184 177.402C48.1929 173.125 48.0411 168.479 49.2841 164.111C50.5271 159.744 53.103 155.872 56.6535 153.034L117.216 104.588L90.9194 177.48C89.6729 180.967 87.5522 184.076 84.7597 186.512C81.9673 188.948 78.5962 190.629 74.968 191.394C73.5072 191.722 72.0161 191.895 70.519 191.912ZM110.235 114.361L58.7032 155.562C55.4197 158.179 53.1196 161.828 52.1769 165.915C51.2342 170.003 51.7044 174.289 53.511 178.076C55.3176 181.863 58.3544 184.928 62.1275 186.774C65.9006 188.619 70.1881 189.136 74.2928 188.241C77.3813 187.581 80.2497 186.145 82.6257 184.068C85.0018 181.991 86.8067 179.342 87.869 176.373L110.235 114.361Z" fill="url(#paint21_linear_6_1460)"/>
<path d="M152.832 29.0953C149.477 29.8178 146.361 31.3816 143.779 33.6391C141.197 35.8966 139.234 38.7735 138.074 41.9984L113.731 109.402L169.784 64.5666C172.453 62.4298 174.536 59.6539 175.841 56.4972C177.146 53.3405 177.63 49.9055 177.247 46.512C176.922 43.7087 176.011 41.0047 174.575 38.574C173.139 36.1434 171.208 34.0399 168.908 32.3992C166.608 30.7585 163.989 29.6168 161.221 29.0478C158.452 28.4787 155.594 28.4949 152.832 29.0953Z" fill="url(#paint22_radial_6_1460)"/>
<path d="M110.235 114.362L136.543 41.4688C137.785 37.9793 139.902 34.8658 142.693 32.4257C145.483 29.9856 148.854 28.3002 152.482 27.5306C157.3 26.4818 162.331 27.0889 166.759 29.2532C171.188 31.4176 174.754 35.0122 176.879 39.454C179.004 43.8958 179.563 48.924 178.465 53.7229C177.368 58.5217 174.678 62.8096 170.833 65.8907L110.235 114.362ZM153.17 30.6961C150.082 31.3585 147.215 32.7976 144.841 34.8767C142.467 36.9559 140.665 39.6062 139.606 42.5761L117.216 104.612L168.771 63.3752C171.02 61.5812 172.821 59.291 174.032 56.6846C175.244 54.0782 175.833 51.2267 175.753 48.3544C175.674 45.4822 174.928 42.6676 173.574 40.1319C172.22 37.5962 170.296 35.4087 167.952 33.7414C165.834 32.2377 163.426 31.1903 160.882 30.666C158.337 30.1418 155.71 30.152 153.17 30.6961Z" fill="url(#paint23_linear_6_1460)"/>
<path d="M34.7702 151.542C37.9124 152.922 41.3542 153.482 44.7728 153.17C48.1913 152.859 51.4745 151.685 54.3146 149.761L113.731 109.462L41.9803 112.845C38.5522 113.005 35.2212 114.032 32.3001 115.83C29.3791 117.628 26.9638 120.138 25.2813 123.124C23.8959 125.583 23.0412 128.304 22.7723 131.113C22.5034 133.921 22.8262 136.755 23.7199 139.431C24.6136 142.108 26.0584 144.568 27.9615 146.654C29.8646 148.74 32.1839 150.405 34.7702 151.542Z" fill="url(#paint24_radial_6_1460)"/>
<path d="M43.1256 154.888C40.0248 154.912 36.9544 154.276 34.1191 153.022C29.6018 151.042 25.8878 147.596 23.5803 143.243C21.2727 138.89 20.5072 133.886 21.408 129.043C22.3088 124.201 24.8231 119.805 28.5424 116.57C32.2618 113.334 36.9677 111.449 41.8958 111.22L119.422 107.609L55.2188 151.132C51.6514 153.557 47.4411 154.864 43.1256 154.888ZM35.4333 150.073C38.3189 151.353 41.4846 151.874 44.6291 151.588C47.7735 151.301 50.7923 150.216 53.3982 148.436L108.041 111.376L42.0526 114.494C37.8583 114.689 33.8532 116.294 30.6879 119.048C27.5225 121.802 25.3826 125.543 24.6159 129.664C23.8492 133.785 24.5006 138.044 26.4644 141.749C28.4281 145.454 31.5889 148.388 35.4333 150.073Z" fill="url(#paint25_linear_6_1460)"/>
<path d="M192.68 67.4193C189.54 66.0407 186.1 65.4809 182.684 65.7925C179.267 66.1041 175.986 67.2768 173.148 69.2006L113.731 109.499L185.482 106.116C188.913 105.952 192.246 104.918 195.168 103.114C198.089 101.31 200.502 98.7931 202.181 95.8012C203.56 93.3429 204.409 90.624 204.674 87.819C204.939 85.0139 204.614 82.1846 203.719 79.5124C202.824 76.8401 201.38 74.384 199.479 72.3015C197.579 70.219 195.263 68.5561 192.68 67.4193Z" fill="url(#paint26_radial_6_1460)"/>
<path d="M108.04 111.352L172.232 67.8167C175.293 65.7223 178.842 64.4465 182.538 64.1115C186.234 63.7764 189.954 64.3932 193.344 65.9029C197.851 67.8915 201.555 71.3409 203.854 75.6924C206.153 80.0439 206.914 85.0428 206.012 89.8796C205.111 94.7164 202.601 99.1079 198.888 102.343C195.175 105.578 190.477 107.467 185.555 107.705L108.04 111.352ZM184.361 67.2871C180.684 67.3144 177.098 68.4377 174.064 70.5128L119.422 107.573L185.41 104.455C190.272 104.21 194.845 102.074 198.149 98.5047C201.453 94.9357 203.226 90.2172 203.089 85.3592C202.952 80.5013 200.916 75.8899 197.415 72.5122C193.915 69.1346 189.229 67.2591 184.361 67.2871Z" fill="url(#paint27_linear_6_1460)"/>
<path d="M25.0763 97.1731C26.8088 100.135 29.2666 102.609 32.2191 104.363C35.1716 106.116 38.5221 107.093 41.956 107.2L113.755 109.462L53.7116 70.0911C50.8412 68.2069 47.5375 67.0834 44.1118 66.8265C40.6861 66.5696 37.2512 67.1877 34.1311 68.6227C31.5636 69.7993 29.271 71.4992 27.4007 73.6129C25.5304 75.7267 24.1237 78.2076 23.271 80.8964C22.4182 83.5851 22.1383 86.4222 22.4492 89.2254C22.7601 92.0285 23.655 94.7357 25.0763 97.1731Z" fill="url(#paint28_radial_6_1460)"/>
<path d="M119.446 111.268L41.8836 108.861C38.1724 108.762 34.5487 107.714 31.3591 105.817C28.1694 103.921 25.5205 101.239 23.6655 98.0283C21.1837 93.7743 20.214 88.8082 20.9134 83.935C21.6129 79.0619 23.9405 74.5674 27.519 71.1803C31.0975 67.7932 35.7171 65.712 40.6288 65.274C45.5406 64.8361 50.4565 66.0671 54.5796 68.7675L119.446 111.268ZM42.4503 68.3823C39.1903 68.4087 35.9943 69.2888 33.1818 70.9345C30.3692 72.5802 28.0385 74.9341 26.4226 77.7607C24.8067 80.5874 23.9622 83.7879 23.9735 87.0424C23.9848 90.297 24.8514 93.4916 26.4869 96.3071C28.0663 99.0363 30.3193 101.316 33.0313 102.93C35.7433 104.544 38.824 105.438 41.9801 105.527L108.004 107.609L52.7952 71.4516C49.7258 69.4319 46.1264 68.364 42.4503 68.3823Z" fill="url(#paint29_linear_6_1460)"/>
<path d="M202.374 121.752C200.646 118.786 198.189 116.309 195.236 114.555C192.282 112.801 188.93 111.827 185.494 111.725L113.695 109.462L173.727 148.834C176.597 150.712 179.898 151.834 183.32 152.092C186.742 152.351 190.174 151.74 193.295 150.314C195.867 149.14 198.163 147.441 200.037 145.328C201.911 143.214 203.321 140.732 204.176 138.042C205.031 135.351 205.313 132.512 205.002 129.706C204.692 126.901 203.797 124.191 202.374 121.752Z" fill="url(#paint30_radial_6_1460)"/>
<path d="M185.036 153.793C180.712 153.819 176.478 152.562 172.871 150.182L108.004 107.645L185.579 110.052C189.288 110.154 192.909 111.203 196.097 113.099C199.284 114.996 201.931 117.676 203.785 120.885C205.708 124.195 206.728 127.951 206.743 131.778C206.758 135.605 205.767 139.368 203.87 142.694C201.973 146.019 199.235 148.789 195.931 150.728C192.626 152.667 188.87 153.707 185.036 153.744V153.793ZM119.446 111.268L174.667 147.474C178.177 149.767 182.359 150.811 186.537 150.436C190.715 150.062 194.644 148.29 197.688 145.409C200.732 142.528 202.712 138.705 203.309 134.56C203.906 130.415 203.084 126.191 200.976 122.57C199.393 119.842 197.137 117.562 194.423 115.949C191.71 114.335 188.628 113.441 185.471 113.35L119.446 111.268Z" fill="url(#paint31_linear_6_1460)"/>
<path d="M49.2386 47.4991C48.887 50.9171 49.4132 54.3681 50.7675 57.5268C52.1217 60.6856 54.2595 63.448 56.9792 65.5537L113.731 109.511L88.3394 42.3837C87.1244 39.1791 85.1141 36.3351 82.497 34.1182C79.8799 31.9013 76.7417 30.3843 73.3767 29.7093C70.6062 29.1543 67.75 29.1842 64.9917 29.7969C62.2334 30.4096 59.634 31.5917 57.3607 33.2671C55.0873 34.9426 53.1903 37.0743 51.7915 39.5254C50.3927 41.9764 49.5231 44.6926 49.2386 47.4991Z" fill="url(#paint32_radial_6_1460)"/>
<path d="M117.288 114.277L55.9784 66.7813C53.0376 64.5242 50.7255 61.5522 49.2627 58.1491C47.8 54.7461 47.2354 51.0255 47.6229 47.3426C48.1357 42.4606 50.2805 37.8932 53.7116 34.377C57.1428 30.8607 61.6601 28.6006 66.5354 27.961C71.4107 27.3213 76.3597 28.3394 80.5844 30.8512C84.8091 33.3629 88.0633 37.2219 89.8223 41.8058L117.288 114.277ZM50.8662 47.6676C50.5392 50.8029 51.0212 53.9696 52.2663 56.8664C53.5115 59.7633 55.4783 62.294 57.9798 64.2177L110.162 104.648L86.8081 42.9613C85.3265 39.0394 82.5603 35.7326 78.9587 33.578C75.3571 31.4235 71.1317 30.5476 66.9686 31.0927C62.8055 31.6378 58.9492 33.5719 56.0261 36.5808C53.1029 39.5898 51.2845 43.4969 50.8662 47.6676Z" fill="url(#paint33_linear_6_1460)"/>
<path d="M178.212 171.426C178.565 168.009 178.041 164.559 176.688 161.4C175.336 158.241 173.201 155.478 170.483 153.371L113.731 109.414L139.123 176.493C140.335 179.697 142.343 182.541 144.958 184.758C147.573 186.975 150.71 188.493 154.074 189.167C156.841 189.724 159.694 189.697 162.45 189.088C165.206 188.479 167.804 187.301 170.077 185.631C172.35 183.96 174.248 181.833 175.649 179.387C177.05 176.941 177.923 174.229 178.212 171.426Z" fill="url(#paint34_radial_6_1460)"/>
<path d="M158.222 191.238C156.723 191.25 155.228 191.105 153.761 190.805C150.118 190.094 146.719 188.463 143.889 186.067C141.058 183.671 138.89 180.59 137.592 177.119L110.162 104.648L171.472 152.144C174.41 154.404 176.721 157.376 178.185 160.778C179.649 164.18 180.219 167.899 179.84 171.582C179.296 176.942 176.789 181.913 172.799 185.541C168.809 189.168 163.618 191.197 158.222 191.238ZM117.228 114.277L140.691 175.964C141.706 178.654 143.331 181.072 145.44 183.029C147.549 184.986 150.083 186.428 152.845 187.243C155.606 188.057 158.519 188.221 161.354 187.723C164.19 187.224 166.871 186.076 169.187 184.369C171.504 182.662 173.392 180.442 174.704 177.884C176.016 175.325 176.717 172.498 176.75 169.624C176.783 166.75 176.149 163.907 174.896 161.319C173.644 158.731 171.807 156.468 169.531 154.707L117.228 114.277Z" fill="url(#paint35_linear_6_1460)"/>
<path d="M98.045 21.5004C95.7569 24.0523 94.1576 27.1441 93.3982 30.4841C92.6388 33.8241 92.7442 37.3021 93.7045 40.5901L113.731 109.462L132.685 40.2892C133.587 36.9843 133.634 33.5049 132.822 30.1768C132.01 26.8486 130.366 23.7806 128.043 21.2597C126.128 19.1849 123.8 17.5331 121.208 16.4108C118.615 15.2884 115.816 14.7203 112.99 14.743C110.165 14.7656 107.375 15.3786 104.801 16.5424C102.227 17.7062 99.9258 19.3951 98.045 21.5004Z" fill="url(#paint36_radial_6_1460)"/>
<path d="M113.779 115.445L92.1372 41.0475C91.0985 37.5039 90.9841 33.7541 91.8049 30.154C92.6258 26.5539 94.3546 23.2229 96.8274 20.4772C100.116 16.8246 104.542 14.3855 109.391 13.554C114.239 12.7225 119.227 13.5472 123.548 15.8947C127.869 18.2423 131.272 21.9756 133.205 26.4916C135.139 31.0075 135.49 36.0424 134.204 40.7827L113.779 115.445ZM112.96 16.3728C110.359 16.3929 107.792 16.9558 105.423 18.0254C103.054 19.0951 100.935 20.6477 99.2026 22.5836C97.0941 24.9291 95.6209 27.7734 94.9224 30.8468C94.224 33.9201 94.3236 37.1206 95.2117 40.1448L113.683 103.529L131.117 39.9281C131.875 37.1597 131.98 34.254 131.425 31.4383C130.87 28.6226 129.67 25.9733 127.918 23.6978C126.167 21.4224 123.911 19.5825 121.329 18.3222C118.746 17.0618 115.907 16.4152 113.032 16.433L112.96 16.3728Z" fill="url(#paint37_linear_6_1460)"/>
<path d="M129.417 197.413C131.702 194.856 133.298 191.762 134.057 188.421C134.817 185.08 134.714 181.601 133.758 178.311L113.731 109.45L94.7777 178.636C93.8707 181.939 93.8197 185.419 94.6295 188.748C95.4394 192.077 97.0836 195.145 99.4076 197.665C101.324 199.74 103.654 201.391 106.248 202.512C108.842 203.634 111.642 204.201 114.469 204.177C117.295 204.153 120.086 203.539 122.66 202.374C125.235 201.209 127.536 199.519 129.417 197.413Z" fill="url(#paint38_radial_6_1460)"/>
<path d="M114.479 205.838C111.09 205.868 107.74 205.111 104.694 203.628C101.648 202.145 98.9883 199.976 96.9251 197.292C94.8618 194.608 93.4512 191.482 92.8045 188.161C92.1577 184.84 92.2926 181.414 93.1983 178.154L113.695 103.42L135.338 177.829C136.297 181.076 136.486 184.501 135.892 187.833C135.297 191.166 133.934 194.314 131.911 197.031C129.888 199.747 127.26 201.957 124.235 203.486C121.21 205.014 117.87 205.819 114.479 205.838ZM113.78 115.481L96.3452 179.093C95.2313 183.137 95.5203 187.438 97.1651 191.297C98.8099 195.156 101.714 198.346 105.405 200.349C109.096 202.352 113.357 203.049 117.496 202.328C121.634 201.607 125.407 199.51 128.2 196.377C130.329 194.036 131.819 191.188 132.529 188.107C133.238 185.026 133.143 181.814 132.251 178.78L113.78 115.481Z" fill="url(#paint39_linear_6_1460)"/>
<path d="M188.533 108.885L174.402 128.624L174.583 152.89L151.53 160.569L137.399 180.309L114.226 172.991L91.1607 180.67L76.7164 161.147L53.5429 153.829L53.3499 129.563L38.9177 110.04L53.0485 90.3005L52.8677 66.0351L75.9206 58.3559L90.0514 38.6163L113.225 45.9344L136.29 38.2551L150.722 57.7781L173.908 65.0964L174.089 89.3617L188.533 108.885Z" fill="url(#paint40_radial_6_1460)"/>
<path d="M90.5577 182.584L75.7276 162.507L51.9271 154.996L51.7342 130.081L36.9041 110.028L51.3724 89.759L51.1795 64.8436L74.8595 56.9597L89.3279 36.6904L113.128 44.2012L136.796 36.3173L151.626 56.3579L175.427 63.8807L175.62 88.7961L190.45 108.837L175.981 129.118L176.174 154.033L152.507 161.917L138.038 182.187L114.238 174.676L90.5577 182.584ZM114.165 171.282L136.712 178.407L150.469 159.149L172.955 151.674L172.774 128.059L186.519 108.801L172.473 89.8071L172.292 66.1916L149.733 59.0661L135.687 40.0727L113.249 47.5473L90.6903 40.4217L76.9453 59.68L54.5073 67.1546L54.6881 90.77L40.9311 110.028L54.9895 129.022L55.1704 152.637L77.717 159.763L91.7754 178.756L114.165 171.282Z" fill="url(#paint41_linear_6_1460)"/>
<path d="M188.596 107.221L38.9858 108.394L39.0114 111.644L188.622 110.471L188.596 107.221Z" fill="url(#paint42_linear_6_1460)"/>
<path d="M53.7848 64.8034L51.8916 67.4471L173.614 154.315L175.508 151.671L53.7848 64.8034Z" fill="url(#paint43_linear_6_1460)"/>
<path d="M172.88 63.857L52.5391 152.623L54.4736 155.236L174.815 66.4708L172.88 63.857Z" fill="url(#paint44_linear_6_1460)"/>
<path d="M91.6689 38.0424L88.5808 39.0709L135.931 180.754L139.019 179.725L91.6689 38.0424Z" fill="url(#paint45_linear_6_1460)"/>
<path d="M134.69 37.6945L89.6497 180.126L92.754 181.104L137.794 38.6728L134.69 37.6945Z" fill="url(#paint46_linear_6_1460)"/>
<path d="M113.237 46.6202L129.876 58.4881L150.336 58.3316L156.811 77.6983L173.449 89.5783L167.276 109.053L173.751 128.42L157.293 140.552L151.132 160.027L130.671 160.184L114.213 172.317L97.5748 160.437L77.1141 160.593L70.6395 141.227L54.0009 129.346L60.1741 109.884L53.6995 90.5051L70.1572 78.3723L76.3183 58.9095L96.7791 58.753L113.237 46.6202Z" fill="url(#paint47_radial_6_1460)"/>
<path d="M114.238 174.254L97.0686 162.013L75.9809 162.182L69.3134 142.213L52.1563 130.009L58.5103 109.944L51.8428 89.9633L68.807 77.4575L75.1731 57.3807L96.2608 57.2243L113.225 44.7064L130.382 56.9595L151.47 56.791L158.149 76.7594L175.306 89.0125L168.94 109.077L175.62 129.058L158.644 141.563L152.29 161.64L131.202 161.797L114.238 174.254ZM78.2597 159.004L98.0814 158.86L114.165 170.367L130.117 158.607L149.939 158.451L155.943 139.638L171.894 127.878L165.625 109.101L171.653 90.2402L155.521 78.7334L149.251 59.9565L129.43 60.113L113.297 48.6062L97.2856 60.3176L77.4639 60.4741L71.4354 79.3352L55.484 91.0947L61.7657 109.86L55.7372 128.733L71.9659 140.239L78.2597 159.004Z" fill="url(#paint48_linear_6_1460)"/>
<path d="M114.883 46.5805L111.724 46.6052L112.713 172.309L115.872 172.285L114.883 46.5805Z" fill="url(#paint49_linear_6_1460)"/>
<path d="M149.048 57.5094L75.7878 159.739L78.357 161.573L151.617 59.3442L149.048 57.5094Z" fill="url(#paint50_linear_6_1460)"/>
<path d="M77.6452 57.899L75.1042 59.7726L149.911 160.88L152.452 159.006L77.6452 57.899Z" fill="url(#paint51_linear_6_1460)"/>
<path d="M172.943 88.1161L53.4832 127.834L54.4813 130.826L173.941 91.1081L172.943 88.1161Z" fill="url(#paint52_linear_6_1460)"/>
<path d="M54.1681 88.9108L53.2156 91.9176L173.266 129.82L174.219 126.813L54.1681 88.9108Z" fill="url(#paint53_linear_6_1460)"/>
<path d="M113.502 81.4899L120.917 86.7737L130.02 86.7136L132.902 95.3317L140.305 100.616L137.556 109.282L140.437 117.9L133.119 123.304L130.37 131.97L121.267 132.031L113.936 137.435L106.533 132.151L97.4301 132.223L94.5485 123.593L87.1455 118.309L89.8945 109.655L87.0129 101.025L94.3315 95.6326L97.0805 86.9663L106.184 86.8942L113.502 81.4899Z" fill="url(#paint54_radial_6_1460)"/>
<path d="M113.96 139.445L106.027 133.776L96.2608 133.848L93.1742 124.616L85.2287 118.947L88.1706 109.655L85.084 100.423L92.9331 94.6337L95.875 85.3416L105.629 85.2694L113.478 79.4799L121.424 85.149L131.178 85.0767L134.264 94.3087L142.21 99.9778L139.256 109.258L142.355 118.502L134.494 124.291L131.564 133.62L121.81 133.692L113.96 139.445ZM98.6119 130.586L107.052 130.514L113.924 135.425L120.724 130.418L129.164 130.346L131.72 122.305L138.509 117.286L135.868 109.294L138.412 101.242L131.528 96.3067L128.851 88.3025L120.411 88.3747L113.538 83.4639L106.738 88.471L98.2984 88.5432L95.7544 96.5836L88.9543 101.591L91.6309 109.595L89.0869 117.635L95.9594 122.546L98.6119 130.586Z" fill="url(#paint55_linear_6_1460)"/>
<defs>
<radialGradient id="paint0_radial_6_1460" cx="0" cy="0" r="1" gradientUnits="userSpaceOnUse" gradientTransform="translate(48741.8 100851) rotate(-0.449231) scale(8365.05 6563.95)">
<stop stop-color="#4D6339"/>
<stop offset="1" stop-color="#17211C"/>
</radialGradient>
<linearGradient id="paint1_linear_6_1460" x1="19882.2" y1="68613.2" x2="28499.2" y2="68545.4" gradientUnits="userSpaceOnUse">
<stop stop-color="#EADDC7"/>
<stop offset="0.64" stop-color="#CCAB66"/>
<stop offset="1" stop-color="#946B31"/>
</linearGradient>
<radialGradient id="paint2_radial_6_1460" cx="0" cy="0" r="1" gradientUnits="userSpaceOnUse" gradientTransform="translate(48933.3 101003) rotate(-0.449233) scale(8364.02 6563.92)">
<stop stop-color="#4D6339"/>
<stop offset="1" stop-color="#17211C"/>
</radialGradient>
<linearGradient id="paint3_linear_6_1460" x1="27821.9" y1="73548.4" x2="36442" y2="73480.6" gradientUnits="userSpaceOnUse">
<stop stop-color="#EADDC7"/>
<stop offset="0.64" stop-color="#CCAB66"/>
<stop offset="1" stop-color="#946B31"/>
</linearGradient>
<radialGradient id="paint4_radial_6_1460" cx="0" cy="0" r="1" gradientUnits="userSpaceOnUse" gradientTransform="translate(27223.7 144316) rotate(-0.449232) scale(4531.73 9390.15)">
<stop stop-color="#4D6339"/>
<stop offset="1" stop-color="#17211C"/>
</radialGradient>
<linearGradient id="paint5_linear_6_1460" x1="13337.4" y1="96810" x2="15847.7" y2="96790.3" gradientUnits="userSpaceOnUse">
<stop stop-color="#EADDC7"/>
<stop offset="0.64" stop-color="#CCAB66"/>
<stop offset="1" stop-color="#946B31"/>
</linearGradient>
<radialGradient id="paint6_radial_6_1460" cx="0" cy="0" r="1" gradientUnits="userSpaceOnUse" gradientTransform="translate(27329.5 144498) rotate(-0.449231) scale(4531.4 9387.72)">
<stop stop-color="#4D6339"/>
<stop offset="1" stop-color="#17211C"/>
</radialGradient>
<linearGradient id="paint7_linear_6_1460" x1="15813.4" y1="106762" x2="18324.8" y2="106742" gradientUnits="userSpaceOnUse">
<stop stop-color="#EADDC7"/>
<stop offset="0.64" stop-color="#CCAB66"/>
<stop offset="1" stop-color="#946B31"/>
</linearGradient>
<radialGradient id="paint8_radial_6_1460" cx="0" cy="0" r="1" gradientUnits="userSpaceOnUse" gradientTransform="translate(26680.9 144883) rotate(-0.449233) scale(4417.59 9426.94)">
<stop stop-color="#4D6339"/>
<stop offset="1" stop-color="#17211C"/>
</radialGradient>
<linearGradient id="paint9_linear_6_1460" x1="15360.1" y1="97193.9" x2="17807.4" y2="97174.7" gradientUnits="userSpaceOnUse">
<stop stop-color="#EADDC7"/>
<stop offset="0.64" stop-color="#CCAB66"/>
<stop offset="1" stop-color="#946B31"/>
</linearGradient>
<radialGradient id="paint10_radial_6_1460" cx="0" cy="0" r="1" gradientUnits="userSpaceOnUse" gradientTransform="translate(26573.8 145092) rotate(-0.449231) scale(4416.69 9426.05)">
<stop stop-color="#4D6339"/>
<stop offset="1" stop-color="#17211C"/>
</radialGradient>
<linearGradient id="paint11_linear_6_1460" x1="13108.6" y1="107220" x2="15556.2" y2="107201" gradientUnits="userSpaceOnUse">
<stop stop-color="#EADDC7"/>
<stop offset="0.64" stop-color="#CCAB66"/>
<stop offset="1" stop-color="#946B31"/>
</linearGradient>
<radialGradient id="paint12_radial_6_1460" cx="0" cy="0" r="1" gradientUnits="userSpaceOnUse" gradientTransform="translate(48543.5 102333) rotate(-0.449232) scale(8294.12 6660.62)">
<stop stop-color="#4D6339"/>
<stop offset="1" stop-color="#17211C"/>
</radialGradient>
<linearGradient id="paint13_linear_6_1460" x1="27572.7" y1="69577.2" x2="36123.5" y2="69510" gradientUnits="userSpaceOnUse">
<stop stop-color="#EADDC7"/>
<stop offset="0.64" stop-color="#CCAB66"/>
<stop offset="1" stop-color="#946B31"/>
</linearGradient>
<radialGradient id="paint14_radial_6_1460" cx="0" cy="0" r="1" gradientUnits="userSpaceOnUse" gradientTransform="translate(48350.2 102490) rotate(-0.449233) scale(8294.12 6660.54)">
<stop stop-color="#4D6339"/>
<stop offset="1" stop-color="#17211C"/>
</radialGradient>
<linearGradient id="paint15_linear_6_1460" x1="19781.5" y1="74661.7" x2="28331.8" y2="74594.5" gradientUnits="userSpaceOnUse">
<stop stop-color="#EADDC7"/>
<stop offset="0.64" stop-color="#CCAB66"/>
<stop offset="1" stop-color="#946B31"/>
</linearGradient>
<radialGradient id="paint16_radial_6_1460" cx="0" cy="0" r="1" gradientUnits="userSpaceOnUse" gradientTransform="translate(56887.8 64278.8) rotate(-0.449236) scale(9803.66 4177.75)">
<stop stop-color="#4D6339"/>
<stop offset="1" stop-color="#17211C"/>
</radialGradient>
<linearGradient id="paint17_linear_6_1460" x1="32133" y1="45144.9" x2="44017.5" y2="45051.4" gradientUnits="userSpaceOnUse">
<stop stop-color="#EADDC7"/>
<stop offset="0.64" stop-color="#CCAB66"/>
<stop offset="1" stop-color="#946B31"/>
</linearGradient>
<radialGradient id="paint18_radial_6_1460" cx="0" cy="0" r="1" gradientUnits="userSpaceOnUse" gradientTransform="translate(56635.7 64259.7) rotate(-0.449234) scale(9799.8 4176.19)">
<stop stop-color="#4D6339"/>
<stop offset="1" stop-color="#17211C"/>
</radialGradient>
<linearGradient id="paint19_linear_6_1460" x1="21336.7" y1="45232.6" x2="33226.1" y2="45139" gradientUnits="userSpaceOnUse">
<stop stop-color="#EADDC7"/>
<stop offset="0.64" stop-color="#CCAB66"/>
<stop offset="1" stop-color="#946B31"/>
</linearGradient>
<radialGradient id="paint20_radial_6_1460" cx="0" cy="0" r="1" gradientUnits="userSpaceOnUse" gradientTransform="translate(32871.5 108875) rotate(-0.449231) scale(6655.15 8453.79)">
<stop stop-color="#157B7D"/>
<stop offset="1" stop-color="#072E31"/>
</radialGradient>
<linearGradient id="paint21_linear_6_1460" x1="16091.6" y1="70574.3" x2="19634.6" y2="85424.3" gradientUnits="userSpaceOnUse">
<stop stop-color="#EADDC7"/>
<stop offset="0.64" stop-color="#CCAB66"/>
<stop offset="1" stop-color="#946B31"/>
</linearGradient>
<radialGradient id="paint22_radial_6_1460" cx="0" cy="0" r="1" gradientUnits="userSpaceOnUse" gradientTransform="translate(33019.3 108673) rotate(-0.449231) scale(6659.12 8451.07)">
<stop stop-color="#157B7D"/>
<stop offset="1" stop-color="#072E31"/>
</radialGradient>
<linearGradient id="paint23_linear_6_1460" x1="20160.7" y1="69547.5" x2="23703.6" y2="84398" gradientUnits="userSpaceOnUse">
<stop stop-color="#EADDC7"/>
<stop offset="0.64" stop-color="#CCAB66"/>
<stop offset="1" stop-color="#946B31"/>
</linearGradient>
<radialGradient id="paint24_radial_6_1460" cx="0" cy="0" r="1" gradientUnits="userSpaceOnUse" gradientTransform="translate(46188.4 59098.1) rotate(-0.449234) scale(9526.85 4582.02)">
<stop stop-color="#157B7D"/>
<stop offset="1" stop-color="#072E31"/>
</radialGradient>
<linearGradient id="paint25_linear_6_1460" x1="21727.3" y1="38221.1" x2="22526.7" y2="46633.1" gradientUnits="userSpaceOnUse">
<stop stop-color="#EADDC7"/>
<stop offset="0.64" stop-color="#CCAB66"/>
<stop offset="1" stop-color="#946B31"/>
</linearGradient>
<radialGradient id="paint26_radial_6_1460" cx="0" cy="0" r="1" gradientUnits="userSpaceOnUse" gradientTransform="translate(46364.8 59004.7) rotate(-0.449234) scale(9524.88 4581.84)">
<stop stop-color="#157B7D"/>
<stop offset="1" stop-color="#072E31"/>
</radialGradient>
<linearGradient id="paint27_linear_6_1460" x1="29013.6" y1="37531.2" x2="29815.1" y2="45952" gradientUnits="userSpaceOnUse">
<stop stop-color="#EADDC7"/>
<stop offset="0.64" stop-color="#CCAB66"/>
<stop offset="1" stop-color="#946B31"/>
</linearGradient>
<radialGradient id="paint28_radial_6_1460" cx="0" cy="0" r="1" gradientUnits="userSpaceOnUse" gradientTransform="translate(46365 57533.7) rotate(-0.449234) scale(9566.43 4467.02)">
<stop stop-color="#157B7D"/>
<stop offset="1" stop-color="#072E31"/>
</radialGradient>
<linearGradient id="paint29_linear_6_1460" x1="22104.7" y1="37179.3" x2="22863.5" y2="45381.8" gradientUnits="userSpaceOnUse">
<stop stop-color="#EADDC7"/>
<stop offset="0.64" stop-color="#CCAB66"/>
<stop offset="1" stop-color="#946B31"/>
</linearGradient>
<radialGradient id="paint30_radial_6_1460" cx="0" cy="0" r="1" gradientUnits="userSpaceOnUse" gradientTransform="translate(46553.2 57613.6) rotate(-0.449233) scale(9566.47 4466.53)">
<stop stop-color="#157B7D"/>
<stop offset="1" stop-color="#072E31"/>
</radialGradient>
<linearGradient id="paint31_linear_6_1460" x1="28817.1" y1="36661.3" x2="29578.3" y2="44875.6" gradientUnits="userSpaceOnUse">
<stop stop-color="#EADDC7"/>
<stop offset="0.64" stop-color="#CCAB66"/>
<stop offset="1" stop-color="#946B31"/>
</linearGradient>
<radialGradient id="paint32_radial_6_1460" cx="0" cy="0" r="1" gradientUnits="userSpaceOnUse" gradientTransform="translate(33360.1 107903) rotate(-0.449231) scale(6759.11 8391.12)">
<stop stop-color="#157B7D"/>
<stop offset="1" stop-color="#072E31"/>
</radialGradient>
<linearGradient id="paint33_linear_6_1460" x1="16876.9" y1="69699.7" x2="20313.5" y2="84444.6" gradientUnits="userSpaceOnUse">
<stop stop-color="#EADDC7"/>
<stop offset="0.64" stop-color="#CCAB66"/>
<stop offset="1" stop-color="#946B31"/>
</linearGradient>
<radialGradient id="paint34_radial_6_1460" cx="0" cy="0" r="1" gradientUnits="userSpaceOnUse" gradientTransform="translate(33487.7 108005) rotate(-0.44923) scale(6757.94 8386.41)">
<stop stop-color="#157B7D"/>
<stop offset="1" stop-color="#072E31"/>
</radialGradient>
<linearGradient id="paint35_linear_6_1460" x1="19880.2" y1="69161.9" x2="23323.1" y2="83920.6" gradientUnits="userSpaceOnUse">
<stop stop-color="#EADDC7"/>
<stop offset="0.64" stop-color="#CCAB66"/>
<stop offset="1" stop-color="#946B31"/>
</linearGradient>
<radialGradient id="paint36_radial_6_1460" cx="0" cy="0" r="1" gradientUnits="userSpaceOnUse" gradientTransform="translate(21517.9 127462) rotate(-0.449232) scale(4237.69 9910.75)">
<stop stop-color="#157B7D"/>
<stop offset="1" stop-color="#072E31"/>
</radialGradient>
<linearGradient id="paint37_linear_6_1460" x1="12339.8" y1="81801.1" x2="19052.9" y2="97288.3" gradientUnits="userSpaceOnUse">
<stop stop-color="#EADDC7"/>
<stop offset="0.64" stop-color="#CCAB66"/>
<stop offset="1" stop-color="#946B31"/>
</linearGradient>
<radialGradient id="paint38_radial_6_1460" cx="0" cy="0" r="1" gradientUnits="userSpaceOnUse" gradientTransform="translate(21522.4 127665) rotate(-0.449232) scale(4237.8 9911.48)">
<stop stop-color="#157B7D"/>
<stop offset="1" stop-color="#072E31"/>
</radialGradient>
<linearGradient id="paint39_linear_6_1460" x1="11426.5" y1="82473.2" x2="18149.8" y2="97996.5" gradientUnits="userSpaceOnUse">
<stop stop-color="#EADDC7"/>
<stop offset="0.64" stop-color="#CCAB66"/>
<stop offset="1" stop-color="#946B31"/>
</linearGradient>
<radialGradient id="paint40_radial_6_1460" cx="0" cy="0" r="1" gradientUnits="userSpaceOnUse" gradientTransform="translate(76830.8 191745) rotate(-0.449231) scale(9069.45 8632.96)">
<stop stop-color="#4D6339"/>
<stop offset="1" stop-color="#17211C"/>
</radialGradient>
<linearGradient id="paint41_linear_6_1460" x1="40618" y1="120174" x2="44269.4" y2="140886" gradientUnits="userSpaceOnUse">
<stop stop-color="#EADDC7"/>
<stop offset="0.64" stop-color="#CCAB66"/>
<stop offset="1" stop-color="#946B31"/>
</linearGradient>
<linearGradient id="paint42_linear_6_1460" x1="38680.2" y1="2475.58" x2="38685.8" y2="2949.4" gradientUnits="userSpaceOnUse">
<stop stop-color="#EADDC7"/>
<stop offset="0.64" stop-color="#CCAB66"/>
<stop offset="1" stop-color="#946B31"/>
</linearGradient>
<linearGradient id="paint43_linear_6_1460" x1="2087.12" y1="123290" x2="4743.11" y2="123594" gradientUnits="userSpaceOnUse">
<stop stop-color="#EADDC7"/>
<stop offset="0.64" stop-color="#CCAB66"/>
<stop offset="1" stop-color="#946B31"/>
</linearGradient>
<linearGradient id="paint44_linear_6_1460" x1="38682.8" y1="2482.66" x2="38688.3" y2="2956.45" gradientUnits="userSpaceOnUse">
<stop stop-color="#EADDC7"/>
<stop offset="0.64" stop-color="#CCAB66"/>
<stop offset="1" stop-color="#946B31"/>
</linearGradient>
<linearGradient id="paint45_linear_6_1460" x1="1953.21" y1="123023" x2="4603.3" y2="123329" gradientUnits="userSpaceOnUse">
<stop stop-color="#EADDC7"/>
<stop offset="0.64" stop-color="#CCAB66"/>
<stop offset="1" stop-color="#946B31"/>
</linearGradient>
<linearGradient id="paint46_linear_6_1460" x1="38680.3" y1="2475.78" x2="38685.8" y2="2949.57" gradientUnits="userSpaceOnUse">
<stop stop-color="#EADDC7"/>
<stop offset="0.64" stop-color="#CCAB66"/>
<stop offset="1" stop-color="#946B31"/>
</linearGradient>
<radialGradient id="paint47_radial_6_1460" cx="0" cy="0" r="1" gradientUnits="userSpaceOnUse" gradientTransform="translate(61876.8 169446) rotate(-0.449232) scale(8237.15 8624.46)">
<stop stop-color="#157B7D"/>
<stop offset="1" stop-color="#072E31"/>
</radialGradient>
<linearGradient id="paint48_linear_6_1460" x1="32636.7" y1="107878" x2="36912.8" y2="123997" gradientUnits="userSpaceOnUse">
<stop stop-color="#EADDC7"/>
<stop offset="0.64" stop-color="#CCAB66"/>
<stop offset="1" stop-color="#946B31"/>
</linearGradient>
<linearGradient id="paint49_linear_6_1460" x1="1780.08" y1="104918" x2="3474.23" y2="105078" gradientUnits="userSpaceOnUse">
<stop stop-color="#EADDC7"/>
<stop offset="0.64" stop-color="#CCAB66"/>
<stop offset="1" stop-color="#946B31"/>
</linearGradient>
<linearGradient id="paint50_linear_6_1460" x1="32425" y1="2465.06" x2="32431.2" y2="2885.01" gradientUnits="userSpaceOnUse">
<stop stop-color="#EADDC7"/>
<stop offset="0.64" stop-color="#CCAB66"/>
<stop offset="1" stop-color="#946B31"/>
</linearGradient>
<linearGradient id="paint51_linear_6_1460" x1="1654.92" y1="105131" x2="3352.67" y2="105294" gradientUnits="userSpaceOnUse">
<stop stop-color="#EADDC7"/>
<stop offset="0.64" stop-color="#CCAB66"/>
<stop offset="1" stop-color="#946B31"/>
</linearGradient>
<linearGradient id="paint52_linear_6_1460" x1="32325.3" y1="2535.85" x2="32330.4" y2="2954.61" gradientUnits="userSpaceOnUse">
<stop stop-color="#EADDC7"/>
<stop offset="0.64" stop-color="#CCAB66"/>
<stop offset="1" stop-color="#946B31"/>
</linearGradient>
<linearGradient id="paint53_linear_6_1460" x1="1779.58" y1="104907" x2="3473.96" y2="105067" gradientUnits="userSpaceOnUse">
<stop stop-color="#EADDC7"/>
<stop offset="0.64" stop-color="#CCAB66"/>
<stop offset="1" stop-color="#946B31"/>
</linearGradient>
<radialGradient id="paint54_radial_6_1460" cx="0" cy="0" r="1" gradientUnits="userSpaceOnUse" gradientTransform="translate(12543.6 50840.7) rotate(4.07307) scale(1222.34 1280.04)">
<stop stop-color="#157B7D"/>
<stop offset="1" stop-color="#072E31"/>
</radialGradient>
<linearGradient id="paint55_linear_6_1460" x1="15381.5" y1="51530.3" x2="16644.6" y2="54864.4" gradientUnits="userSpaceOnUse">
<stop stop-color="#EADDC7"/>
<stop offset="0.64" stop-color="#CCAB66"/>
<stop offset="1" stop-color="#946B31"/>
</linearGradient>
</defs>
</svg>
